<?xml version="1.0" encoding="utf-8"?>
<!-- Generator: Adobe Illustrator 19.1.0, SVG Export Plug-In . SVG Version: 6.00 Build 0)  -->
<svg version="1.1" id="Layer_1" xmlns="http://www.w3.org/2000/svg" xmlns:xlink="http://www.w3.org/1999/xlink" x="0px" y="0px"
	 viewBox="0 0 80 75" style="enable-background:new 0 0 80 75;" xml:space="preserve">
<style type="text/css">
	.st0{enable-background:new    ;}
	.st1{fill:url(#SVGID_1_);}
	.st2{fill:url(#SVGID_2_);}
	.st3{fill:url(#SVGID_3_);}
	.st4{fill:url(#SVGID_4_);}
	.st5{fill:url(#SVGID_5_);}
	.st6{fill:url(#SVGID_6_);}
	.st7{fill:#FFFFFF;}
	.st8{fill:url(#SVGID_7_);}
	.st9{fill:url(#SVGID_8_);}
	.st10{fill:url(#SVGID_9_);}
	.st11{fill:url(#SVGID_10_);}
	.st12{fill:url(#SVGID_11_);}
	.st13{fill:url(#SVGID_12_);}
	.st14{fill:#C1272D;}
	.st15{fill:#2E3192;}
	.st16{fill:#FFFFFF;stroke:#2E3192;stroke-width:0.5714;stroke-miterlimit:10;}
	.st17{fill:#FFFFFF;stroke:#2E3192;stroke-width:2.2857;stroke-miterlimit:10;}
	.st18{fill:none;}
	.st19{fill:#C1272D;stroke:#C1272D;stroke-miterlimit:10;}
	.st20{fill:none;stroke:#C1272D;stroke-width:0.6544;stroke-miterlimit:10;}
	.st21{fill:none;stroke:#C1272D;stroke-width:0.9816;stroke-miterlimit:10;}
</style>
<g>
	<g class="st0">
		<g>
			<linearGradient id="SVGID_1_" gradientUnits="userSpaceOnUse" x1="-1395.0521" y1="23.1677" x2="-1353" y2="23.1677">
				<stop  offset="0" style="stop-color:#1B1464"/>
				<stop  offset="0.8544" style="stop-color:#0071BC"/>
				<stop  offset="1" style="stop-color:#1B1464"/>
			</linearGradient>
			<path class="st1" d="M-1395,36.1V0.7c0,0.1-0.1,0.3,0,0.4c1.1,1.3,8,1.8,15.1,2.4c11.6,1,25,2,27,6.8v35.4
				c-2-4.7-15.5-5.8-27-6.8c-7.1-0.6-13.7-1.1-14.8-2.4C-1395,36.4-1395,36.2-1395,36.1z"/>
		</g>
		<g>
			<linearGradient id="SVGID_2_" gradientUnits="userSpaceOnUse" x1="-1602" y1="23.1677" x2="-1560" y2="23.1677">
				<stop  offset="8.428263e-03" style="stop-color:#1B1464"/>
				<stop  offset="0.2534" style="stop-color:#0071BC"/>
				<stop  offset="1" style="stop-color:#1B1464"/>
			</linearGradient>
			<path class="st2" d="M-1560,0.7v35.4c0,0.1-0.2,0.3-0.3,0.4c-1.1,1.3-7.8,1.8-14.9,2.4c-11.6,1-23.8,2-26.8,6.8V10.2
				c3-4.7,15.2-5.8,26.7-6.8c7.1-0.6,13.9-1.1,15-2.4C-1560.2,0.9-1560,0.8-1560,0.7z"/>
		</g>
		<g>
			<linearGradient id="SVGID_3_" gradientUnits="userSpaceOnUse" x1="-1397" y1="15.8392" x2="-1340" y2="15.8392">
				<stop  offset="0" style="stop-color:#0071BC"/>
				<stop  offset="1" style="stop-color:#1B1464"/>
			</linearGradient>
			<path class="st3" d="M-1397,36.1V0.7c0-0.3,0.3-0.7,0.6-1c1.9-2.1,6.6-2.7,12.4-2.7c5.1,0,11.1,0.5,17,1
				c5.7,0.5,11.5,0.9,16.3,0.9c5.4,0,9.6-0.6,10.5-2.6c0.1-0.2,0.3-0.4,0.3-0.6V31c0,0.2-0.2,0.4-0.2,0.6c-0.9,2-5,2.6-10.4,2.6
				c-4.7,0-10.6-0.5-16.3-0.9c-5.9-0.5-11.9-1-17-1c-5.8,0-10.6,0.7-12.5,2.7C-1396.7,35.4-1397,35.8-1397,36.1z"/>
		</g>
		<g>
			<linearGradient id="SVGID_4_" gradientUnits="userSpaceOnUse" x1="-1614.5603" y1="15.8376" x2="-1558" y2="15.8376">
				<stop  offset="0" style="stop-color:#1B1464"/>
				<stop  offset="1" style="stop-color:#0071BC"/>
				<stop  offset="1" style="stop-color:#1B1464"/>
			</linearGradient>
			<path class="st4" d="M-1614,31V-4.4c0,0.2-0.6,0.4-0.6,0.6c0.9,2,4.6,2.6,10,2.6c4.7,0,10.4-0.5,16.1-0.9c5.9-0.5,11.8-1,16.9-1
				c5.8,0,10.9,0.7,12.7,2.7c0.3,0.4,0.9,0.7,0.9,1v35.4c0-0.3-0.6-0.7-0.9-1c-1.9-2.1-6.7-2.7-12.6-2.7c-5.1,0-11.2,0.5-17.1,1
				c-5.7,0.5-11.6,0.9-16.3,0.9c-5.4,0-8.8-0.6-9.7-2.6C-1614.6,31.4-1614,31.2-1614,31z"/>
		</g>
		<g>
			<linearGradient id="SVGID_5_" gradientUnits="userSpaceOnUse" x1="-1616.7711" y1="30.7111" x2="-1338.8267" y2="30.7111">
				<stop  offset="0" style="stop-color:#0071BC"/>
				<stop  offset="1" style="stop-color:#0071BC"/>
			</linearGradient>
			<path class="st5" d="M-1489.4,15.5c4,0,7.9,0,11.6,0.1c3.6-0.1,7.5-0.1,11.6-0.1c46.5,0,114.8,5,125.8,13.1
				c1.4,1,1.9,2.1,1.4,3.2c-1.1,2.5-5.6,3.2-11.6,3.2c-4.8,0-10.6-0.5-16.5-1c-5.9-0.5-11.9-1-16.9-1c-5.3,0-9.4,0.6-11,2.3
				c-0.4,0.4-0.4,0.7-0.2,1c1.1,1.3,7.8,1.8,14.9,2.4c11.6,1,24.7,2,26.8,6.8l-1.3,0.2c-1.9-4.2-15-5.3-25.6-6.2
				c-8.1-0.7-14.5-1.2-15.9-2.9c-0.5-0.5-0.4-1.1,0.2-1.8c1.9-2.1,6.5-2.7,12.3-2.7c5.1,0,11,0.5,16.9,1c5.7,0.5,11.5,0.9,16.2,0.9
				c5.4,0,9.5-0.6,10.4-2.6c0.4-0.8,0-1.6-1.1-2.5c-5-3.7-24.8-7.3-54.3-9.8c-22.5-1.9-48.2-3-70.1-3c-4.1,0-8.1,0-11.9,0.1
				c-3.8-0.1-7.8-0.1-12-0.1c-21.8,0-47.6,1.1-70.1,3c-29.5,2.5-49.2,6.1-54.3,9.8c-1.1,0.8-1.5,1.7-1.1,2.5c0.9,2,4.9,2.6,10.4,2.6
				c4.7,0,10.5-0.5,16.2-0.9c5.9-0.5,11.9-1,16.9-1c5.8,0,10.5,0.7,12.3,2.7c0.6,0.7,0.6,1.3,0.2,1.8c-1.4,1.7-7.8,2.2-15.9,2.9
				c-10.6,0.9-23.7,2-25.6,6.2l-1.3-0.2c2.1-4.7,15.2-5.8,26.8-6.8c7.1-0.6,13.7-1.1,14.9-2.4c0.2-0.3,0.2-0.6-0.2-1
				c-1.6-1.7-5.7-2.3-11-2.3c-5,0-11,0.5-16.9,1c-5.9,0.5-11.7,1-16.5,1c-6.1,0-10.5-0.8-11.6-3.2c-0.5-1.1,0-2.2,1.4-3.2
				C-1604.2,20.5-1535.9,15.5-1489.4,15.5z"/>
		</g>
		
			<radialGradient id="SVGID_6_" cx="-1451.3328" cy="5.5544" r="117.002" gradientTransform="matrix(0.8471 0 0 1 -248.0491 0)" gradientUnits="userSpaceOnUse">
			<stop  offset="0" style="stop-color:#0071BC"/>
			<stop  offset="1" style="stop-color:#1B1464"/>
		</radialGradient>
		<path class="st6" d="M-1340.5-6.8c-11-8.1-79.2-13.1-125.7-13.1c-4,0-8.1,0-11.6,0.1c-3.5-0.1-7.6-0.1-11.8-0.1
			c-46.5,0-114.4,5-125.4,13.1c-1,0.8-1.1,1.6-1.1,2.4V31c0-0.8,0.1-1.6,1.1-2.4c11-8.1,79-13.1,125.5-13.1c4.2,0,8.3,0,11.7,0.1
			c3.5-0.1,7.4-0.1,11.5-0.1c46.5,0,114.8,5,125.8,13.1c1.1,0.8,1.5,1.6,1.5,2.4V-4.4C-1339-5.2-1339.4-6-1340.5-6.8z"/>
	</g>
</g>
<g>
	<g>
		<path class="st7" d="M-1597.5,7.1c0.5-0.1,0.8-0.1,0.9-0.1c0,0,0.1-0.1,0.1-0.1c0,0,0.1-0.1,0.1-0.3c0-0.2,0-0.6,0-1.3
			c0-0.4,0-0.9-0.1-1.5c-0.1-0.7-0.1-1.5-0.2-2.2c-0.1-0.7-0.1-1.3-0.2-2c0-0.3-0.1-0.5-0.1-0.6c0-0.1-0.1-0.2-0.1-0.2
			c0,0-0.1-0.1-0.2-0.1c-0.1,0-0.4,0-0.9,0c0-0.2,0-0.4,0-0.6c0.6,0,1,0,1.3-0.1c0.3,0,0.7-0.1,1-0.1c0.2,0,0.4,0,0.6-0.1
			c1,1.1,2.3,2.5,3.7,4c1,1.1,1.9,1.9,2.6,2.5c0-0.5-0.1-1-0.1-1.6c-0.2-2.4-0.3-3.9-0.4-4.3c0-0.2-0.1-0.3-0.1-0.3
			c-0.1-0.1-0.5-0.1-1.1-0.1c0-0.2,0-0.4,0-0.6c0.6,0,1.1,0,1.5-0.1c0.5,0,1-0.1,1.7-0.2c0,0.2,0,0.4,0,0.6c-0.6,0.1-0.9,0.1-1,0.2
			c0,0-0.1,0.1-0.1,0.1c-0.1,0.2-0.1,0.8,0,1.6c0,0.8,0.1,1.4,0.1,1.8c0.2,3,0.4,4.9,0.5,5.5c0,0-0.1,0-0.1,0.1
			c-0.4,0-0.8-0.1-1.2-0.1c-1.6-1.5-3.9-3.8-6.8-6.9c0.1,1.1,0.2,2.3,0.3,3.4c0.1,0.7,0.1,1.4,0.2,2.2c0.1,0.5,0.1,0.8,0.2,1
			c0,0.1,0.1,0.1,0.1,0.1c0,0,0.1,0,0.2,0.1c0.3,0,0.5,0,0.7,0c0,0,0.1,0,0.1,0c0,0.2,0,0.4,0,0.6c-0.9,0.1-1.4,0.1-1.5,0.1
			c-0.4,0-1,0.1-1.8,0.2C-1597.4,7.5-1597.4,7.3-1597.5,7.1z"/>
		<path class="st7" d="M-1579.7,5.9c0,0.2,0,0.3,0,0.5c-0.5,0-1,0-1.4,0.1c-0.4,0-0.8,0.1-1.1,0.1c0,0,0,0-0.1-0.1
			c0-0.3,0-0.6,0-0.9c-0.2,0.1-0.6,0.5-1.4,1.2c-0.2,0.1-0.4,0.1-0.6,0.1c-0.5,0-0.9-0.1-1.2-0.4c-0.3-0.3-0.5-0.7-0.5-1.2
			c0-0.4,0-0.7,0.1-0.9c0.1-0.2,0.2-0.4,0.4-0.6c0.1-0.1,0.4-0.2,0.6-0.4c0.7-0.3,1.5-0.6,2.3-0.8c0-0.5-0.2-0.9-0.4-1.2
			c-0.3-0.3-0.6-0.4-1.1-0.3c-0.2,0-0.4,0.1-0.6,0.1c-0.1,0-0.2,0.1-0.3,0.2c-0.1,0.2-0.2,0.5-0.2,0.7c-0.2,0-0.3,0-0.5-0.1
			c0-0.3,0-0.6,0-0.9c0.3-0.3,0.6-0.5,0.9-0.7c0.3-0.2,0.5-0.3,0.6-0.4c0.2-0.1,0.4-0.1,0.7-0.1c0.5,0,0.9,0,1.2,0.1
			c0.3,0.1,0.6,0.3,0.7,0.5c0.2,0.2,0.3,0.4,0.4,0.6c0.1,0.2,0.1,0.5,0.1,0.8c0,0.1,0,0.5,0,1.1c0,0.4,0,0.7,0,1
			c0.1,0.8,0.1,1.3,0.2,1.5c0,0.1,0.1,0.1,0.1,0.2C-1580.3,5.8-1580.1,5.9-1579.7,5.9z M-1582.4,3.2c-0.4,0.1-0.7,0.2-1,0.4
			c-0.3,0.1-0.5,0.3-0.6,0.5c-0.1,0.2-0.2,0.4-0.1,0.7c0,0.3,0.1,0.5,0.3,0.7c0.2,0.1,0.4,0.2,0.6,0.2c0.2,0,0.4-0.1,0.6-0.2
			c0.2-0.1,0.4-0.3,0.5-0.5C-1582.3,4.3-1582.3,3.8-1582.4,3.2z"/>
		<path class="st7" d="M-1579.3,1.1c0-0.1,0-0.2,0-0.3c0.2-0.1,0.4-0.3,0.6-0.4c0.1-0.1,0.2-0.1,0.3-0.2c0-0.3,0-0.6-0.1-0.9
			c0-0.3-0.1-0.7-0.1-1.2c0.4-0.2,0.7-0.3,0.8-0.4c0,0,0.3-0.2,0.8-0.5c0.1,0,0.1,0.1,0.2,0.1c0,0.2,0,0.5,0,0.7c0,0.3,0,0.5,0,0.8
			c0,0.4,0,0.8,0,1.2c0.1,0,0.2,0,0.2,0c0.6,0,1.1-0.1,1.4-0.2c0,0.3,0,0.6-0.1,0.9c-0.1,0-0.1,0-0.2,0c-0.2,0-0.4,0-0.7,0
			c-0.2,0-0.4,0-0.7,0c0,0.8,0.1,1.5,0.1,2.3c0,0.7,0.1,1.1,0.1,1.2c0,0.2,0.1,0.4,0.3,0.5c0.1,0.1,0.3,0.2,0.6,0.1
			c0.2,0,0.3,0,0.4,0c0.1,0,0.2,0,0.4-0.1c0,0.1,0.1,0.2,0.1,0.3c-0.1,0.1-0.2,0.2-0.2,0.3c-0.2,0.2-0.4,0.4-0.5,0.6
			c-0.2,0.1-0.3,0.2-0.5,0.2c-0.1,0-0.3,0.1-0.4,0.1c-0.5,0-1-0.1-1.3-0.3c-0.3-0.3-0.5-0.6-0.5-1c0-0.8-0.1-1.5-0.1-2.3
			c0-0.6-0.1-1.1-0.1-1.7c-0.1,0-0.1,0-0.2,0C-1578.9,1.1-1579.1,1.1-1579.3,1.1z"/>
		<path class="st7" d="M-1574.2,6c0-0.2,0-0.3,0-0.5c0.5-0.1,0.8-0.1,0.9-0.2c0.1,0,0.1-0.1,0.1-0.3c0-0.3,0-0.9-0.1-1.9
			c-0.1-1.4-0.2-2.2-0.2-2.4c0-0.1-0.1-0.1-0.1-0.2c-0.1-0.1-0.4-0.1-0.9,0c0-0.2,0-0.3,0-0.5c0.7-0.1,1.2-0.2,1.5-0.3
			c0.3-0.1,0.7-0.3,1.1-0.4c0.1,0,0.1,0.1,0.2,0.1c0,0.7,0,1.4,0,2c0,0.8,0.1,1.5,0.1,2.3c0,0.8,0.1,1.3,0.1,1.4
			c0,0.1,0.1,0.1,0.1,0.2c0.1,0.1,0.4,0.1,0.9,0.1c0,0.2,0,0.4,0,0.5c-0.6,0-1.4,0.1-2.1,0.1C-1573.1,5.9-1573.7,6-1574.2,6z
			 M-1572.9-4c0.3,0,0.5,0.1,0.8,0.3c0.2,0.2,0.3,0.4,0.4,0.7c0,0.3-0.1,0.5-0.3,0.8c-0.2,0.2-0.4,0.3-0.7,0.4
			c-0.3,0-0.5-0.1-0.8-0.3c-0.2-0.2-0.3-0.4-0.4-0.7c0-0.3,0.1-0.5,0.3-0.8C-1573.5-3.8-1573.2-4-1572.9-4z"/>
		<path class="st7" d="M-1569.6,2.5c0-0.8,0-1.4,0.3-1.9c0.2-0.5,0.6-0.9,1.1-1.2c0.5-0.3,1.1-0.5,1.8-0.5c1.1-0.1,1.9,0.2,2.5,0.7
			c0.6,0.5,0.9,1.3,1,2.4c0,0.6,0,1.2-0.2,1.6c-0.1,0.5-0.3,0.8-0.6,1.1c-0.3,0.3-0.5,0.5-0.8,0.7c-0.5,0.3-1.1,0.4-1.7,0.5
			c-1,0.1-1.8-0.2-2.4-0.7S-1569.5,3.6-1569.6,2.5z M-1567.7,2.1c0.1,1.2,0.3,2.1,0.7,2.6c0.3,0.3,0.6,0.5,1,0.5
			c0.4,0,0.7-0.2,0.9-0.4c0.3-0.4,0.4-1,0.3-2c0-0.7-0.1-1.3-0.3-1.8c-0.1-0.5-0.3-0.8-0.6-1c-0.2-0.2-0.5-0.3-0.8-0.2
			c-0.3,0-0.5,0.1-0.7,0.3c-0.2,0.2-0.3,0.4-0.4,0.8C-1567.7,0.9-1567.8,1.4-1567.7,2.1z"/>
		<path class="st7" d="M-1554,4.4c0,0.2,0,0.3,0,0.5c-0.6,0-1.1,0-1.5,0c-0.5,0-0.8,0.1-1.2,0.1c0,0-0.1-0.1-0.1-0.1
			c0-0.1,0-0.5,0-1.2c0-0.4,0-0.7,0-1.1c0-0.2,0-0.4,0-0.5c0-0.8-0.1-1.3-0.2-1.6c-0.1-0.2-0.2-0.4-0.4-0.6
			c-0.2-0.1-0.5-0.2-0.8-0.2c-0.3,0-0.6,0.1-0.8,0.3c-0.2,0.2-0.3,0.3-0.4,0.5c0,0.1,0,0.5,0,1.1c0,0.4,0,0.8,0.1,1.1
			c0,0.3,0.1,0.7,0.1,1.2c0,0.2,0,0.4,0.1,0.4c0,0,0.1,0.1,0.1,0.1c0.1,0,0.2,0.1,0.3,0.1c0.1,0,0.2,0,0.6,0c0,0.2,0,0.4,0,0.5
			c-0.5,0-1.1,0-1.8,0.1c-0.8,0-1.5,0.1-1.9,0.1c0-0.2,0-0.4,0-0.5c0.4,0,0.6-0.1,0.7-0.1c0.1,0,0.1-0.1,0.1-0.1
			c0-0.1,0.1-0.3,0-0.5c0-0.2,0-0.4,0-0.6c0-0.1,0-0.3,0-0.6c0-0.3,0-0.6,0-0.9c0-0.4-0.1-0.9-0.1-1.5c0-0.3-0.1-0.5-0.1-0.5
			c0,0-0.1-0.1-0.1-0.1c-0.1,0-0.4,0-0.8,0c0-0.2,0-0.4,0-0.5c0.8-0.2,1.4-0.3,1.6-0.4c0.3-0.1,0.5-0.2,0.9-0.4c0.1,0,0.1,0,0.2,0.1
			c0,0.4,0,0.7,0.1,1.1c0.4-0.4,0.8-0.7,1.2-1.1c0.1-0.1,0.3-0.1,0.4-0.1c0.1,0,0.2,0,0.4-0.1c0.5,0,0.9,0,1.1,0.1
			c0.3,0.1,0.5,0.2,0.6,0.4c0.2,0.2,0.3,0.4,0.4,0.6c0.1,0.2,0.1,0.6,0.2,1c0,0.5,0,0.9,0,1c0,0.1,0,0.1,0,0.2c0,0.2,0,0.5,0,0.7
			c0,0.8,0.1,1.2,0.1,1.4c0,0.2,0.1,0.3,0.1,0.3c0.1,0,0.2,0.1,0.4,0.1C-1554.3,4.3-1554.1,4.3-1554,4.4z"/>
		<path class="st7" d="M-1547,4c0,0.2,0,0.3,0,0.5c-0.5,0-1,0-1.4,0c-0.4,0-0.8,0-1.1,0.1c0,0,0,0-0.1-0.1c0-0.3,0-0.6,0-0.9
			c-0.2,0.1-0.6,0.5-1.4,1.1c-0.2,0.1-0.4,0.1-0.6,0.1c-0.5,0-0.9-0.1-1.2-0.4c-0.3-0.3-0.5-0.7-0.5-1.2c0-0.4,0-0.7,0.1-0.9
			c0.1-0.2,0.2-0.4,0.4-0.5c0.1-0.1,0.4-0.2,0.7-0.4c0.7-0.3,1.5-0.5,2.3-0.7c0-0.5-0.1-0.9-0.4-1.2c-0.3-0.3-0.6-0.4-1.1-0.4
			c-0.2,0-0.4,0-0.6,0.1c-0.1,0-0.2,0.1-0.3,0.1c-0.1,0.2-0.2,0.5-0.3,0.7c-0.2,0-0.3-0.1-0.5-0.1c0-0.3,0-0.6,0-0.9
			c0.3-0.2,0.6-0.5,0.9-0.6c0.3-0.2,0.5-0.3,0.6-0.3c0.2-0.1,0.4-0.1,0.7-0.1c0.5,0,0.9,0,1.2,0.2c0.3,0.1,0.6,0.3,0.7,0.5
			c0.2,0.2,0.3,0.4,0.3,0.6c0.1,0.2,0.1,0.5,0.1,0.8c0,0.1,0,0.5,0,1.1c0,0.4,0,0.7,0,1c0,0.8,0.1,1.3,0.1,1.5
			c0,0.1,0.1,0.1,0.1,0.2C-1547.6,4-1547.4,4-1547,4z M-1549.6,1.3c-0.4,0.1-0.7,0.2-1.1,0.3c-0.3,0.1-0.5,0.3-0.6,0.5
			c-0.1,0.2-0.2,0.4-0.2,0.7c0,0.3,0.1,0.5,0.3,0.7c0.2,0.2,0.4,0.2,0.6,0.2c0.2,0,0.4-0.1,0.6-0.2c0.2-0.1,0.4-0.3,0.5-0.5
			C-1549.6,2.5-1549.6,1.9-1549.6,1.3z"/>
		<path class="st7" d="M-1542.4,3.8c0,0.2,0,0.4,0,0.5c-0.6,0-1.2,0-1.8,0c-0.6,0-1.3,0.1-2.1,0.1c0-0.2,0-0.4,0-0.5
			c0.4,0,0.7-0.1,0.8-0.1c0.1,0,0.1,0,0.2-0.1c0,0,0.1-0.1,0.1-0.2c0-0.1,0-0.6,0-1.3c0-0.7,0-1.4-0.1-1.9c0-0.8-0.1-1.5-0.1-2.3
			c0-0.7-0.1-1.4-0.1-2c0-0.3-0.1-0.5-0.1-0.6c0,0,0-0.1-0.1-0.1c-0.1,0-0.1-0.1-0.3-0.1c-0.1,0-0.3,0-0.6,0c0-0.2,0-0.3,0-0.5
			c0.6-0.1,1-0.2,1.4-0.3c0.3-0.1,0.8-0.2,1.4-0.4c0,0,0.1,0.1,0.1,0.1c0,0.5,0,0.9,0,1.4c0,0.8,0,1.7,0.1,2.9
			c0,0.6,0.1,1.2,0.1,1.8c0,0.7,0.1,1.2,0.1,1.5c0.1,0.8,0.1,1.3,0.1,1.5c0,0.2,0,0.3,0.1,0.3c0,0,0,0.1,0.1,0.1
			c0,0,0.1,0.1,0.2,0.1C-1543.1,3.8-1542.9,3.8-1542.4,3.8z"/>
		<path class="st7" d="M-1538.2,4.2c0-0.2,0-0.4,0-0.6c0.4,0,0.6-0.1,0.7-0.1c0.1,0,0.1-0.1,0.2-0.1c0,0,0.1-0.1,0.1-0.2
			c0-0.1,0.2-0.4,0.4-1.1c0.1-0.3,0.3-0.9,0.6-1.7c0.5-1.5,1.1-3,1.6-4.5c0.2-0.5,0.4-1,0.5-1.6c0.3,0,0.7,0,1,0
			c1.1,2.3,2.2,4.7,3.3,7c0.2,0.3,0.3,0.6,0.5,0.9c0.1,0.2,0.2,0.4,0.3,0.6c0,0.1,0.1,0.1,0.1,0.2c0,0,0.1,0.1,0.1,0.1
			c0.1,0,0.2,0,0.4,0c0.1,0,0.2,0,0.3,0c0,0.2,0,0.4,0,0.6c-0.6,0-1.3,0-1.9,0c-0.8,0-1.6,0.1-2.4,0.1c0-0.2,0-0.4,0-0.6
			c0.6,0,0.9-0.1,0.9-0.1c0.1,0,0.1-0.1,0.1-0.2c0-0.1-0.1-0.3-0.2-0.6c-0.2-0.5-0.4-1-0.6-1.5c-1.2,0-2.4,0.1-3.5,0.1
			c-0.1,0.3-0.2,0.6-0.3,0.8c-0.2,0.6-0.3,1-0.3,1.2c0,0.1,0,0.2,0.1,0.2c0.1,0.1,0.4,0.1,1,0.1c0,0.2,0,0.4,0,0.6
			c-0.5,0-1.1,0-1.6,0C-1537.1,4.1-1537.6,4.1-1538.2,4.2z M-1535.3,0.3c0.4,0,0.9,0,1.5,0c0.5,0,1,0,1.4-0.1
			c-0.5-1.2-1.1-2.3-1.6-3.5C-1534.4-2-1534.9-0.8-1535.3,0.3z"/>
		<path class="st7" d="M-1523.4,3.1c0,0.2,0,0.4,0,0.5c-0.6,0-1.2,0-1.8,0c-0.6,0-1.3,0.1-2.1,0.1c0-0.2,0-0.4,0-0.5
			c0.4,0,0.7-0.1,0.8-0.1c0.1,0,0.1,0,0.2-0.1c0,0,0.1-0.1,0.1-0.2c0-0.1,0-0.6,0-1.3c0-0.7,0-1.4,0-1.9c0-0.8,0-1.5-0.1-2.3
			c0-0.7-0.1-1.4-0.1-2c0-0.3-0.1-0.5-0.1-0.6c0,0,0-0.1-0.1-0.1c-0.1,0-0.1-0.1-0.3-0.1c-0.1,0-0.3,0-0.6,0c0-0.2,0-0.3,0-0.5
			c0.6-0.1,1-0.2,1.4-0.2c0.3-0.1,0.8-0.2,1.4-0.4c0,0,0.1,0.1,0.1,0.1c0,0.5,0,0.9,0,1.4c0,0.8,0,1.7,0,2.9c0,0.6,0,1.2,0.1,1.8
			c0,0.7,0,1.2,0.1,1.5c0,0.8,0.1,1.3,0.1,1.5c0,0.2,0,0.3,0.1,0.3c0,0,0,0.1,0.1,0.1c0,0,0.1,0.1,0.2,0.1
			C-1524,3.1-1523.8,3.1-1523.4,3.1z"/>
		<path class="st7" d="M-1518.7,3c0,0.2,0,0.4,0,0.5c-0.6,0-1.2,0-1.8,0c-0.6,0-1.3,0.1-2.1,0.1c0-0.2,0-0.4,0-0.5
			c0.4,0,0.7-0.1,0.8-0.1c0.1,0,0.1,0,0.2-0.1c0,0,0.1-0.1,0.1-0.2c0-0.1,0-0.6,0-1.3c0-0.7,0-1.4,0-1.9c0-0.8,0-1.5-0.1-2.3
			c0-0.7-0.1-1.4-0.1-2c0-0.3-0.1-0.5-0.1-0.6c0,0,0-0.1-0.1-0.1c-0.1,0-0.1-0.1-0.3-0.1c-0.1,0-0.3,0-0.6,0c0-0.2,0-0.3,0-0.5
			c0.6-0.1,1-0.2,1.4-0.2c0.3-0.1,0.8-0.2,1.4-0.4c0,0,0.1,0.1,0.1,0.1c0,0.5,0,0.9,0,1.4c0,0.8,0,1.7,0,2.9c0,0.6,0,1.2,0,1.8
			c0,0.7,0,1.2,0.1,1.5c0,0.8,0.1,1.3,0.1,1.5c0,0.2,0,0.3,0.1,0.3c0,0,0,0.1,0.1,0.1c0,0,0.1,0.1,0.2,0.1
			C-1519.4,3-1519.1,3-1518.7,3z"/>
		<path class="st7" d="M-1517.8,3.5c0-0.2,0-0.3,0-0.5c0.5,0,0.8-0.1,0.9-0.1c0.1,0,0.1-0.1,0.1-0.2c0-0.3,0-0.9,0-1.9
			c0-1.4-0.1-2.2-0.1-2.4c0-0.1-0.1-0.1-0.1-0.2c-0.1-0.1-0.4-0.1-0.9-0.1c0-0.2,0-0.3,0-0.5c0.7-0.1,1.2-0.2,1.6-0.3
			c0.4-0.1,0.7-0.2,1.1-0.4c0.1,0,0.1,0.1,0.2,0.1c0,0.7,0,1.4,0,2c0,0.8,0,1.5,0.1,2.3c0,0.8,0,1.3,0.1,1.4c0,0.1,0.1,0.1,0.1,0.2
			c0.1,0.1,0.4,0.1,0.9,0.1c0,0.2,0,0.4,0,0.5c-0.6,0-1.4,0-2.1,0C-1516.7,3.4-1517.3,3.5-1517.8,3.5z M-1516.2-6.5
			c0.3,0,0.5,0.1,0.8,0.3c0.2,0.2,0.3,0.4,0.3,0.7c0,0.3-0.1,0.5-0.3,0.8c-0.2,0.2-0.4,0.3-0.7,0.3c-0.3,0-0.5-0.1-0.7-0.3
			c-0.2-0.2-0.3-0.4-0.3-0.7c0-0.3,0.1-0.5,0.3-0.7C-1516.7-6.3-1516.5-6.5-1516.2-6.5z"/>
		<path class="st7" d="M-1506.9,2.7c0,0.2,0,0.3,0,0.5c-0.5,0-1,0-1.4,0c-0.4,0-0.8,0-1.1,0.1c0,0,0,0-0.1-0.1c0-0.3,0-0.6,0-0.9
			c-0.2,0.1-0.6,0.5-1.4,1.1c-0.2,0-0.4,0.1-0.6,0.1c-0.5,0-0.9-0.1-1.2-0.4c-0.3-0.3-0.4-0.7-0.4-1.2c0-0.4,0-0.7,0.2-0.9
			c0.1-0.2,0.3-0.4,0.4-0.5c0.1-0.1,0.4-0.2,0.7-0.3c0.7-0.3,1.5-0.5,2.4-0.7c0-0.5-0.1-1-0.4-1.2c-0.2-0.3-0.6-0.4-1.1-0.4
			c-0.2,0-0.4,0-0.6,0.1c-0.1,0-0.2,0.1-0.3,0.1c-0.1,0.2-0.2,0.5-0.3,0.7c-0.2,0-0.3-0.1-0.5-0.1c0-0.3,0-0.6,0-0.9
			c0.3-0.2,0.7-0.4,1-0.6c0.3-0.2,0.5-0.3,0.6-0.3c0.2-0.1,0.4-0.1,0.7-0.1c0.5,0,0.9,0.1,1.2,0.2c0.3,0.1,0.6,0.3,0.7,0.5
			c0.2,0.2,0.3,0.4,0.3,0.6c0.1,0.2,0.1,0.5,0.1,0.8c0,0.1,0,0.5,0,1.1c0,0.4,0,0.7,0,1c0,0.8,0,1.3,0.1,1.5c0,0.1,0.1,0.1,0.1,0.2
			C-1507.5,2.7-1507.3,2.7-1506.9,2.7z M-1509.5,0c-0.4,0.1-0.7,0.2-1.1,0.3c-0.3,0.1-0.5,0.3-0.7,0.4c-0.1,0.2-0.2,0.4-0.2,0.6
			c0,0.3,0.1,0.5,0.2,0.7c0.2,0.2,0.3,0.2,0.6,0.2c0.2,0,0.4-0.1,0.6-0.2c0.2-0.1,0.4-0.3,0.5-0.5C-1509.5,1.1-1509.5,0.5-1509.5,0z
			"/>
		<path class="st7" d="M-1498.3,2.6c0,0.2,0,0.3,0,0.5c-0.6,0-1.1,0-1.5,0c-0.5,0-0.8,0-1.2,0.1c0,0-0.1-0.1-0.1-0.1
			c0-0.1,0-0.5,0.1-1.2c0-0.4,0-0.7,0-1.1c0-0.2,0-0.4,0-0.5c0-0.8-0.1-1.3-0.1-1.6c-0.1-0.2-0.2-0.4-0.4-0.6
			c-0.2-0.1-0.5-0.2-0.8-0.2c-0.3,0-0.6,0.1-0.8,0.2c-0.2,0.2-0.3,0.3-0.4,0.5c0,0.1,0,0.5,0,1.1c0,0.4,0,0.8,0,1.1
			c0,0.3,0,0.7,0.1,1.2c0,0.2,0,0.4,0.1,0.4c0,0,0.1,0.1,0.1,0.1c0.1,0,0.2,0.1,0.3,0.1c0.1,0,0.2,0,0.6,0c0,0.2,0,0.4,0,0.5
			c-0.5,0-1.1,0-1.8,0c-0.8,0-1.5,0-1.9,0.1c0-0.2,0-0.4,0-0.5c0.4,0,0.6,0,0.7-0.1c0.1,0,0.1-0.1,0.1-0.1c0-0.1,0.1-0.3,0.1-0.5
			c0-0.2,0-0.4,0-0.6c0-0.1,0-0.3,0-0.6c0-0.3,0-0.6,0-0.9c0-0.4,0-0.9-0.1-1.5c0-0.3,0-0.5-0.1-0.5c0,0-0.1-0.1-0.1-0.1
			c-0.1,0-0.3,0-0.8-0.1c0-0.2,0-0.4,0-0.5c0.8-0.2,1.4-0.3,1.6-0.3c0.3-0.1,0.6-0.2,0.9-0.3c0.1,0,0.1,0.1,0.2,0.1
			c0,0.4,0,0.7,0,1.1c0.4-0.3,0.8-0.7,1.2-1c0.2-0.1,0.3-0.1,0.4-0.1c0.1,0,0.2,0,0.4,0c0.5,0,0.9,0,1.1,0.1
			c0.2,0.1,0.5,0.3,0.6,0.5c0.2,0.2,0.3,0.4,0.4,0.6c0.1,0.2,0.1,0.6,0.1,1c0,0.5,0,0.9,0,1c0,0.1,0,0.1,0,0.2c0,0.2,0,0.5,0,0.7
			c0,0.8,0,1.3,0.1,1.4c0,0.2,0.1,0.3,0.1,0.4c0.1,0.1,0.2,0.1,0.4,0.1C-1498.6,2.6-1498.5,2.6-1498.3,2.6z"/>
		<path class="st7" d="M-1492.2,2.1c-0.1,0.2-0.2,0.4-0.3,0.7c-0.4,0.2-0.7,0.3-1,0.4c-0.2,0.1-0.5,0.1-0.9,0.1
			c-0.7,0-1.4-0.1-1.8-0.4c-0.5-0.3-0.8-0.7-1.1-1.2c-0.2-0.4-0.3-0.9-0.3-1.5c0-0.5,0-0.9,0.1-1.2c0.1-0.3,0.2-0.6,0.4-0.8
			c0.1-0.2,0.3-0.3,0.5-0.4c0.3-0.2,0.7-0.5,1-0.7c0.4-0.2,0.6-0.4,0.7-0.4c0.2-0.1,0.5-0.1,0.9-0.1c0.3,0,0.6,0,0.8,0.1
			c0.3,0,0.5,0.1,0.7,0.2c0,0,0,0.1,0.1,0.1c-0.1,0.4-0.1,0.7-0.2,1.1c0,0.1,0,0.4-0.1,0.9c-0.2,0-0.4,0-0.5,0
			c0-0.4-0.1-0.7-0.1-0.9c-0.1-0.2-0.2-0.3-0.5-0.4c-0.2-0.1-0.4-0.1-0.7-0.1c-0.3,0-0.6,0.1-0.8,0.2c-0.2,0.1-0.4,0.3-0.4,0.6
			c-0.1,0.3-0.1,0.7-0.1,1.1c0,0.6,0.1,1.1,0.3,1.5c0.2,0.5,0.5,0.8,0.8,1c0.3,0.2,0.7,0.3,1.2,0.3c0.2,0,0.4,0,0.6-0.1
			c0.2,0,0.4-0.1,0.5-0.2C-1492.2,2-1492.2,2.1-1492.2,2.1z"/>
		<path class="st7" d="M-1485.5,1.9c-0.1,0.2-0.2,0.4-0.3,0.7c-0.4,0.2-0.8,0.4-1.2,0.5c-0.3,0.1-0.6,0.1-1,0.1
			c-0.5,0-0.8,0-1.2-0.1c-0.3-0.1-0.6-0.2-0.9-0.4c-0.2-0.2-0.5-0.4-0.6-0.7c-0.2-0.3-0.3-0.6-0.4-0.9c-0.1-0.3-0.1-0.7-0.1-1.1
			c0-0.6,0.1-1.1,0.2-1.6c0.1-0.3,0.2-0.6,0.4-0.7c0.1-0.1,0.3-0.3,0.7-0.5c0.4-0.3,0.7-0.4,0.8-0.5c0.3-0.1,0.7-0.2,1.1-0.2
			c0.6,0,1.1,0.1,1.5,0.4c0.4,0.3,0.7,0.6,0.8,1c0.2,0.4,0.2,0.9,0.3,1.4c0,0.1,0,0.3,0,0.4c-0.1,0-0.3,0.1-0.5,0.1
			c-0.3,0.1-0.5,0.1-0.6,0.1c-0.3,0-0.8,0-1.4,0.1c-0.6,0-0.9,0-0.9,0c-0.1,0-0.1,0-0.2,0c-0.2,0-0.3,0-0.5,0c0,0.7,0.3,1.3,0.7,1.7
			c0.4,0.4,0.9,0.6,1.5,0.6c0.3,0,0.5,0,0.7-0.1c0.2-0.1,0.5-0.2,0.9-0.4C-1485.6,1.8-1485.5,1.9-1485.5,1.9z M-1487.1-0.9
			c0-0.7-0.1-1.2-0.3-1.5c-0.2-0.3-0.5-0.4-0.9-0.4c-0.4,0-0.7,0.2-0.9,0.5c-0.2,0.3-0.3,0.8-0.3,1.5c0.3,0,0.7,0.1,1.4,0.1
			C-1487.7-0.8-1487.4-0.9-1487.1-0.9z"/>
		<path class="st7" d="M-1480.8,3c0-0.2,0-0.3,0-0.5c0.5,0,0.9-0.1,1-0.2c0.1-0.1,0.1-0.1,0.1-0.3c0-0.2,0.1-1,0.1-2.2
			c0-0.7,0-1.4,0-2.1c-0.1,0-0.1,0-0.2,0c-0.3,0-0.6,0-0.9,0c0-0.1,0-0.2,0-0.3c0.6-0.3,0.9-0.5,0.9-0.5c0.1,0,0.1-0.1,0.1-0.2
			c0-0.2,0-0.5,0-0.8c0-0.3,0.1-0.5,0.1-0.7c0-0.1,0.1-0.3,0.2-0.4c0.2-0.2,0.5-0.5,1-1c0.3-0.2,0.6-0.5,0.8-0.7
			c0.1-0.1,0.3-0.2,0.5-0.3c0.2-0.1,0.4-0.1,0.6-0.1c0.2,0,0.5,0,0.7,0.1c-0.1,0.5-0.1,0.9-0.1,1.4c-0.1,0-0.2,0.1-0.3,0.1
			c-0.1-0.1-0.3-0.2-0.4-0.3c-0.1,0-0.3-0.1-0.5-0.1c-0.3,0-0.5,0.1-0.6,0.1c-0.1,0.1-0.2,0.2-0.2,0.3c-0.1,0.2-0.1,0.6-0.1,1.4
			c0,0.3,0,0.6,0,0.9c0.3,0,0.5,0,0.8,0c0.4,0,0.7,0,1,0c0,0,0.1,0,0.1,0.1c0,0.1,0,0.2-0.1,0.2c0,0.2-0.1,0.4-0.1,0.6
			c-0.2,0-0.5,0-0.7,0c-0.2,0-0.3,0-0.3,0c-0.1,0-0.3,0-0.7,0c0,0.7,0,1.5,0,2.2c0,0.5,0,1,0,1.4c0,0.4,0,0.7,0.1,0.8
			c0,0.1,0.1,0.1,0.1,0.2c0,0,0.1,0.1,0.2,0.1c0,0,0.3,0,0.9,0.1c0,0.2,0,0.3,0,0.5c-0.8,0-1.6,0-2.3,0
			C-1479.2,2.9-1479.9,2.9-1480.8,3z"/>
		<path class="st7" d="M-1475.3-0.3c0-0.8,0.1-1.4,0.4-1.9c0.3-0.5,0.7-0.9,1.2-1.1c0.5-0.3,1.2-0.4,1.9-0.4c1.1,0,1.9,0.3,2.4,0.8
			c0.5,0.6,0.8,1.4,0.8,2.4c0,0.6-0.1,1.1-0.2,1.6c-0.2,0.5-0.4,0.8-0.6,1.1c-0.3,0.3-0.6,0.5-0.9,0.6c-0.5,0.2-1.1,0.4-1.7,0.3
			c-1,0-1.8-0.3-2.4-0.9C-1475,1.7-1475.3,0.9-1475.3-0.3z M-1473.4-0.6c0,1.2,0.2,2.1,0.5,2.6c0.2,0.3,0.6,0.5,1,0.5
			c0.4,0,0.7-0.1,0.9-0.4c0.3-0.3,0.4-1,0.4-2c0-0.7-0.1-1.3-0.2-1.8c-0.1-0.5-0.3-0.8-0.5-1c-0.2-0.2-0.5-0.3-0.8-0.3
			c-0.3,0-0.5,0.1-0.7,0.2c-0.2,0.1-0.4,0.4-0.5,0.7C-1473.3-1.7-1473.4-1.2-1473.4-0.6z"/>
		<path class="st7" d="M-1463.7,2.5c0,0.2,0,0.4,0,0.5c-0.5,0-1.1,0-1.7,0c-0.7,0-1.4,0-2.2,0c0-0.2,0-0.4,0-0.5
			c0.4,0,0.6,0,0.7-0.1c0.1,0,0.1-0.1,0.1-0.1c0-0.1,0.1-0.2,0.1-0.5c0-0.2,0-0.4,0-0.6c0-0.1,0-0.3,0-0.6c0-0.3,0-0.6,0-0.9
			c0-0.4,0-0.9,0-1.5c0-0.3,0-0.5-0.1-0.5c0,0-0.1-0.1-0.1-0.1c-0.1,0-0.3-0.1-0.8-0.1c0-0.2,0-0.4,0-0.5c0.8-0.1,1.4-0.2,1.7-0.3
			c0.3-0.1,0.6-0.2,0.9-0.3c0.1,0,0.1,0.1,0.2,0.1c0,0.5,0,0.9,0,1.4c0.3-0.3,0.5-0.6,0.7-0.8c0.2-0.3,0.4-0.5,0.5-0.5
			c0.2-0.1,0.4-0.2,0.7-0.2c0.2,0,0.3,0,0.5,0.1c0,0.3,0,0.6-0.1,1c0,0.5,0,0.8,0,0.9c-0.1,0-0.2,0.1-0.3,0.1
			c-0.1-0.2-0.2-0.3-0.3-0.3c-0.2-0.1-0.4-0.1-0.6-0.1c-0.3,0-0.5,0.1-0.7,0.2c-0.2,0.2-0.3,0.3-0.4,0.5c0,0.1,0,0.5,0,1.2
			c0,0.2,0,0.5,0,0.7c0,0.3,0,0.6,0,0.9c0,0.4,0,0.6,0,0.6c0,0.1,0.1,0.1,0.1,0.2c0.1,0,0.2,0.1,0.5,0.1
			C-1464.1,2.5-1463.9,2.5-1463.7,2.5z"/>
		<path class="st7" d="M-1458.2,3.1c0-0.1,0-0.2,0-0.4c0.1,0,0.3-0.1,0.5-0.3c0.1-0.1,0.2-0.1,0.2-0.1c0,0,0,0,0-0.1
			c0-0.1,0-0.5,0.1-1.2c0-0.7,0-1.5,0.1-2.5c0-1.4,0-2.3,0-2.7c0-0.9,0-1.3-0.1-1.5c0-0.1-0.1-0.1-0.1-0.1c-0.1-0.1-0.5-0.1-1.1-0.2
			c0-0.2,0-0.4,0-0.6c0.6,0,1.2,0.1,2,0.1c0.8,0,1.6,0,2.4,0c0,0.2,0,0.4,0,0.6c-0.5,0-0.8,0.1-1,0.1c-0.1,0-0.1,0.1-0.1,0.1
			c0,0.1,0,0.3-0.1,0.8c0,0.5,0,1.1-0.1,1.9c0,0.1,0,0.7,0,2c0,0.7,0,1.3,0,1.9c0,0.6,0,1,0,1.2c0.6,0,1.1,0.1,1.3,0.1
			c0.7,0,1.3,0,1.8-0.1c0.2,0,0.3-0.1,0.3-0.1c0,0,0.1-0.1,0.1-0.3c0.1-0.3,0.2-0.7,0.3-1.2c0.2,0,0.4,0,0.6,0c0,0.1,0,0.2,0,0.2
			c-0.1,0.5-0.1,0.9-0.2,1.4c0,0.4-0.1,0.7-0.1,0.8c-0.1,0-0.3,0.1-0.4,0.1c-0.3,0-0.7,0-1.3,0c-0.1,0-0.6,0-1.6-0.1
			c-0.8,0-1.3,0-1.6-0.1C-1456.6,3-1457.3,3.1-1458.2,3.1z"/>
		<path class="st7" d="M-1443.9,2.8c0,0.2,0,0.3,0,0.5c-0.5,0-1-0.1-1.4-0.1c-0.4,0-0.8,0-1.1,0c0,0,0-0.1-0.1-0.1
			c0-0.3,0.1-0.6,0.1-0.9c-0.2,0.1-0.7,0.5-1.5,1.1c-0.2,0-0.4,0.1-0.6,0.1c-0.5,0-0.9-0.2-1.2-0.5c-0.3-0.3-0.4-0.7-0.4-1.3
			c0-0.4,0.1-0.7,0.2-0.9c0.1-0.2,0.3-0.4,0.4-0.5c0.1-0.1,0.4-0.2,0.7-0.3c0.7-0.2,1.5-0.4,2.4-0.6c0-0.5-0.1-1-0.3-1.2
			c-0.2-0.3-0.6-0.4-1.1-0.4c-0.2,0-0.4,0-0.6,0.1c-0.1,0-0.2,0.1-0.3,0.1c-0.1,0.2-0.2,0.5-0.3,0.7c-0.2,0-0.3-0.1-0.5-0.1
			c0-0.3,0-0.6,0.1-0.9c0.3-0.2,0.7-0.4,1-0.6c0.3-0.2,0.5-0.3,0.7-0.3c0.2,0,0.4-0.1,0.7-0.1c0.5,0,0.9,0.1,1.2,0.2
			c0.3,0.2,0.6,0.3,0.7,0.5c0.1,0.2,0.3,0.4,0.3,0.6c0.1,0.2,0.1,0.5,0.1,0.8c0,0.1,0,0.5-0.1,1.1c0,0.4,0,0.7,0,1
			c0,0.8,0,1.3,0,1.5c0,0.1,0.1,0.1,0.1,0.2C-1444.5,2.8-1444.2,2.8-1443.9,2.8z M-1446.3,0c-0.4,0.1-0.7,0.2-1.1,0.3
			c-0.3,0.1-0.6,0.2-0.7,0.4c-0.1,0.2-0.2,0.4-0.2,0.6c0,0.3,0.1,0.5,0.2,0.7c0.1,0.2,0.3,0.2,0.6,0.3c0.2,0,0.4-0.1,0.6-0.2
			c0.2-0.1,0.4-0.3,0.5-0.4C-1446.3,1.1-1446.3,0.5-1446.3,0z"/>
		<path class="st7" d="M-1443.1-1.9c0-0.1,0-0.2,0-0.3c0.2-0.1,0.4-0.2,0.6-0.4c0.1-0.1,0.2-0.1,0.3-0.2c0-0.3,0-0.6,0-0.9
			c0-0.3,0-0.7,0-1.2c0.4-0.1,0.7-0.2,0.9-0.3c0,0,0.3-0.1,0.9-0.4c0.1,0,0.1,0.1,0.2,0.1c0,0.2-0.1,0.5-0.1,0.7
			c0,0.3,0,0.5-0.1,0.8c0,0.4-0.1,0.8-0.1,1.2c0.1,0,0.2,0,0.2,0c0.6,0,1.1,0,1.4,0c0,0.3-0.1,0.6-0.1,0.9c-0.1,0-0.1,0-0.2,0
			c-0.2,0-0.4,0-0.7,0c-0.2,0-0.4,0-0.7,0c0,0.8,0,1.5-0.1,2.3c0,0.7,0,1.1,0,1.2c0,0.2,0.1,0.4,0.2,0.5c0.1,0.1,0.3,0.2,0.6,0.2
			c0.2,0,0.3,0,0.4,0c0.1,0,0.2,0,0.4-0.1c0,0.1,0.1,0.2,0.1,0.3c-0.1,0.1-0.2,0.2-0.3,0.2c-0.2,0.2-0.4,0.4-0.5,0.5
			c-0.2,0.1-0.3,0.1-0.5,0.1c-0.1,0-0.3,0-0.4,0c-0.5,0-0.9-0.2-1.2-0.4c-0.3-0.3-0.4-0.6-0.4-1c0-0.8,0.1-1.5,0.1-2.3
			c0-0.6,0-1.1,0-1.7c-0.1,0-0.1,0-0.2,0C-1442.6-1.9-1442.9-1.9-1443.1-1.9z"/>
		<path class="st7" d="M-1438.4,3.5c0-0.2,0-0.3,0-0.5c0.5,0,0.8-0.1,0.9-0.1c0.1,0,0.1-0.1,0.1-0.2c0.1-0.2,0.1-0.9,0.1-1.9
			c0-1.4,0-2.2,0-2.4c0-0.1,0-0.2-0.1-0.2c-0.1-0.1-0.4-0.1-0.9-0.1c0-0.2,0-0.3,0-0.5c0.7-0.1,1.2-0.1,1.6-0.2
			c0.4-0.1,0.7-0.2,1.2-0.3c0.1,0,0.1,0.1,0.2,0.1c-0.1,0.7-0.1,1.4-0.1,2c0,0.8,0,1.5-0.1,2.3c0,0.8,0,1.3,0,1.4
			c0,0.1,0.1,0.1,0.1,0.2c0.1,0.1,0.4,0.1,0.9,0.1c0,0.2,0,0.4,0,0.5c-0.6,0-1.4-0.1-2.1-0.1C-1437.3,3.5-1437.9,3.5-1438.4,3.5z
			 M-1436.3-6.4c0.3,0,0.5,0.1,0.7,0.3c0.2,0.2,0.3,0.5,0.3,0.7c0,0.3-0.1,0.5-0.3,0.7c-0.2,0.2-0.5,0.3-0.8,0.3
			c-0.3,0-0.5-0.1-0.7-0.3c-0.2-0.2-0.3-0.5-0.3-0.8c0-0.3,0.1-0.5,0.3-0.7C-1436.8-6.3-1436.6-6.4-1436.3-6.4z"/>
		<path class="st7" d="M-1425.9,3.3c0,0.2,0,0.3,0,0.5c-0.6-0.1-1.1-0.1-1.5-0.1c-0.5,0-0.8,0-1.2,0c0,0-0.1-0.1-0.1-0.1
			c0-0.1,0.1-0.5,0.1-1.2c0-0.4,0-0.7,0.1-1.1c0-0.2,0-0.4,0-0.5c0-0.8,0-1.3,0-1.6c-0.1-0.3-0.2-0.5-0.4-0.6
			c-0.2-0.2-0.4-0.2-0.8-0.3c-0.3,0-0.6,0.1-0.8,0.2c-0.2,0.1-0.4,0.3-0.4,0.4c0,0.1-0.1,0.5-0.1,1.1c0,0.4,0,0.8,0,1.1
			c0,0.3,0,0.7,0,1.2c0,0.2,0,0.4,0,0.4c0,0.1,0,0.1,0.1,0.1c0.1,0,0.2,0.1,0.3,0.1c0.1,0,0.2,0,0.6,0.1c0,0.2,0,0.4,0,0.5
			c-0.5,0-1.1-0.1-1.8-0.1c-0.8,0-1.5,0-1.9,0c0-0.2,0-0.4,0-0.5c0.4,0,0.6,0,0.7-0.1c0.1,0,0.1-0.1,0.1-0.1c0-0.1,0.1-0.2,0.1-0.5
			c0-0.2,0-0.4,0-0.6c0-0.1,0-0.3,0-0.6c0-0.3,0-0.6,0-0.9c0-0.4,0-0.9,0-1.5c0-0.3,0-0.5,0-0.5c0,0-0.1-0.1-0.1-0.1
			c-0.1,0-0.3-0.1-0.8-0.1c0-0.2,0-0.4,0-0.5c0.8-0.1,1.4-0.2,1.7-0.3c0.3-0.1,0.6-0.2,0.9-0.3c0.1,0,0.1,0.1,0.2,0.1
			c0,0.4,0,0.7,0,1.1c0.4-0.3,0.9-0.6,1.3-1c0.2-0.1,0.3-0.1,0.4-0.1c0.1,0,0.2,0,0.4,0c0.5,0,0.9,0.1,1.1,0.2
			c0.2,0.1,0.4,0.3,0.6,0.5c0.2,0.2,0.3,0.4,0.3,0.6c0.1,0.2,0.1,0.6,0.1,1c0,0.5,0,0.9,0,1c0,0.1,0,0.1,0,0.2c0,0.2,0,0.5,0,0.7
			c0,0.8,0,1.3,0,1.4c0,0.2,0.1,0.3,0.1,0.4c0.1,0.1,0.2,0.1,0.4,0.1C-1426.2,3.3-1426.1,3.3-1425.9,3.3z"/>
		<path class="st7" d="M-1425,0.6c0-0.8,0.2-1.4,0.5-1.9c0.3-0.5,0.7-0.9,1.2-1.1c0.5-0.2,1.2-0.3,1.9-0.3c1.1,0,1.9,0.3,2.4,0.9
			c0.5,0.6,0.8,1.4,0.7,2.5c0,0.6-0.1,1.1-0.3,1.6c-0.2,0.4-0.4,0.8-0.7,1.1c-0.3,0.3-0.6,0.5-0.9,0.6c-0.5,0.2-1.1,0.3-1.7,0.3
			c-1,0-1.8-0.4-2.4-1C-1424.7,2.7-1425,1.8-1425,0.6z M-1423,0.4c0,1.2,0.1,2.1,0.4,2.6c0.2,0.4,0.6,0.5,1,0.5
			c0.4,0,0.7-0.1,0.9-0.4c0.3-0.3,0.5-1,0.5-2c0-0.7,0-1.3-0.1-1.8c-0.1-0.5-0.3-0.9-0.5-1.1c-0.2-0.2-0.5-0.3-0.8-0.3
			c-0.3,0-0.5,0.1-0.7,0.2c-0.2,0.1-0.4,0.4-0.5,0.7C-1422.9-0.8-1423-0.3-1423,0.4z"/>
		<path class="st7" d="M-1407-2.5c-0.2,0-0.4,0-0.6,0c0-0.5,0-0.9,0-1.1c-0.1-0.2-0.4-0.4-0.7-0.6c-0.3-0.2-0.7-0.3-1.2-0.3
			c-0.6,0-1.1,0.1-1.5,0.4c-0.4,0.3-0.5,0.7-0.6,1.1c0,0.3,0,0.5,0.1,0.7c0.1,0.2,0.2,0.3,0.4,0.5c0.2,0.1,0.4,0.2,0.8,0.3
			c0.3,0.1,0.6,0.2,1.1,0.3c0.5,0.1,0.8,0.2,0.9,0.2c0.4,0.1,0.7,0.2,0.9,0.4c0.2,0.1,0.4,0.3,0.5,0.5c0.1,0.2,0.2,0.4,0.3,0.7
			c0.1,0.3,0.1,0.6,0.1,0.9c0,0.6-0.2,1.1-0.4,1.5c-0.2,0.3-0.5,0.6-0.8,0.9c-0.3,0.3-0.7,0.5-1,0.6c-0.6,0.2-1.2,0.3-2,0.2
			c-0.6,0-1.1-0.1-1.5-0.2c-0.4-0.1-0.9-0.3-1.4-0.6c0.2-0.5,0.3-1.3,0.3-2.4c0.2,0,0.4,0,0.6,0c0,0.3,0,0.7,0,1.2
			c0.2,0.3,0.4,0.6,0.9,0.8c0.4,0.2,0.9,0.4,1.4,0.4c0.4,0,0.8,0,1.2-0.2c0.3-0.1,0.6-0.3,0.8-0.6c0.2-0.3,0.3-0.6,0.3-0.9
			c0-0.3,0-0.5-0.1-0.7c-0.1-0.2-0.3-0.4-0.5-0.5c-0.2-0.1-0.6-0.3-1.2-0.4c-0.8-0.2-1.4-0.4-1.6-0.4c-0.4-0.1-0.7-0.3-0.9-0.6
			c-0.2-0.2-0.4-0.5-0.5-0.8c-0.1-0.3-0.2-0.7-0.1-1c0-0.5,0.1-1,0.4-1.4c0.2-0.4,0.5-0.7,0.9-1c0.4-0.2,0.8-0.4,1.2-0.5
			c0.4-0.1,0.9-0.1,1.4-0.1c0.5,0,1,0.1,1.4,0.2c0.5,0.1,0.8,0.3,1.2,0.4c0,0.1,0,0.1,0,0.2c-0.1,0.3-0.1,0.6-0.2,0.9
			C-1406.9-3.3-1407-2.9-1407-2.5z"/>
		<path class="st7" d="M-1405.2-0.5c0-0.1,0-0.2,0-0.3c0.2-0.1,0.4-0.2,0.6-0.4c0.1-0.1,0.2-0.1,0.3-0.2c0-0.3,0-0.6,0-0.9
			c0-0.3,0-0.7,0-1.2c0.5-0.1,0.7-0.2,0.9-0.3c0,0,0.3-0.1,0.9-0.4c0.1,0,0.1,0.1,0.2,0.1c0,0.2-0.1,0.5-0.1,0.7
			c0,0.3-0.1,0.5-0.1,0.8c0,0.4-0.1,0.8-0.1,1.2c0.1,0,0.2,0,0.2,0c0.6,0,1.1,0,1.4,0c-0.1,0.3-0.1,0.6-0.2,0.9c-0.1,0-0.1,0-0.2,0
			c-0.2,0-0.4,0-0.7,0c-0.2,0-0.4,0-0.7,0c0,0.8-0.1,1.5-0.1,2.3c0,0.7,0,1.1,0,1.2c0,0.2,0.1,0.4,0.2,0.5c0.1,0.1,0.3,0.2,0.6,0.2
			c0.2,0,0.3,0,0.4,0c0.1,0,0.2,0,0.4,0c0,0.1,0.1,0.2,0.1,0.3c-0.1,0.1-0.2,0.2-0.3,0.2c-0.2,0.2-0.4,0.4-0.6,0.5
			c-0.2,0.1-0.3,0.1-0.5,0.1c-0.1,0-0.3,0-0.4,0c-0.5,0-0.9-0.2-1.2-0.5c-0.3-0.3-0.4-0.6-0.4-1c0-0.8,0.1-1.5,0.1-2.3
			c0-0.6,0.1-1.1,0.1-1.7c-0.1,0-0.1,0-0.2,0C-1404.8-0.5-1405-0.5-1405.2-0.5z"/>
		<path class="st7" d="M-1400.5-0.6c0-0.2,0-0.3,0-0.5c0.4,0,0.8,0,1.2-0.1c0.4-0.1,0.9-0.2,1.6-0.4c0,0,0.1,0.1,0.1,0.1
			c-0.1,0.9-0.2,1.7-0.2,2.5c0,0.3,0,0.5,0,0.8c0,0.7,0,1.1,0,1.3c0,0.3,0.1,0.5,0.3,0.7c0.2,0.2,0.4,0.2,0.7,0.3
			c0.3,0,0.6-0.1,0.8-0.2c0.2-0.2,0.4-0.3,0.5-0.5c0.1-0.1,0.1-0.4,0.1-0.7c0-0.4,0-0.8,0.1-1.2c0-0.3,0-0.6,0-1c0-0.3,0-0.5,0-0.6
			c0,0-0.1-0.1-0.1-0.1c-0.1,0-0.3-0.1-0.8-0.1c0-0.2,0-0.3,0-0.5c0.7-0.1,1.2-0.1,1.5-0.1c0.3,0,0.7-0.1,1.3-0.3
			c0,0,0.1,0.1,0.1,0.1c0,0.4-0.1,0.8-0.1,1.3c-0.1,0.9-0.1,1.4-0.1,1.5c0,0.5-0.1,0.9-0.1,1.4c0,0.8-0.1,1.3,0,1.5
			c0,0.1,0,0.1,0.1,0.2c0.1,0.1,0.4,0.1,0.8,0.1c0,0.2,0,0.4,0,0.5c-0.5,0-0.9-0.1-1.4-0.1c-0.4,0-0.9,0-1.3,0c0,0,0,0,0-0.1
			c0-0.2,0-0.3,0.1-0.5c0-0.1,0-0.3,0-0.5c-0.2,0.1-0.3,0.3-0.5,0.4c-0.3,0.2-0.5,0.5-0.8,0.7c-0.3,0.1-0.6,0.1-1,0.1
			c-0.6,0-1.1-0.2-1.4-0.6c-0.3-0.4-0.5-0.8-0.5-1.4c0-0.1,0-0.3,0.1-0.8c0-0.2,0-0.5,0.1-0.9c0-0.5,0-1,0.1-1.4c0-0.3,0-0.4,0-0.5
			c0-0.1-0.1-0.1-0.2-0.2C-1399.8-0.5-1400.1-0.5-1400.5-0.6z"/>
		<path class="st7" d="M-1384.4,5.3c0,0.2,0,0.3,0,0.5c-0.5,0-1-0.1-1.4-0.1c-0.4,0-0.8,0-1.2-0.1c0,0,0,0-0.1-0.1
			c0-0.2,0-0.4,0.1-0.5c0-0.2,0-0.4,0-0.6c-0.3,0.2-0.7,0.5-1.1,0.8c-0.2,0.1-0.3,0.2-0.5,0.3c-0.2,0.1-0.4,0.1-0.7,0.1
			c-0.8,0-1.4-0.4-1.8-0.9c-0.5-0.6-0.7-1.4-0.6-2.3c0-0.5,0.1-1,0.3-1.4c0.1-0.3,0.3-0.6,0.4-0.7c0.1-0.1,0.4-0.3,1-0.7
			c0.5-0.3,0.9-0.5,1.1-0.6c0.2-0.1,0.5-0.1,0.9-0.1c0.2,0,0.4,0,0.5,0.1c0.1,0,0.4,0.1,0.7,0.3c0-0.3,0.1-0.5,0.1-0.8
			c0-0.3,0-0.8,0-1.3c0-0.2,0-0.4,0-0.4c0,0-0.1-0.1-0.1-0.1c-0.1,0-0.3,0-0.8-0.1c0-0.2,0-0.3,0-0.5c1,0,1.9-0.2,2.8-0.4
			c0.1,0,0.1,0.1,0.2,0.1c-0.1,1.2-0.2,1.9-0.2,2.1c-0.1,1.2-0.2,2.8-0.3,5c0,0.2,0,0.4,0,0.6c0,0.3,0,0.6,0,1c0,0.3,0,0.4,0,0.5
			c0,0.1,0.1,0.1,0.1,0.1C-1385,5.2-1384.8,5.3-1384.4,5.3z M-1386.8,0.8c-0.2-0.3-0.4-0.5-0.6-0.6c-0.3-0.2-0.6-0.3-1-0.3
			c-0.3,0-0.6,0-0.8,0.2c-0.2,0.1-0.4,0.4-0.5,0.7c-0.1,0.3-0.2,0.7-0.2,1.2c0,0.8,0.1,1.5,0.4,1.9c0.2,0.3,0.6,0.5,1,0.6
			c0.3,0,0.6-0.1,0.9-0.2c0.3-0.2,0.4-0.4,0.5-0.5c0.1-0.2,0.1-0.7,0.2-1.6C-1386.8,1.6-1386.8,1.2-1386.8,0.8z"/>
		<path class="st7" d="M-1377.6,5.2c-0.1,0.2-0.2,0.4-0.3,0.6c-0.4,0.2-0.8,0.3-1.2,0.4c-0.3,0.1-0.6,0.1-1,0.1
			c-0.5,0-0.8-0.1-1.2-0.2c-0.3-0.1-0.6-0.3-0.9-0.5c-0.2-0.2-0.4-0.4-0.6-0.7c-0.2-0.3-0.3-0.6-0.3-0.9c-0.1-0.4-0.1-0.7-0.1-1.1
			c0-0.6,0.2-1.1,0.3-1.6c0.1-0.3,0.3-0.5,0.4-0.7c0.1-0.1,0.3-0.2,0.7-0.5c0.4-0.2,0.7-0.4,0.9-0.4c0.3-0.1,0.7-0.2,1.1-0.1
			c0.6,0,1.1,0.2,1.5,0.5c0.4,0.3,0.6,0.6,0.8,1c0.1,0.4,0.2,0.9,0.1,1.5c0,0.1,0,0.2,0,0.4c-0.1,0-0.3,0.1-0.5,0.1
			c-0.3,0-0.5,0.1-0.6,0.1c-0.3,0-0.8,0-1.4,0c-0.6,0-0.9,0-0.9,0c-0.1,0-0.1,0-0.2,0c-0.2,0-0.3,0-0.5,0c0,0.7,0.2,1.3,0.6,1.7
			c0.4,0.4,0.9,0.7,1.5,0.7c0.3,0,0.5,0,0.7,0c0.2,0,0.5-0.1,0.9-0.3C-1377.7,5.1-1377.7,5.1-1377.6,5.2z M-1379.1,2.3
			c0.1-0.7,0-1.2-0.2-1.5c-0.2-0.3-0.5-0.5-0.8-0.5c-0.4,0-0.7,0.1-0.9,0.4c-0.3,0.3-0.4,0.8-0.4,1.5c0.3,0.1,0.7,0.1,1.3,0.1
			C-1379.7,2.3-1379.4,2.3-1379.1,2.3z"/>
		<path class="st7" d="M-1368.8,6.4c0,0.2,0,0.3,0,0.5c-0.6-0.1-1.1-0.1-1.5-0.2c-0.5,0-0.8,0-1.2,0c0,0-0.1-0.1-0.1-0.1
			c0-0.1,0.1-0.5,0.2-1.2c0-0.4,0.1-0.7,0.1-1.1c0-0.2,0-0.4,0-0.5c0.1-0.8,0.1-1.3,0-1.6c0-0.3-0.2-0.5-0.3-0.6
			c-0.2-0.2-0.4-0.3-0.8-0.3c-0.3,0-0.6,0-0.8,0.2c-0.2,0.1-0.4,0.3-0.4,0.4c0,0.1-0.1,0.5-0.1,1.1c0,0.4-0.1,0.8-0.1,1.1
			c0,0.3,0,0.7,0,1.2c0,0.2,0,0.4,0,0.4c0,0.1,0,0.1,0.1,0.1c0.1,0,0.2,0.1,0.3,0.1c0.1,0,0.2,0,0.6,0.1c0,0.2,0,0.4,0,0.5
			c-0.5-0.1-1.1-0.1-1.8-0.2c-0.8-0.1-1.5-0.1-1.9-0.1c0-0.2,0-0.4,0-0.5c0.4,0,0.6,0,0.7,0c0.1,0,0.1-0.1,0.2-0.1
			c0.1-0.1,0.1-0.2,0.1-0.5c0-0.2,0-0.4,0.1-0.6c0-0.1,0-0.3,0-0.6c0-0.3,0-0.6,0.1-0.9c0-0.4,0-0.9,0.1-1.5c0-0.3,0-0.5,0-0.5
			c0,0-0.1-0.1-0.1-0.1c-0.1,0-0.3-0.1-0.8-0.1c0-0.2,0-0.4,0-0.5c0.8-0.1,1.4-0.2,1.7-0.2c0.3-0.1,0.6-0.1,0.9-0.3
			c0.1,0,0.1,0.1,0.2,0.1c0,0.4-0.1,0.7-0.1,1.1c0.4-0.3,0.9-0.6,1.3-0.9c0.2,0,0.3-0.1,0.4-0.1c0.1,0,0.2,0,0.4,0
			c0.5,0,0.9,0.1,1.1,0.2c0.2,0.1,0.4,0.3,0.6,0.5c0.2,0.2,0.3,0.4,0.3,0.6c0.1,0.2,0.1,0.6,0,1c0,0.5-0.1,0.9-0.1,1
			c0,0.1,0,0.1,0,0.2c0,0.2,0,0.5,0,0.7c-0.1,0.8-0.1,1.2-0.1,1.4c0,0.2,0,0.3,0.1,0.4c0.1,0.1,0.2,0.1,0.4,0.1
			C-1369.1,6.3-1368.9,6.3-1368.8,6.4z"/>
		<path class="st7" d="M-1367.8,1.7c0-0.1,0-0.2,0-0.3c0.2-0.1,0.4-0.2,0.6-0.3c0.1-0.1,0.2-0.1,0.3-0.2c0-0.3,0-0.6,0.1-0.9
			c0-0.3,0-0.7,0-1.2c0.5-0.1,0.8-0.2,0.9-0.2c0,0,0.3-0.1,0.9-0.3c0.1,0,0.1,0.1,0.2,0.1c0,0.2-0.1,0.5-0.1,0.7
			c0,0.3-0.1,0.5-0.1,0.8c0,0.4-0.1,0.8-0.1,1.2c0.1,0,0.2,0,0.2,0c0.6,0,1.1,0.1,1.4,0c-0.1,0.3-0.1,0.6-0.2,0.9
			c-0.1,0-0.1,0-0.2,0c-0.2,0-0.4,0-0.7-0.1c-0.2,0-0.4,0-0.7,0c-0.1,0.8-0.1,1.5-0.2,2.3c-0.1,0.7-0.1,1.1-0.1,1.2
			c0,0.2,0.1,0.4,0.2,0.5c0.1,0.1,0.3,0.2,0.6,0.2c0.2,0,0.3,0,0.4,0c0.1,0,0.2,0,0.4,0c0,0.1,0.1,0.2,0.1,0.3
			c-0.1,0.1-0.2,0.2-0.3,0.2c-0.2,0.2-0.4,0.4-0.6,0.5c-0.2,0.1-0.3,0.1-0.5,0.1c-0.1,0-0.3,0-0.4,0c-0.5,0-0.9-0.2-1.2-0.5
			c-0.3-0.3-0.4-0.6-0.4-1c0.1-0.8,0.1-1.5,0.2-2.3c0-0.6,0.1-1.1,0.1-1.7c-0.1,0-0.1,0-0.2,0C-1367.4,1.7-1367.6,1.7-1367.8,1.7z"
			/>
		<path class="st7" d="M-1363,5.1c0.2,0,0.4,0,0.5,0c0,0.5,0,0.8,0,1c0.2,0.3,0.4,0.5,0.6,0.6c0.2,0.1,0.5,0.2,0.8,0.2
			c0.4,0,0.8,0,1-0.2c0.2-0.2,0.4-0.4,0.4-0.7c0-0.2,0-0.4-0.1-0.5c-0.1-0.1-0.2-0.3-0.4-0.4c-0.2-0.1-0.5-0.2-1-0.3
			c-0.5-0.1-0.9-0.3-1.1-0.4c-0.3-0.2-0.4-0.4-0.6-0.6c-0.1-0.3-0.2-0.6-0.1-0.9c0-0.6,0.3-1.1,0.8-1.5c0.5-0.4,1.2-0.5,2.1-0.5
			c0.4,0,0.7,0.1,1,0.2c0.3,0.1,0.6,0.2,0.8,0.4c0,0,0,0,0,0.1c0,0.2-0.1,0.3-0.1,0.5c0,0.2-0.1,0.5-0.2,1.2c-0.2,0-0.4,0-0.5,0
			c0-0.1,0-0.1,0-0.3c0-0.2,0-0.4,0-0.6c-0.1-0.2-0.3-0.3-0.5-0.5c-0.2-0.1-0.4-0.2-0.7-0.2c-0.4,0-0.7,0-0.9,0.2
			c-0.2,0.2-0.3,0.4-0.4,0.6c0,0.2,0,0.4,0.1,0.6c0.1,0.1,0.2,0.2,0.4,0.3c0.2,0.1,0.5,0.2,1,0.3c0.5,0.1,0.8,0.2,1,0.3
			c0.2,0.1,0.4,0.3,0.6,0.4c0.1,0.2,0.2,0.3,0.3,0.6c0.1,0.2,0.1,0.5,0.1,0.7c-0.1,0.7-0.4,1.2-0.9,1.7c-0.6,0.4-1.3,0.6-2.3,0.5
			c-0.3,0-0.6-0.1-0.9-0.2c-0.3-0.1-0.7-0.2-1.1-0.4c0,0,0-0.1-0.1-0.1c0.1-0.3,0.1-0.6,0.1-0.7C-1363,5.9-1363,5.5-1363,5.1z"/>
	</g>
</g>
<g>
	<g class="st0">
		<g>
			<linearGradient id="SVGID_7_" gradientUnits="userSpaceOnUse" x1="-1436" y1="87.5499" x2="-1417" y2="87.5499">
				<stop  offset="0" style="stop-color:#1B1464"/>
				<stop  offset="0.8544" style="stop-color:#0071BC"/>
				<stop  offset="1" style="stop-color:#1B1464"/>
			</linearGradient>
			<path class="st8" d="M-1436,95.9V73c0,0.1,0.3,0.2,0.3,0.2c0.5,0.8,3.6,1.2,6.7,1.6c5.1,0.6,12,1.3,12,4.4v22.8
				c0-3-6.7-3.7-11.8-4.4c-3.1-0.4-6.3-0.7-6.8-1.6C-1435.7,96.1-1436,96-1436,95.9z"/>
		</g>
		<g>
			<linearGradient id="SVGID_8_" gradientUnits="userSpaceOnUse" x1="-1526" y1="87.5499" x2="-1507.9656" y2="87.5499">
				<stop  offset="8.428263e-03" style="stop-color:#1B1464"/>
				<stop  offset="0.2534" style="stop-color:#0071BC"/>
				<stop  offset="1" style="stop-color:#1B1464"/>
			</linearGradient>
			<path class="st9" d="M-1508,73v22.8c0,0.1,0,0.2-0.1,0.2c-0.5,0.8-3.2,1.2-6.3,1.6c-5.1,0.6-10.6,1.3-11.6,4.4V79.2
				c1-3,6.5-3.7,11.6-4.4c3.1-0.4,6-0.7,6.5-1.6C-1507.9,73.2-1508,73.1-1508,73z"/>
		</g>
		<g>
			<linearGradient id="SVGID_9_" gradientUnits="userSpaceOnUse" x1="-1436" y1="82.8263" x2="-1411.6671" y2="82.8263">
				<stop  offset="0" style="stop-color:#0071BC"/>
				<stop  offset="1" style="stop-color:#1B1464"/>
			</linearGradient>
			<path class="st10" d="M-1436,95.9V73c0-0.2,0-0.4,0.2-0.7c0.8-1.3,2.8-1.8,5.4-1.8c2.2,0,4.9,0.3,7.4,0.6
				c2.5,0.3,5.1,0.6,7.1,0.6c2.4,0,3.8-0.4,4.2-1.7c0-0.1-0.3-0.3-0.3-0.4v22.8c0,0.1,0.4,0.3,0.3,0.4c-0.4,1.3-2,1.7-4.4,1.7
				c-2.1,0-4.5-0.3-7-0.6c-2.6-0.3-5.2-0.6-7.4-0.6c-2.6,0-4.5,0.4-5.4,1.8C-1436,95.5-1436,95.7-1436,95.9z"/>
		</g>
		<g>
			<linearGradient id="SVGID_10_" gradientUnits="userSpaceOnUse" x1="-1531.584" y1="82.8253" x2="-1507" y2="82.8253">
				<stop  offset="0" style="stop-color:#1B1464"/>
				<stop  offset="1" style="stop-color:#0071BC"/>
				<stop  offset="1" style="stop-color:#1B1464"/>
			</linearGradient>
			<path class="st11" d="M-1531,92.6V69.8c0,0.1-0.6,0.3-0.6,0.4c0.4,1.3,1.8,1.7,4.2,1.7c2.1,0,4.5-0.3,7-0.6
				c2.6-0.3,5.1-0.6,7.4-0.6c2.6,0,4.8,0.4,5.6,1.8c0.1,0.2,0.4,0.5,0.4,0.7v22.8c0-0.2-0.3-0.4-0.4-0.7c-0.8-1.3-3-1.8-5.5-1.8
				c-2.2,0-4.9,0.3-7.5,0.6c-2.5,0.3-5.1,0.6-7.2,0.6c-2.4,0-3.5-0.4-3.9-1.7C-1531.6,92.9-1531,92.7-1531,92.6z"/>
		</g>
		<g>
			<linearGradient id="SVGID_11_" gradientUnits="userSpaceOnUse" x1="-1532.8986" y1="92.4118" x2="-1410.6113" y2="92.4118">
				<stop  offset="0" style="stop-color:#0071BC"/>
				<stop  offset="1" style="stop-color:#0071BC"/>
			</linearGradient>
			<path class="st12" d="M-1476.8,82.6c1.8,0,3.5,0,5.1,0.1c1.6,0,3.3-0.1,5.1-0.1c20.5,0,50.5,3.2,55.4,8.4
				c0.6,0.7,0.8,1.4,0.6,2.1c-0.5,1.6-2.4,2.1-5.1,2.1c-2.1,0-4.7-0.3-7.3-0.6c-2.6-0.3-5.2-0.6-7.4-0.6c-2.3,0-4.1,0.4-4.8,1.5
				c-0.2,0.3-0.2,0.5-0.1,0.7c0.5,0.8,3.4,1.2,6.5,1.6c5.1,0.6,10.8,1.3,11.8,4.4l-0.6,0.1c-0.8-2.7-6.6-3.4-11.3-4
				c-3.6-0.4-6.4-0.8-7-1.9c-0.2-0.3-0.2-0.7,0.1-1.2c0.8-1.3,2.9-1.8,5.4-1.8c2.2,0,4.9,0.3,7.5,0.6c2.5,0.3,5.1,0.6,7.1,0.6
				c2.4,0,4.2-0.4,4.6-1.7c0.2-0.5,0-1.1-0.5-1.6c-2.2-2.4-10.9-4.7-23.9-6.3c-9.9-1.2-21.2-1.9-30.8-1.9c-1.8,0-3.6,0-5.3,0.1
				c-1.7-0.1-3.4-0.1-5.3-0.1c-9.6,0-21,0.7-30.8,1.9c-13,1.6-21.7,3.9-23.9,6.3c-0.5,0.5-0.7,1.1-0.5,1.6c0.4,1.3,2.2,1.7,4.6,1.7
				c2.1,0,4.6-0.3,7.1-0.6c2.6-0.3,5.2-0.6,7.5-0.6c2.6,0,4.6,0.4,5.4,1.8c0.3,0.4,0.3,0.8,0.1,1.2c-0.6,1.1-3.4,1.4-7,1.9
				c-4.7,0.6-10.4,1.3-11.3,4l-0.6-0.1c0.9-3,6.7-3.7,11.8-4.4c3.1-0.4,6-0.7,6.5-1.6c0.1-0.2,0.1-0.4-0.1-0.7
				c-0.7-1.1-2.5-1.5-4.8-1.5c-2.2,0-4.8,0.3-7.4,0.6c-2.6,0.3-5.2,0.6-7.3,0.6c-2.7,0-4.6-0.5-5.1-2.1c-0.2-0.7,0-1.4,0.6-2.1
				C-1527.4,85.9-1497.3,82.6-1476.8,82.6z"/>
		</g>
		
			<radialGradient id="SVGID_12_" cx="-1368.9716" cy="76.1974" r="74.931" gradientTransform="matrix(0.5783 0 0 1 -679.9224 0)" gradientUnits="userSpaceOnUse">
			<stop  offset="0" style="stop-color:#0071BC"/>
			<stop  offset="1" style="stop-color:#1B1464"/>
		</radialGradient>
		<path class="st13" d="M-1411.5,68.2c-4.8-5.2-34.8-8.4-55.2-8.4c-1.8,0-3.5,0-5,0.1c-1.5,0-3.3-0.1-5.2-0.1
			c-20.4,0-50,3.2-54.9,8.4c-0.5,0.5-0.2,1-0.2,1.5v22.8c0-0.5-0.3-1,0.2-1.5c4.8-5.2,34.6-8.4,55.1-8.4c1.8,0,3.6,0,5.1,0.1
			c1.5,0,3.2-0.1,5-0.1c20.5,0,50.3,3.2,55.2,8.4c0.5,0.5,0.5,1,0.5,1.5V69.8C-1411,69.2-1411,68.7-1411.5,68.2z"/>
	</g>
</g>
<g>
	<g>
		<path class="st7" d="M-1491.1,75.6c0.5-0.1,0.8-0.1,0.9-0.1c0,0,0.1-0.1,0.1-0.1c0,0,0.1-0.1,0.1-0.3c0-0.2,0-0.6,0-1.3
			c0-0.4,0-0.9-0.1-1.5c-0.1-0.7-0.1-1.5-0.2-2.2c-0.1-0.7-0.1-1.3-0.2-2c0-0.3-0.1-0.5-0.1-0.6c0-0.1-0.1-0.2-0.1-0.2
			c0,0-0.1-0.1-0.2-0.1c-0.1,0-0.4,0-0.9,0c0-0.2,0-0.4,0-0.6c0.6,0,1,0,1.3-0.1c0.3,0,0.7-0.1,1-0.1c0.2,0,0.4,0,0.7-0.1
			c1.1,1.2,2.3,2.5,3.8,4c1,1.1,1.9,2,2.6,2.6c0-0.5,0-1.1-0.1-1.6c-0.1-2.4-0.2-3.9-0.3-4.3c0-0.2-0.1-0.3-0.1-0.3
			c-0.1-0.1-0.5-0.1-1.1-0.1c0-0.2,0-0.4,0-0.6c0.6,0,1.1,0,1.6,0c0.5,0,1.1-0.1,1.8-0.1c0,0.2,0,0.4,0,0.6c-0.6,0-0.9,0.1-1,0.2
			c0,0-0.1,0.1-0.1,0.1c-0.1,0.2-0.1,0.8-0.1,1.6c0,0.8,0,1.4,0,1.8c0.1,3,0.2,4.9,0.3,5.5c0,0-0.1,0-0.1,0.1
			c-0.4,0-0.8-0.1-1.2-0.1c-1.5-1.6-3.8-3.9-6.8-7c0.1,1.1,0.2,2.3,0.2,3.4c0,0.7,0.1,1.4,0.2,2.2c0.1,0.5,0.1,0.8,0.1,1
			c0,0.1,0.1,0.1,0.1,0.1c0,0,0.1,0,0.2,0.1c0.3,0,0.5,0,0.7,0c0,0,0.1,0,0.1,0c0,0.2,0,0.4,0,0.6c-0.9,0-1.4,0.1-1.5,0.1
			c-0.4,0-1,0.1-1.8,0.2C-1491.1,76-1491.1,75.8-1491.1,75.6z"/>
		<path class="st7" d="M-1479.6,75.6c0-0.2,0-0.4,0-0.6c0.4,0,0.6-0.1,0.7-0.1c0.1,0,0.1-0.1,0.2-0.1c0,0,0.1-0.1,0.1-0.2
			c0-0.1,0.2-0.4,0.4-1.1c0.1-0.3,0.3-0.8,0.7-1.7c0.6-1.5,1.2-3,1.7-4.4c0.2-0.5,0.4-1,0.6-1.6c0.3,0,0.7,0,1,0
			c1.1,2.4,2.1,4.7,3.2,7.1c0.1,0.3,0.3,0.6,0.4,0.9c0.1,0.2,0.2,0.4,0.3,0.6c0,0.1,0.1,0.1,0.1,0.2c0,0,0.1,0.1,0.1,0.1
			c0.1,0,0.2,0,0.4,0.1c0.1,0,0.2,0,0.3,0c0,0.2,0,0.4,0,0.6c-0.6,0-1.3,0-1.9-0.1c-0.8,0-1.6,0-2.4,0.1c0-0.2,0-0.4,0-0.6
			c0.6,0,0.9-0.1,0.9-0.1c0.1,0,0.1-0.1,0.1-0.2c0-0.1-0.1-0.3-0.2-0.6c-0.2-0.5-0.4-1-0.6-1.5c-1.2,0-2.4,0-3.6,0
			c-0.1,0.3-0.2,0.5-0.3,0.8c-0.2,0.6-0.3,1-0.3,1.2c0,0.1,0,0.2,0.1,0.2c0.1,0.1,0.4,0.1,1,0.1c0,0.2,0,0.4,0,0.6
			c-0.5,0-1.1,0-1.6,0C-1478.6,75.5-1479.1,75.5-1479.6,75.6z M-1476.7,71.8c0.4,0,0.9,0,1.5,0c0.5,0,1,0,1.4,0
			c-0.5-1.2-1-2.3-1.5-3.5C-1475.7,69.4-1476.2,70.6-1476.7,71.8z"/>
		<path class="st7" d="M-1468.1,75.5c0-0.1,0-0.2,0-0.4c0.1,0,0.3-0.1,0.5-0.3c0.1-0.1,0.2-0.1,0.2-0.1c0,0,0,0,0-0.1
			c0-0.1,0.1-0.5,0.1-1.2c0-0.7,0.1-1.5,0.1-2.5c0-1.4,0-2.3,0-2.7c0-0.9,0-1.3-0.1-1.5c0-0.1-0.1-0.1-0.1-0.1
			c-0.1-0.1-0.5-0.1-1.1-0.2c0-0.2,0-0.4,0-0.6c0.6,0,1.3,0.1,2.1,0.1c0.9,0,1.7,0,2.5,0c0,0.2,0,0.4,0,0.6c-0.5,0-0.9,0-1,0.1
			c-0.1,0-0.1,0.1-0.1,0.1c0,0.1-0.1,0.3-0.1,0.8c0,0.5-0.1,1.1-0.1,1.9c0,0.1,0,0.7,0,2c0,0.7,0,1.3,0,1.9c0,0.6,0,1,0,1.2
			c0.6,0,1.1,0.1,1.3,0.1c0.7,0,1.3,0,1.8-0.1c0.2,0,0.3,0,0.3-0.1c0,0,0.1-0.1,0.1-0.2c0.1-0.3,0.2-0.7,0.3-1.2c0.2,0,0.4,0,0.6,0
			c0,0.1,0,0.2,0,0.2c-0.1,0.5-0.2,0.9-0.2,1.4c-0.1,0.4-0.1,0.7-0.1,0.8c-0.1,0-0.3,0-0.4,0.1c-0.3,0-0.7,0-1.3,0
			c-0.1,0-0.6,0-1.6-0.1c-0.8,0-1.3-0.1-1.6-0.1C-1466.5,75.4-1467.2,75.4-1468.1,75.5z"/>
		<path class="st7" d="M-1452.9,69.1c-0.2,0-0.4,0-0.6,0c0-0.5,0-0.9,0-1.1c-0.1-0.2-0.4-0.4-0.7-0.6c-0.3-0.2-0.7-0.3-1.2-0.3
			c-0.6,0-1.1,0.1-1.5,0.4c-0.4,0.3-0.6,0.6-0.6,1.1c0,0.3,0,0.5,0.1,0.7c0.1,0.2,0.2,0.3,0.4,0.5c0.2,0.1,0.4,0.2,0.8,0.3
			c0.3,0.1,0.6,0.2,1.1,0.3c0.5,0.1,0.8,0.2,0.9,0.2c0.4,0.1,0.7,0.3,0.9,0.4c0.2,0.2,0.4,0.3,0.5,0.5c0.1,0.2,0.2,0.4,0.3,0.7
			c0.1,0.3,0.1,0.6,0.1,0.9c0,0.6-0.2,1.1-0.5,1.5c-0.2,0.3-0.5,0.6-0.8,0.9c-0.3,0.3-0.7,0.4-1,0.5c-0.6,0.2-1.2,0.2-2,0.2
			c-0.6,0-1.1-0.1-1.5-0.2c-0.4-0.1-0.9-0.3-1.4-0.6c0.2-0.5,0.3-1.3,0.3-2.4c0.2,0,0.4,0,0.6,0c0,0.3,0,0.7,0,1.2
			c0.2,0.3,0.4,0.6,0.9,0.8c0.4,0.2,0.9,0.4,1.4,0.4c0.4,0,0.8,0,1.2-0.2c0.4-0.1,0.6-0.3,0.8-0.6c0.2-0.3,0.3-0.6,0.3-0.9
			c0-0.3,0-0.5-0.1-0.7c-0.1-0.2-0.3-0.4-0.5-0.5c-0.2-0.1-0.6-0.3-1.2-0.5c-0.8-0.2-1.4-0.4-1.6-0.5c-0.4-0.1-0.7-0.3-0.9-0.6
			c-0.2-0.2-0.4-0.5-0.5-0.8c-0.1-0.3-0.1-0.7-0.1-1c0-0.5,0.2-1,0.4-1.4c0.2-0.4,0.6-0.7,0.9-1c0.4-0.2,0.8-0.4,1.3-0.4
			c0.5-0.1,0.9-0.1,1.4-0.1c0.5,0,1,0.1,1.5,0.2c0.5,0.1,0.9,0.3,1.2,0.5c0,0.1,0,0.1,0,0.2c-0.1,0.3-0.2,0.6-0.2,0.9
			C-1452.8,68.3-1452.8,68.6-1452.9,69.1z"/>
	</g>
</g>
<path class="st14" d="M-1391.4-173.6c-9.6-21.1-29.8-21.1-39.5,0c-4.1,9,19.7,34.2,19.7,34.2S-1387.3-164.7-1391.4-173.6z
	 M-1411.2-163c-3.6,0-6.4-3.1-6.4-6.9c0-3.8,2.9-6.9,6.4-6.9s6.4,3.1,6.4,6.9C-1404.7-166.1-1407.6-163-1411.2-163z"/>
<g>
	<circle class="st15" cx="-1907.6" cy="19" r="80"/>
	<g>
		<g>
			<path class="st7" d="M-1946.8,49.3c-0.7-1.2,1.4-4.8,2.8-4.8c1.4,0,3.3,3.5,2.8,4.8C-1941.8,50.6-1946.1,50.5-1946.8,49.3z"/>
			<rect x="-1945.3" y="17.2" class="st7" width="2.3" height="25.6"/>
			<path class="st16" d="M-1943.6,45.4h-1.1c-0.5,0-0.9-0.4-0.9-0.9v-1.1c0-0.5,0.4-0.9,0.9-0.9h1.1c0.5,0,0.9,0.4,0.9,0.9v1.1
				C-1942.7,45-1943.1,45.4-1943.6,45.4z"/>
		</g>
		<path class="st7" d="M-1885,45.6c-8.1,5.3-38.5,5.9-45.7,0c-7.2-5.9,0-30.1,0-30.1h45.7C-1885,15.5-1876.9,40.3-1885,45.6z"/>
		<path class="st17" d="M-1866.1,14l-39.1,22c-1.3,0.8-3.5,0.8-4.8,0l-39.1-22c-1.6-0.9-1.9-2.4-0.6-3.4l39.1-27.7
			c1.6-1.2,4.3-1.2,6,0l39.1,27.7C-1864.2,11.6-1864.4,13.1-1866.1,14z"/>
	</g>
	<g>
		<g>
			<path class="st7" d="M-1966.4-10.8c2.6,1.2,5.3,2.4,7.9,3.7c-0.3,0.7-0.7,1.5-1,2.2c-3.7-1.5-7.4-3.1-11.1-4.6
				c0.5-1.3,1.1-2.5,1.7-3.8c2.6,0,5.2,0.2,7.8,0.5c-2.1-1.2-4.2-2.3-6.3-3.5c0.4-0.8,0.9-1.7,1.4-2.5c3.4,2.1,6.9,4.1,10.3,6.2
				c-0.5,0.8-0.9,1.5-1.3,2.3C-1960.1-10.5-1963.2-10.7-1966.4-10.8z"/>
			<path class="st7" d="M-1949.8-20.7c-0.5,0.6-1.1,1.3-1.6,1.9c-0.7-0.3-1.3-0.7-2-1c-0.7,0.8-1.3,1.7-1.9,2.6
				c0.5,0.5,1,1.1,1.5,1.6c-0.4,0.6-0.9,1.3-1.3,2c-2.9-2.9-5.7-5.9-8.4-9.1c0.9-1.2,1.7-2.4,2.7-3.6
				C-1957-24.6-1953.3-22.8-1949.8-20.7z M-1956.4-18.5c0.5-0.7,1-1.4,1.5-2.1c-1.9-0.9-3.7-1.8-5.6-2.6
				C-1959.1-21.6-1957.8-20-1956.4-18.5z"/>
			<path class="st7" d="M-1958.2-29.3c2-2.3,4.2-4.4,6.5-6.4c0.4,0.4,0.7,0.9,1.1,1.3c-0.8,0.6-1.5,1.3-2.2,2c2.3,2.5,4.7,5,7,7.6
				c-0.6,0.6-1.2,1.1-1.7,1.7c-2.4-2.4-4.9-4.8-7.3-7.3c-0.7,0.7-1.4,1.5-2.1,2.2C-1957.4-28.5-1957.8-28.9-1958.2-29.3z"/>
			<path class="st7" d="M-1950.5-36.7c0.8-0.6,1.5-1.2,2.3-1.8c2.4,3.2,4.8,6.4,7.2,9.7c-0.6,0.5-1.3,1-1.9,1.5
				C-1945.5-30.4-1948-33.6-1950.5-36.7z"/>
			<path class="st7" d="M-1944.8-37.3c-0.6-0.8-0.7-1.6-0.4-2.5c0.3-0.8,1.1-1.7,2.3-2.4c1.2-0.7,2.3-1,3.2-0.9
				c0.9,0.1,1.6,0.6,2,1.5c1,1.8,1.9,3.7,2.9,5.5c0.4,0.9,0.5,1.7,0.2,2.4c-0.3,0.8-0.9,1.4-1.9,2c-1,0.6-1.9,0.9-2.7,0.8
				c-0.8-0.1-1.5-0.5-2.1-1.3C-1942.5-33.9-1943.6-35.6-1944.8-37.3z M-1939.1-33.5c0.2,0.4,0.5,0.6,0.8,0.6c0.3,0,0.6-0.1,0.9-0.2
				c0.3-0.2,0.5-0.4,0.7-0.7c0.1-0.3,0.1-0.6-0.2-1c-1.1-1.9-2.2-3.8-3.2-5.6c-0.2-0.4-0.5-0.6-0.8-0.6c-0.3,0-0.7,0.1-1,0.3
				c-0.4,0.2-0.6,0.5-0.8,0.8c-0.1,0.3-0.1,0.6,0.2,1C-1941.4-37.1-1940.3-35.3-1939.1-33.5z"/>
			<path class="st7" d="M-1933.5-43.1c1.2,2.7,2.3,5.3,3.5,8c-0.6,0.3-1.3,0.6-1.9,0.9c-1.7-3.6-3.5-7.2-5.2-10.8
				c1.1-0.5,2.2-1,3.2-1.4c1.8,1.8,3.6,3.7,5.2,5.7c-0.8-2.2-1.7-4.5-2.5-6.7c0.8-0.3,1.6-0.6,2.4-0.8c1.3,3.8,2.5,7.6,3.8,11.4
				c-0.8,0.2-1.5,0.5-2.3,0.8C-1929.3-38.6-1931.3-40.9-1933.5-43.1z"/>
			<path class="st7" d="M-1915.9-39.1c-0.8,0.1-1.5,0.2-2.3,0.4c-0.3-0.7-0.5-1.4-0.8-2.1c-1,0.2-1.9,0.4-2.9,0.6
				c0,0.7,0.1,1.5,0.2,2.2c-0.7,0.2-1.4,0.4-2.1,0.6c-0.4-4.1-0.7-8.1-0.8-12.3c1.3-0.3,2.7-0.6,4-0.9
				C-1918.9-46.8-1917.3-43-1915.9-39.1z M-1922-41.8c0.8-0.2,1.5-0.4,2.3-0.5c-0.8-1.9-1.7-3.8-2.5-5.7
				C-1922.2-45.9-1922.2-43.8-1922-41.8z"/>
			<path class="st7" d="M-1916.2-51.2c0.9-0.1,1.9-0.2,2.8-0.3c0.3,3.4,0.6,6.8,0.9,10.2c1.3-0.1,2.6-0.2,3.9-0.2c0,0.6,0,1.1,0,1.7
				c-2,0-4.1,0.2-6.1,0.4C-1915.2-43.3-1915.7-47.2-1916.2-51.2z"/>
			<path class="st7" d="M-1896.4-38.7c-0.8-0.1-1.5-0.3-2.3-0.4c0-0.7,0-1.5-0.1-2.2c-1-0.1-2-0.3-2.9-0.3c-0.2,0.7-0.4,1.4-0.6,2.1
				c-0.7-0.1-1.4-0.1-2.1-0.1c1-4,2.1-7.9,3.5-11.8c1.4,0.1,2.7,0.3,4.1,0.5C-1896.6-46.9-1896.4-42.8-1896.4-38.7z M-1901.2-43.3
				c0.8,0.1,1.6,0.2,2.4,0.3c-0.1-2.1-0.3-4.1-0.5-6.2C-1900-47.2-1900.6-45.2-1901.2-43.3z"/>
			<path class="st7" d="M-1892.5-50.2c0.9,0.2,1.8,0.4,2.7,0.6c-0.9,3.3-1.8,6.6-2.6,10c1.3,0.3,2.5,0.7,3.8,1.1
				c-0.2,0.5-0.4,1.1-0.5,1.6c-1.9-0.6-3.9-1.2-5.9-1.6C-1894.2-42.4-1893.4-46.3-1892.5-50.2z"/>
			<path class="st7" d="M-1883.9-47.8c0.9,0.3,1.8,0.6,2.6,1c-1.3,3.2-2.6,6.4-3.9,9.5c1.2,0.5,2.4,1,3.6,1.6
				c-0.3,0.5-0.5,1-0.8,1.5c-1.9-0.9-3.8-1.7-5.7-2.4C-1886.6-40.2-1885.3-44-1883.9-47.8z"/>
			<path class="st7" d="M-1875.6-44.2c0.8,0.4,1.7,0.9,2.5,1.3c-2,3.5-4,7-6,10.4c-0.7-0.4-1.4-0.8-2.1-1.1
				C-1879.3-37.1-1877.5-40.6-1875.6-44.2z"/>
			<path class="st7" d="M-1871.2-26.9c-0.6-0.5-1.3-1-1.9-1.5c0.3-0.7,0.7-1.3,1-2c-0.8-0.6-1.6-1.2-2.5-1.7c-0.5,0.5-1,1.1-1.6,1.6
				c-0.6-0.4-1.2-0.8-1.8-1.2c2.8-3,5.7-5.9,8.7-8.7c1.2,0.8,2.3,1.6,3.4,2.4C-1867.5-34.3-1869.3-30.6-1871.2-26.9z M-1873.4-33.4
				c0.7,0.5,1.3,0.9,2,1.4c0.9-1.9,1.7-3.8,2.5-5.7C-1870.4-36.2-1871.9-34.8-1873.4-33.4z"/>
			<path class="st7" d="M-1862.6-31c-2,2.1-4,4.2-6,6.4c-0.5-0.5-1.1-1-1.6-1.5c2.6-3,5.3-6.1,7.9-9.1c0.9,0.8,1.8,1.6,2.7,2.5
				c-0.9,2.4-2,4.8-3.1,7.1c1.7-1.7,3.5-3.3,5.2-5c0.6,0.6,1.2,1.3,1.8,2c-3,2.6-6,5.3-9,7.9c-0.6-0.6-1.1-1.3-1.7-1.9
				C-1865-25.2-1863.8-28.1-1862.6-31z"/>
			<path class="st7" d="M-1855.4-15.4c-0.5,0.3-0.9,0.6-1.4,0.8c-0.8,0.5-1.6,0.6-2.4,0.3c-0.8-0.3-1.5-0.9-2.2-1.9
				c-0.7-1-1.1-1.9-1.1-2.7c0-0.8,0.4-1.6,1.1-2.2c1.6-1.3,3.2-2.6,4.8-4c0.8-0.6,1.6-0.8,2.4-0.5c0.9,0.3,1.8,1,2.6,2.3
				c0.9,1.2,1.3,2.4,1.3,3.3c0,0.9-0.5,1.7-1.3,2.2c-0.3,0.2-0.7,0.4-1,0.6c-0.5-0.8-1-1.6-1.5-2.3c0.4-0.2,0.7-0.5,1.1-0.7
				c0.4-0.2,0.5-0.5,0.5-0.9c0-0.3-0.2-0.7-0.4-1.1c-0.3-0.4-0.6-0.6-0.9-0.8c-0.3-0.1-0.6,0-1,0.2c-1.7,1.3-3.5,2.6-5.2,3.9
				c-0.3,0.3-0.5,0.5-0.5,0.8c0,0.3,0.1,0.6,0.4,1c0.2,0.3,0.5,0.6,0.8,0.7c0.3,0.1,0.6,0,1-0.2c0.5-0.3,0.9-0.6,1.4-1
				C-1856.3-16.9-1855.9-16.1-1855.4-15.4z"/>
			<path class="st7" d="M-1850.9-12.3c0.6,1.2,1.2,2.5,1.8,3.7c-0.5,0.2-1,0.5-1.6,0.7c-0.5-1.2-1.1-2.5-1.7-3.6
				c-1,0.5-2.1,1.1-3.1,1.6c0.7,1.4,1.4,2.9,2,4.4c-0.5,0.2-1.1,0.4-1.6,0.7c-1-2.3-2-4.5-3.2-6.5c3.5-2,6.9-4,10.4-6
				c1.4,2.5,2.7,5.2,3.9,7.9c-0.5,0.2-1.1,0.4-1.6,0.7c-0.7-1.7-1.5-3.4-2.3-5C-1848.9-13.3-1849.9-12.8-1850.9-12.3z"/>
		</g>
	</g>
	<g>
		<g>
			<path class="st7" d="M-1967.3,44.9c0.5,1.1,1.1,2.3,1.7,3.4c-0.5,0.3-1,0.5-1.5,0.8c-0.6-1.1-1.2-2.3-1.7-3.4
				c-1.5,0.7-3,1.4-4.5,2.1c-0.5-1-0.9-2-1.3-3c3.7-1.5,7.4-3.1,11.1-4.6c0.9,2.2,1.9,4.4,3.1,6.4c-0.5,0.3-1,0.6-1.5,0.8
				c-0.7-1.3-1.4-2.6-2-4C-1965.1,43.9-1966.2,44.4-1967.3,44.9z"/>
			<path class="st7" d="M-1962.5,48.9c0.8-0.5,1.7-0.6,2.5-0.2c0.8,0.3,1.5,1,2.2,2.1c0.7,1,1,2,1,2.8c0,0.8-0.4,1.6-1.2,2.2
				c-1.7,1.3-3.3,2.5-5,3.8c-0.8,0.6-1.6,0.7-2.5,0.4c-0.9-0.3-1.8-1.1-2.6-2.4c-0.8-1.3-1.2-2.4-1.2-3.4c0-1,0.5-1.7,1.3-2.2
				C-1966.1,51-1964.3,50-1962.5,48.9z M-1966.5,54.7c-0.4,0.2-0.6,0.5-0.5,0.9c0,0.3,0.1,0.7,0.4,1.1c0.3,0.4,0.5,0.7,0.8,0.8
				c0.3,0.1,0.6,0.1,1-0.2c1.8-1.2,3.5-2.5,5.3-3.7c0.4-0.3,0.5-0.5,0.5-0.8c0-0.3-0.1-0.6-0.3-1c-0.2-0.3-0.5-0.6-0.8-0.7
				c-0.3-0.1-0.6-0.1-1,0.2C-1962.8,52.4-1964.6,53.5-1966.5,54.7z"/>
			<path class="st7" d="M-1960,67.5c0-0.1,0.1-0.2,0.1-0.2c0-0.1,0.1-0.2,0.1-0.2c0.1-0.1,0.1-0.2,0.3-0.3c0.1-0.1,0.3-0.3,0.4-0.4
				c0.5-0.4,0.9-0.9,1.4-1.3c0.4-0.4,0.6-0.8,0.6-1.1c0-0.4-0.3-0.8-0.7-1.3c-0.2-0.2-0.4-0.5-0.6-0.7c-1.2,1.1-2.5,2.2-3.7,3.2
				c-0.6-0.7-1.3-1.5-1.9-2.3c3.1-2.5,6.2-5,9.4-7.6c0.8,1,1.6,1.9,2.4,2.9c0.9,1,1.3,1.8,1.4,2.5c0.1,0.7-0.2,1.4-0.8,2.1
				c-0.2,0.2-0.4,0.5-0.7,0.7c-0.9,0.9-1.8,1.1-2.9,0.5c0.3,0.6,0.4,1.2,0.3,1.7c-0.1,0.5-0.4,1-0.8,1.4c-0.4,0.4-0.9,0.9-1.3,1.3
				c-0.2,0.2-0.4,0.4-0.5,0.6c-0.1,0.2-0.2,0.4-0.3,0.7C-1958.7,68.9-1959.4,68.2-1960,67.5z M-1954.4,58.3
				c-0.9,0.8-1.9,1.6-2.8,2.4c0.2,0.3,0.5,0.5,0.7,0.8c0.3,0.4,0.7,0.6,1,0.7c0.3,0.1,0.7,0,1-0.4c0.3-0.3,0.6-0.5,0.9-0.8
				c0.3-0.3,0.5-0.6,0.5-0.9c0-0.3-0.1-0.6-0.4-0.9C-1953.9,58.9-1954.2,58.6-1954.4,58.3z"/>
			<path class="st7" d="M-1946.1,64.1c0.6,0.5,1.2,1,1.9,1.5c-2.1,2.7-4.2,5.5-6.2,8.2c1.2,0.9,2.5,1.8,3.7,2.6
				c-0.3,0.5-0.6,1-1,1.4c-2.1-1.4-4.1-2.9-6.1-4.5C-1951.2,70.3-1948.7,67.2-1946.1,64.1z"/>
			<path class="st7" d="M-1938.7,82.9c-0.9-0.4-1.7-0.8-2.5-1.3c0.2-0.7,0.4-1.4,0.6-2.2c-1-0.5-2-1.1-2.9-1.6
				c-0.5,0.5-1,1.1-1.5,1.6c-0.7-0.4-1.5-0.9-2.2-1.4c3-2.8,5.9-5.8,8.6-8.8c1,0.6,2,1.1,3,1.7
				C-1936.8,74.9-1937.8,78.9-1938.7,82.9z M-1942.4,76.7c0.7,0.4,1.5,0.8,2.2,1.3c0.6-2,1.2-4,1.9-5.9
				C-1939.7,73.6-1941,75.1-1942.4,76.7z"/>
			<path class="st7" d="M-1933.1,72.2c2.2,1,4.4,1.9,6.7,2.6c-0.2,0.5-0.4,1.1-0.5,1.6c-0.8-0.3-1.6-0.5-2.4-0.8
				c-1.2,3.2-2.4,6.4-3.6,9.6c-0.9-0.3-1.7-0.7-2.6-1c1.3-3.2,2.7-6.3,4-9.5c-0.8-0.3-1.5-0.7-2.3-1
				C-1933.6,73.3-1933.4,72.8-1933.1,72.2z"/>
			<path class="st7" d="M-1925.5,75.2c0.7,0.2,1.5,0.4,2.2,0.6c-1.1,3.9-2.1,7.7-3.2,11.6c-0.9-0.2-1.8-0.5-2.7-0.8
				C-1927.9,82.8-1926.7,79-1925.5,75.2z"/>
			<path class="st7" d="M-1920.3,79.9c-0.6,2.8-1.2,5.7-1.8,8.5c-0.8-0.2-1.6-0.3-2.4-0.5c0.9-3.9,1.9-7.8,2.8-11.7
				c0.9,0.2,1.9,0.4,2.8,0.6c0.3,2.5,0.7,5,1.3,7.5c0.4-2.4,0.7-4.7,1.1-7.1c0.7,0.1,1.4,0.2,2,0.3c-0.5,4-0.9,7.9-1.4,11.9
				c-0.9-0.1-1.9-0.2-2.8-0.4C-1919.3,86-1919.9,82.9-1920.3,79.9z"/>
			<path class="st7" d="M-1913.2,80.5c0.1-1,0.5-1.7,1.1-2.2c0.6-0.5,1.5-0.7,2.7-0.6c1.1,0,2,0.3,2.6,0.8c0.6,0.5,0.9,1.3,1,2.2
				c0,2.1,0.1,4.2,0.1,6.2c0,1-0.3,1.7-1,2.2c-0.7,0.5-1.8,0.8-3.1,0.7c-1.4,0-2.4-0.4-3.1-1c-0.7-0.6-0.9-1.4-0.9-2.3
				C-1913.6,84.6-1913.4,82.6-1913.2,80.5z M-1911.2,87c0,0.4,0.1,0.7,0.3,0.9c0.2,0.2,0.6,0.3,1,0.3c0.4,0,0.8-0.1,1-0.2
				c0.3-0.2,0.4-0.5,0.4-0.9c0-2.2,0.1-4.3,0.1-6.5c0-0.4-0.1-0.7-0.3-0.9c-0.2-0.2-0.5-0.3-0.9-0.3c-0.4,0-0.7,0.1-0.9,0.2
				c-0.2,0.2-0.4,0.5-0.4,0.9C-1910.9,82.7-1911,84.9-1911.2,87z"/>
			<path class="st7" d="M-1901.2,80.5c-0.1-1,0.1-1.7,0.6-2.3c0.5-0.6,1.3-0.9,2.4-1.1c1.1-0.2,2-0.1,2.7,0.3c0.7,0.4,1.1,1.1,1.3,2
				c0,0.1,0.1,0.2,0.1,0.4c-0.8,0.2-1.5,0.3-2.3,0.4c0-0.2-0.1-0.3-0.1-0.5c-0.1-0.4-0.2-0.7-0.5-0.9c-0.2-0.1-0.5-0.2-0.9-0.1
				c-0.4,0.1-0.6,0.2-0.8,0.4c-0.2,0.2-0.2,0.5-0.2,0.9c0.1,0.4,0.2,0.8,0.5,1c0.3,0.3,0.6,0.5,1,0.8c0.4,0.2,0.8,0.4,1.3,0.6
				c0.5,0.2,0.9,0.4,1.3,0.7c0.4,0.3,0.8,0.6,1.1,0.9c0.3,0.4,0.6,0.8,0.7,1.4c0.2,1,0,1.8-0.6,2.4c-0.6,0.6-1.6,1.1-2.9,1.3
				c-1.3,0.2-2.4,0.1-3.1-0.4c-0.7-0.4-1.1-1.2-1.2-2.1c0-0.2,0-0.5-0.1-0.7c0.8-0.1,1.7-0.2,2.5-0.3c0,0.3,0.1,0.6,0.1,0.9
				c0.1,0.4,0.2,0.7,0.5,0.9c0.3,0.1,0.6,0.2,1,0.1c0.4-0.1,0.7-0.2,1-0.4c0.2-0.2,0.3-0.5,0.2-1c-0.1-0.4-0.3-0.7-0.6-1
				c-0.3-0.3-0.7-0.5-1.1-0.7c-0.4-0.2-0.9-0.4-1.3-0.7c-0.5-0.2-0.9-0.5-1.3-0.8c-0.4-0.3-0.7-0.6-1-1
				C-1901,81.6-1901.2,81.1-1901.2,80.5z"/>
			<path class="st7" d="M-1894.1,76.5c2.3-0.5,4.6-1.1,6.9-1.9c0.2,0.5,0.4,1.1,0.6,1.6c-0.8,0.3-1.6,0.5-2.4,0.8c1,3.3,2,6.6,3,9.9
				c-0.9,0.3-1.8,0.5-2.7,0.7c-0.9-3.3-1.7-6.6-2.6-10c-0.8,0.2-1.6,0.4-2.4,0.6C-1893.8,77.6-1894,77.1-1894.1,76.5z"/>
			<path class="st7" d="M-1884.1,73.5c1.2,2.9,2.3,5.7,3.5,8.6c0.2,0.4,0.4,0.6,0.7,0.7c0.3,0.1,0.7,0,1-0.2
				c0.4-0.2,0.7-0.4,0.8-0.6c0.2-0.3,0.2-0.6,0-1c-1.3-2.8-2.6-5.6-3.8-8.4c0.7-0.3,1.3-0.6,2-0.9c1.4,2.7,2.7,5.5,4.1,8.2
				c0.4,0.9,0.5,1.7,0.1,2.5c-0.4,0.8-1.2,1.4-2.5,2c-1.3,0.5-2.3,0.7-3.2,0.4c-0.8-0.2-1.4-0.8-1.7-1.8c-1-2.9-2.1-5.7-3.1-8.6
				C-1885.6,74.1-1884.8,73.8-1884.1,73.5z"/>
			<path class="st7" d="M-1878.5,70.9c1.1-0.6,2.2-1.2,3.2-1.8c1-0.6,1.9-0.9,2.7-0.8c0.8,0.1,1.4,0.5,2,1.3c1.2,1.7,2.3,3.3,3.5,5
				c0.6,0.8,0.7,1.6,0.4,2.4c-0.3,0.8-1,1.6-2.3,2.3c-1.3,0.8-2.6,1.5-3.9,2.2C-1874.7,78-1876.6,74.5-1878.5,70.9z M-1875.6,71.3
				c1.4,2.5,2.9,5,4.3,7.4c0.4-0.3,0.9-0.5,1.3-0.8c0.4-0.2,0.6-0.5,0.7-0.8c0.1-0.3,0.1-0.6-0.2-1c-1.1-1.8-2.2-3.5-3.4-5.3
				c-0.2-0.4-0.5-0.6-0.8-0.6c-0.3,0-0.6,0.1-0.9,0.3C-1874.8,70.8-1875.2,71-1875.6,71.3z"/>
			<path class="st7" d="M-1866,68.8c0.9-0.7,1.8-1.5,2.7-2.3c0.4,0.4,0.8,0.9,1.1,1.3c-0.9,0.8-1.9,1.6-2.8,2.4
				c0.7,0.9,1.5,1.8,2.2,2.8c1.3-1,2.5-2,3.7-3.1c0.4,0.4,0.8,0.8,1.2,1.3c-1.9,1.8-4,3.4-6.1,4.9c-2.4-3.2-4.7-6.5-7.1-9.7
				c1.7-1.3,3.4-2.7,5.1-4.1c0.4,0.4,0.8,0.8,1.2,1.3c-1.1,1-2.1,1.9-3.2,2.8C-1867.4,67.1-1866.7,68-1866,68.8z"/>
			<path class="st7" d="M-1861,61.9c2.1,2,4.2,4.1,6.2,6.1c-0.6,0.6-1.2,1.2-1.9,1.9c-2.8-2.9-5.5-5.8-8.3-8.7
				c0.7-0.7,1.4-1.4,2.2-2.2c2.3,1,4.7,2,7.1,2.9c-1.8-1.6-3.6-3.2-5.4-4.7c0.5-0.6,1-1.1,1.4-1.7c3.1,2.5,6.2,5.1,9.3,7.6
				c-0.6,0.8-1.3,1.6-2,2.3C-1855.3,64.3-1858.2,63.2-1861,61.9z"/>
			<path class="st7" d="M-1859,54.5c1.6-2,3-4.2,4.4-6.5c0.5,0.3,1,0.6,1.5,0.9c-0.5,0.8-1,1.6-1.4,2.4c2.9,1.9,5.7,3.8,8.6,5.6
				c-0.6,0.9-1.1,1.7-1.7,2.5c-2.8-2-5.6-4-8.4-6c-0.5,0.7-1.1,1.5-1.6,2.2C-1858.1,55.2-1858.5,54.9-1859,54.5z"/>
			<path class="st7" d="M-1851.7,48.7c-0.8-0.5-1.3-1.1-1.5-2c-0.1-0.8,0.1-1.8,0.7-3c0.6-1.2,1.2-2,2-2.4c0.7-0.4,1.6-0.4,2.5-0.1
				c0.1,0,0.2,0.1,0.3,0.1c-0.3,0.8-0.7,1.7-1.1,2.5c-0.2-0.1-0.3-0.1-0.5-0.2c-0.4-0.2-0.7-0.2-1-0.1c-0.3,0.1-0.5,0.4-0.7,0.8
				c-0.2,0.4-0.3,0.7-0.2,1c0,0.3,0.3,0.5,0.7,0.7c0.4,0.2,0.7,0.2,1.2,0.1c0.4-0.1,0.8-0.3,1.3-0.5c0.4-0.3,0.9-0.5,1.3-0.9
				c0.5-0.3,0.9-0.6,1.4-0.9c0.5-0.3,1-0.5,1.5-0.6c0.5-0.1,1-0.1,1.6,0.2c0.9,0.4,1.4,1,1.6,2c0.2,0.9-0.1,2.2-0.8,3.6
				c-0.7,1.4-1.5,2.3-2.3,2.8c-0.8,0.4-1.7,0.4-2.5-0.1c-0.2-0.1-0.4-0.2-0.6-0.4c0.5-0.8,0.9-1.6,1.3-2.5c0.3,0.1,0.5,0.3,0.8,0.4
				c0.4,0.2,0.7,0.2,1,0c0.3-0.2,0.5-0.5,0.8-0.9c0.2-0.4,0.3-0.8,0.3-1.2c0-0.3-0.2-0.6-0.6-0.8c-0.4-0.2-0.8-0.2-1.2-0.1
				c-0.4,0.1-0.8,0.3-1.3,0.6c-0.4,0.3-0.9,0.6-1.4,0.9c-0.5,0.3-1,0.6-1.4,0.8c-0.5,0.2-1,0.3-1.5,0.4
				C-1850.7,49.1-1851.2,49-1851.7,48.7z"/>
		</g>
	</g>
</g>
<rect id="_x3C_Slice_x3E_" x="-1914" y="-141.5" class="st18" width="163" height="161"/>
<rect id="_x3C_Slice_x3E__1_" x="-1371" y="-191.5" class="st18" width="50" height="55"/>
<g>
	<path class="st19" d="M-1542-142h-24.5v-42.5c9-6,24.5-0.1,24.5-0.1"/>
	<path class="st19" d="M-1541.9-145.1l0-39.5c0,0,16.4-6,25.4,0.1v42.4h-25.5"/>
	<path class="st7" d="M-1542.4-144.7c-6.7-5.6-21.6,0-21.6,0v-38c7-5.3,21.7,0.4,21.7,0.4"/>
	<path class="st7" d="M-1540.4-144.7c6.7-5.6,21.4,0,21.4,0v-38c-7-5.3-21.7,0.4-21.7,0.4"/>
	<g>
		<g>
			<path class="st20" d="M-1560.4-173.3c5.4-0.9,10.9-0.9,16.4,0"/>
		</g>
		<g>
			<path class="st20" d="M-1560.4-169.2c5.4-0.9,10.9-0.9,16.4,0"/>
		</g>
		<g>
			<path class="st20" d="M-1560.4-165.1c5.4-0.9,10.9-0.9,16.4,0"/>
		</g>
		<g>
			<path class="st20" d="M-1560.4-161.1c5.4-0.9,10.9-0.9,16.4,0"/>
		</g>
		<g>
			<path class="st20" d="M-1560.4-157c5.4-0.9,10.9-0.9,16.4,0"/>
		</g>
	</g>
	<g>
		<g>
			<path class="st20" d="M-1539-173.3c5.4-0.9,10.9-0.9,16.4,0"/>
		</g>
		<g>
			<path class="st20" d="M-1539-169.2c5.4-0.9,10.9-0.9,16.4,0"/>
		</g>
		<g>
			<path class="st20" d="M-1539-165.1c5.4-0.9,10.9-0.9,16.4,0"/>
		</g>
		<g>
			<path class="st20" d="M-1539-161.1c5.4-0.9,10.9-0.9,16.4,0"/>
		</g>
		<g>
			<path class="st20" d="M-1539-157c5.4-0.9,10.9-0.9,16.4,0"/>
		</g>
	</g>
</g>
<path class="st14" d="M-1451.4-162.9c0-0.5,0.1-1,0.1-1.5s0-1-0.1-1.5l-7-1.5c-0.1-0.7-0.3-1.3-0.5-2l5.7-4.4
	c-0.4-1-0.8-1.9-1.3-2.8l-7.2,1.7c-0.4-0.5-0.8-0.9-1.2-1.4l3.3-6.7c-0.8-0.7-1.6-1.3-2.4-1.9l-5.8,4.8c-0.5-0.3-1-0.5-1.5-0.7
	l0.1-7.5c-1-0.3-2-0.5-3-0.7l-3.2,6.8c-0.4,0-0.7,0-1.1,0c-0.2,0-0.4,0-0.6,0l-3.2-6.8c-1,0.2-2,0.4-3,0.7l0.1,7.4
	c-0.6,0.2-1.1,0.5-1.7,0.8l-5.7-4.6c-0.8,0.6-1.7,1.2-2.4,1.9l3.2,6.4c-0.5,0.5-0.9,1-1.4,1.6l-6.8-1.6c-0.5,0.9-0.9,1.8-1.3,2.8
	l5.3,4.2c-0.3,0.8-0.5,1.5-0.6,2.3l-6.5,1.4c0,0.5-0.1,1-0.1,1.5s0,1,0.1,1.5l6.3,1.4c0.1,0.9,0.3,1.8,0.5,2.6l-5,3.9
	c0.4,1,0.8,1.9,1.3,2.8l6-1.4c0.5,0.8,1.1,1.6,1.8,2.3l-2.7,5.4c0.8,0.7,1.6,1.3,2.4,1.9l4.6-3.8c0.9,0.5,1.8,1,2.7,1.3l-0.1,6
	c1,0.3,2,0.5,3,0.7l2.5-5.4c0.4,0,0.9,0,1.3,0c0.6,0,1.1,0,1.7-0.1l2.6,5.5c1-0.2,2-0.4,3-0.7l-0.1-6.1c0.9-0.4,1.7-0.8,2.5-1.3
	l4.8,3.9c0.8-0.6,1.7-1.2,2.4-1.9l-2.9-5.8c0.6-0.7,1.1-1.4,1.6-2.1l6.3,1.5c0.5-0.9,0.9-1.8,1.3-2.8l-5.3-4.2
	c0.2-0.7,0.3-1.5,0.4-2.3L-1451.4-162.9z M-1476.3-156.1c-4.6,0-8.4-3.8-8.4-8.4s3.8-8.4,8.4-8.4c4.6,0,8.4,3.8,8.4,8.4
	S-1471.7-156.1-1476.3-156.1z"/>
<rect id="_x3C_Slice_x3E__2_" x="-1568" y="-190.5" class="st18" width="53" height="53"/>
<rect id="_x3C_Slice_x3E__3_" x="-1503" y="-190.5" class="st18" width="54" height="52"/>
<g>
	<circle class="st15" cx="-542.6" cy="37.5" r="80"/>
	<g>
		<g>
			<path class="st7" d="M-581.8,67.8c-0.7-1.2,1.4-4.8,2.8-4.8s3.3,3.5,2.8,4.8S-581.1,69-581.8,67.8z"/>
			<rect x="-581.1" y="35.7" class="st7" width="2.3" height="25.6"/>
			<path class="st16" d="M-579.4,63.9h-1.1c-0.5,0-0.9-0.4-0.9-0.9v-1.1c0-0.5,0.4-0.9,0.9-0.9h1.1c0.5,0,0.9,0.4,0.9,0.9v1.1
				C-578.6,63.5-578.9,63.9-579.4,63.9z"/>
		</g>
		<path class="st7" d="M-520.8,64.1c-8.1,5.3-38.5,5.9-45.7,0c-7.2-5.9,0-30.1,0-30.1h45.7C-520.8,34-512.7,58.8-520.8,64.1z"/>
		<path class="st17" d="M-501.9,32.5l-39.1,22c-1.3,0.8-3.5,0.8-4.8,0l-39.1-22c-1.6-0.9-1.9-2.4-0.6-3.4l39.1-27.7
			c1.6-1.2,4.3-1.2,6,0l39.1,27.7C-500,30.1-500.3,31.6-501.9,32.5z"/>
	</g>
	<g>
		<g>
			<path class="st7" d="M-602.2,7.7c2.6,1.2,5.3,2.4,7.9,3.7c-0.3,0.7-0.7,1.5-1,2.2c-3.7-1.5-7.4-3.1-11.1-4.6
				c0.5-1.3,1.1-2.5,1.7-3.8c2.6,0,5.2,0.2,7.8,0.5c-2.1-1.2-4.2-2.3-6.3-3.5c0.4-0.8,0.9-1.7,1.4-2.5c3.4,2.1,6.9,4.1,10.3,6.2
				c-0.5,0.8-0.9,1.5-1.3,2.3C-596,8-599.1,7.8-602.2,7.7z"/>
			<path class="st7" d="M-585.6-2.3c-0.5,0.6-1.1,1.3-1.6,1.9c-0.7-0.3-1.3-0.7-2-1c-0.7,0.8-1.3,1.7-1.9,2.6c0.5,0.5,1,1.1,1.5,1.6
				c-0.4,0.6-0.9,1.3-1.3,2c-2.9-2.9-5.7-5.9-8.4-9.1c0.9-1.2,1.7-2.4,2.7-3.6C-592.8-6.1-589.2-4.3-585.6-2.3z M-592.2,0
				c0.5-0.7,1-1.4,1.5-2.1c-1.9-0.9-3.7-1.8-5.6-2.6C-595-3.1-593.6-1.5-592.2,0z"/>
			<path class="st7" d="M-594.1-10.8c2-2.3,4.2-4.4,6.5-6.4c0.4,0.4,0.7,0.9,1.1,1.3c-0.8,0.6-1.5,1.3-2.2,2c2.3,2.5,4.7,5,7,7.6
				c-0.6,0.6-1.2,1.1-1.7,1.7c-2.4-2.4-4.9-4.8-7.3-7.3c-0.7,0.7-1.4,1.5-2.1,2.2C-593.2-10.1-593.6-10.4-594.1-10.8z"/>
			<path class="st7" d="M-586.4-18.2c0.8-0.6,1.5-1.2,2.3-1.8c2.4,3.2,4.8,6.4,7.2,9.7c-0.6,0.5-1.3,1-1.9,1.5
				C-581.3-11.9-583.8-15.1-586.4-18.2z"/>
			<path class="st7" d="M-580.7-18.8c-0.6-0.8-0.7-1.6-0.4-2.5c0.3-0.8,1.1-1.7,2.3-2.4c1.2-0.7,2.3-1,3.2-0.9
				c0.9,0.1,1.6,0.6,2,1.5c1,1.8,1.9,3.7,2.9,5.5c0.4,0.9,0.5,1.7,0.2,2.4c-0.3,0.8-0.9,1.4-1.9,2c-1,0.6-1.9,0.9-2.7,0.8
				c-0.8-0.1-1.5-0.5-2.1-1.3C-578.3-15.4-579.5-17.1-580.7-18.8z M-575-15c0.2,0.4,0.5,0.6,0.8,0.6c0.3,0,0.6-0.1,0.9-0.2
				c0.3-0.2,0.5-0.4,0.7-0.7c0.1-0.3,0.1-0.6-0.2-1c-1.1-1.9-2.2-3.8-3.2-5.6c-0.2-0.4-0.5-0.6-0.8-0.6c-0.3,0-0.7,0.1-1,0.3
				c-0.4,0.2-0.6,0.5-0.8,0.8c-0.1,0.3-0.1,0.6,0.2,1C-577.3-18.6-576.1-16.8-575-15z"/>
			<path class="st7" d="M-569.4-24.6c1.2,2.7,2.3,5.3,3.5,8c-0.6,0.3-1.3,0.6-1.9,0.9c-1.7-3.6-3.5-7.2-5.2-10.8
				c1.1-0.5,2.2-1,3.2-1.4c1.8,1.8,3.6,3.7,5.2,5.7c-0.8-2.2-1.7-4.5-2.5-6.7c0.8-0.3,1.6-0.6,2.4-0.8c1.3,3.8,2.5,7.6,3.8,11.4
				c-0.8,0.2-1.5,0.5-2.3,0.8C-565.1-20.1-567.2-22.4-569.4-24.6z"/>
			<path class="st7" d="M-551.8-20.6c-0.8,0.1-1.5,0.2-2.3,0.4c-0.3-0.7-0.5-1.4-0.8-2.1c-1,0.2-1.9,0.4-2.9,0.6
				c0,0.7,0.1,1.5,0.2,2.2c-0.7,0.2-1.4,0.4-2.1,0.6c-0.4-4.1-0.7-8.1-0.8-12.3c1.3-0.3,2.7-0.6,4-0.9
				C-554.7-28.3-553.2-24.5-551.8-20.6z M-557.9-23.3c0.8-0.2,1.5-0.4,2.3-0.5c-0.8-1.9-1.7-3.8-2.5-5.7
				C-558.1-27.4-558-25.4-557.9-23.3z"/>
			<path class="st7" d="M-552-32.7c0.9-0.1,1.9-0.2,2.8-0.3c0.3,3.4,0.6,6.8,0.9,10.2c1.3-0.1,2.6-0.2,3.9-0.2c0,0.6,0,1.1,0,1.7
				c-2,0-4.1,0.2-6.1,0.4C-551-24.8-551.5-28.7-552-32.7z"/>
			<path class="st7" d="M-532.2-20.2c-0.8-0.1-1.5-0.3-2.3-0.4c0-0.7,0-1.5-0.1-2.2c-1-0.1-2-0.3-2.9-0.3c-0.2,0.7-0.4,1.4-0.6,2.1
				c-0.7-0.1-1.4-0.1-2.1-0.1c1-4,2.1-7.9,3.5-11.8c1.4,0.1,2.7,0.3,4.1,0.5C-532.4-28.4-532.2-24.3-532.2-20.2z M-537.1-24.8
				c0.8,0.1,1.6,0.2,2.4,0.3c-0.1-2.1-0.3-4.1-0.4-6.2C-535.8-28.7-536.5-26.8-537.1-24.8z"/>
			<path class="st7" d="M-528.4-31.7c0.9,0.2,1.8,0.4,2.7,0.6c-0.9,3.3-1.8,6.6-2.6,10c1.3,0.3,2.5,0.7,3.8,1.1
				c-0.2,0.5-0.4,1.1-0.5,1.6c-1.9-0.6-3.9-1.2-5.9-1.6C-530.1-23.9-529.2-27.8-528.4-31.7z"/>
			<path class="st7" d="M-519.7-29.3c0.9,0.3,1.8,0.6,2.6,1c-1.3,3.2-2.6,6.4-3.9,9.5c1.2,0.5,2.4,1,3.6,1.6c-0.3,0.5-0.5,1-0.8,1.5
				c-1.9-0.9-3.8-1.7-5.7-2.4C-522.5-21.7-521.1-25.5-519.7-29.3z"/>
			<path class="st7" d="M-511.5-25.7c0.8,0.4,1.7,0.9,2.5,1.3c-2,3.5-4,7-6,10.4c-0.7-0.4-1.4-0.8-2.1-1.1
				C-515.2-18.6-513.3-22.2-511.5-25.7z"/>
			<path class="st7" d="M-507-8.5c-0.6-0.5-1.3-1-1.9-1.5c0.3-0.7,0.7-1.3,1-2c-0.8-0.6-1.6-1.2-2.5-1.7c-0.5,0.5-1,1.1-1.6,1.6
				c-0.6-0.4-1.2-0.8-1.8-1.2c2.8-3,5.7-5.9,8.7-8.7c1.2,0.8,2.3,1.6,3.4,2.4C-503.3-15.8-505.1-12.1-507-8.5z M-509.2-14.9
				c0.7,0.5,1.3,0.9,2,1.4c0.9-1.9,1.7-3.8,2.5-5.7C-506.3-17.8-507.8-16.3-509.2-14.9z"/>
			<path class="st7" d="M-498.4-12.5c-2,2.1-4,4.2-6,6.4c-0.5-0.5-1.1-1-1.6-1.5c2.6-3,5.3-6.1,7.9-9.1c0.9,0.8,1.8,1.6,2.7,2.5
				c-0.9,2.4-2,4.8-3.1,7.1c1.7-1.7,3.5-3.3,5.2-5c0.6,0.6,1.2,1.3,1.8,2c-3,2.6-6,5.3-9,7.9c-0.6-0.6-1.1-1.3-1.7-1.9
				C-500.9-6.7-499.6-9.6-498.4-12.5z"/>
			<path class="st7" d="M-491.2,3.1c-0.5,0.3-0.9,0.6-1.4,0.8c-0.8,0.5-1.6,0.6-2.4,0.3c-0.8-0.3-1.5-0.9-2.2-1.9
				c-0.7-1-1.1-1.9-1.1-2.7c0-0.8,0.4-1.5,1.1-2.2c1.6-1.3,3.2-2.6,4.8-4c0.8-0.6,1.6-0.8,2.4-0.5c0.9,0.3,1.8,1,2.6,2.3
				c0.9,1.2,1.3,2.4,1.3,3.3c0,0.9-0.5,1.7-1.3,2.2c-0.3,0.2-0.7,0.4-1,0.6c-0.5-0.8-1-1.6-1.5-2.3c0.4-0.2,0.7-0.5,1.1-0.7
				c0.4-0.2,0.5-0.5,0.5-0.9c0-0.3-0.2-0.7-0.4-1.1c-0.3-0.4-0.6-0.6-0.9-0.8c-0.3-0.1-0.6,0-1,0.2c-1.7,1.3-3.5,2.6-5.2,3.9
				c-0.3,0.3-0.5,0.5-0.5,0.8c0,0.3,0.1,0.6,0.4,1c0.2,0.3,0.5,0.6,0.8,0.7c0.3,0.1,0.6,0,1-0.2c0.5-0.3,0.9-0.6,1.4-1
				C-492.2,1.6-491.7,2.4-491.2,3.1z"/>
			<path class="st7" d="M-486.7,6.2c0.6,1.2,1.2,2.5,1.8,3.7c-0.5,0.2-1,0.5-1.6,0.7c-0.5-1.2-1.1-2.5-1.7-3.6
				c-1,0.5-2.1,1.1-3.1,1.6c0.7,1.4,1.4,2.9,2,4.4c-0.5,0.2-1.1,0.4-1.6,0.7c-1-2.3-2-4.5-3.2-6.5c3.5-2,6.9-4,10.4-6
				c1.4,2.5,2.7,5.2,3.9,7.9c-0.5,0.2-1.1,0.4-1.6,0.7c-0.7-1.7-1.5-3.4-2.3-5C-484.7,5.2-485.7,5.7-486.7,6.2z"/>
		</g>
	</g>
	<g>
		<g>
			<path class="st7" d="M-603.1,63.4c0.5,1.1,1.1,2.3,1.7,3.4c-0.5,0.3-1,0.5-1.5,0.8c-0.6-1.1-1.2-2.3-1.7-3.4
				c-1.5,0.7-3,1.4-4.5,2.1c-0.5-1-0.9-2-1.3-3c3.7-1.5,7.4-3.1,11.1-4.6c0.9,2.2,1.9,4.4,3.1,6.4c-0.5,0.3-1,0.6-1.5,0.8
				c-0.7-1.3-1.4-2.6-2-4C-600.9,62.4-602,62.9-603.1,63.4z"/>
			<path class="st7" d="M-598.3,67.4c0.8-0.5,1.7-0.6,2.5-0.2c0.8,0.3,1.5,1,2.2,2.1c0.7,1,1,2,1,2.8c0,0.8-0.4,1.6-1.2,2.2
				c-1.7,1.3-3.3,2.5-5,3.8c-0.8,0.6-1.6,0.7-2.5,0.4c-0.9-0.3-1.8-1.1-2.6-2.4c-0.8-1.3-1.2-2.4-1.2-3.4c0-1,0.5-1.7,1.3-2.2
				C-601.9,69.5-600.1,68.5-598.3,67.4z M-602.3,73.2c-0.4,0.2-0.6,0.5-0.5,0.9c0,0.3,0.1,0.7,0.4,1.1c0.3,0.4,0.5,0.7,0.8,0.8
				c0.3,0.1,0.6,0.1,1-0.2c1.8-1.2,3.5-2.5,5.3-3.7c0.4-0.2,0.5-0.5,0.5-0.8c0-0.3-0.1-0.6-0.3-1c-0.2-0.3-0.5-0.6-0.8-0.7
				c-0.3-0.1-0.6-0.1-1,0.2C-598.6,70.9-600.5,72-602.3,73.2z"/>
			<path class="st7" d="M-595.9,86c0-0.1,0.1-0.2,0.1-0.2c0-0.1,0.1-0.2,0.1-0.2c0.1-0.1,0.1-0.2,0.3-0.3c0.1-0.1,0.3-0.3,0.4-0.4
				c0.5-0.4,0.9-0.9,1.4-1.3c0.4-0.4,0.6-0.8,0.6-1.1c0-0.4-0.3-0.8-0.7-1.3c-0.2-0.2-0.4-0.5-0.6-0.7c-1.2,1.1-2.5,2.2-3.7,3.2
				c-0.6-0.7-1.3-1.5-1.9-2.3c3.1-2.5,6.2-5,9.4-7.6c0.8,1,1.6,1.9,2.4,2.9c0.9,1,1.3,1.8,1.4,2.5c0.1,0.7-0.2,1.4-0.8,2.1
				c-0.2,0.2-0.4,0.5-0.7,0.7c-0.9,0.9-1.8,1.1-2.9,0.5c0.3,0.6,0.4,1.2,0.3,1.7c-0.1,0.5-0.4,1-0.8,1.4c-0.4,0.4-0.9,0.9-1.3,1.3
				c-0.2,0.2-0.4,0.4-0.5,0.6c-0.1,0.2-0.2,0.4-0.3,0.7C-594.5,87.4-595.2,86.7-595.9,86z M-590.3,76.8c-0.9,0.8-1.9,1.6-2.8,2.4
				c0.2,0.3,0.5,0.5,0.7,0.8c0.3,0.4,0.7,0.6,1,0.7c0.3,0.1,0.7,0,1-0.4c0.3-0.3,0.6-0.5,0.9-0.8c0.3-0.3,0.5-0.6,0.5-0.9
				c0-0.3-0.1-0.6-0.4-0.9C-589.7,77.4-590,77.1-590.3,76.8z"/>
			<path class="st7" d="M-581.9,82.6c0.6,0.5,1.2,1,1.9,1.5c-2.1,2.7-4.2,5.5-6.2,8.2c1.2,0.9,2.5,1.8,3.7,2.6c-0.3,0.5-0.6,1-1,1.4
				c-2.1-1.4-4.1-2.9-6.1-4.5C-587,88.8-584.5,85.7-581.9,82.6z"/>
			<path class="st7" d="M-574.5,101.4c-0.9-0.4-1.7-0.8-2.5-1.3c0.2-0.7,0.4-1.4,0.6-2.1c-1-0.5-2-1.1-2.9-1.6
				c-0.5,0.5-1,1.1-1.5,1.6c-0.7-0.4-1.5-0.9-2.2-1.4c3-2.8,5.9-5.8,8.6-8.8c1,0.6,2,1.1,3,1.7C-572.6,93.4-573.7,97.4-574.5,101.4z
				 M-578.3,95.1c0.7,0.4,1.5,0.8,2.2,1.3c0.6-2,1.2-4,1.9-5.9C-575.5,92.1-576.9,93.6-578.3,95.1z"/>
			<path class="st7" d="M-569,90.7c2.2,1,4.4,1.9,6.7,2.6c-0.2,0.5-0.4,1.1-0.5,1.6c-0.8-0.3-1.6-0.5-2.4-0.8
				c-1.2,3.2-2.4,6.4-3.6,9.6c-0.9-0.3-1.7-0.7-2.6-1c1.3-3.2,2.7-6.3,4-9.5c-0.8-0.3-1.5-0.7-2.3-1
				C-569.5,91.8-569.2,91.2-569,90.7z"/>
			<path class="st7" d="M-561.3,93.6c0.7,0.2,1.5,0.4,2.2,0.6c-1.1,3.9-2.1,7.7-3.2,11.6c-0.9-0.2-1.8-0.5-2.7-0.8
				C-563.7,101.3-562.5,97.5-561.3,93.6z"/>
			<path class="st7" d="M-556.1,98.4c-0.6,2.8-1.2,5.7-1.8,8.5c-0.8-0.2-1.6-0.3-2.4-0.5c0.9-3.9,1.9-7.8,2.8-11.7
				c0.9,0.2,1.9,0.4,2.8,0.6c0.3,2.5,0.7,5,1.3,7.5c0.4-2.4,0.7-4.7,1.1-7.1c0.7,0.1,1.4,0.2,2,0.3c-0.5,4-0.9,7.9-1.4,11.9
				c-0.9-0.1-1.9-0.2-2.8-0.4C-555.2,104.5-555.7,101.4-556.1,98.4z"/>
			<path class="st7" d="M-549,99c0.1-1,0.5-1.7,1.1-2.1c0.6-0.5,1.5-0.7,2.7-0.6c1.1,0,2,0.3,2.6,0.8c0.6,0.5,0.9,1.3,1,2.2
				c0,2.1,0.1,4.2,0.1,6.2c0,1-0.3,1.7-1,2.3c-0.7,0.5-1.8,0.8-3.1,0.7c-1.4,0-2.4-0.4-3.1-1c-0.7-0.6-0.9-1.4-0.9-2.3
				C-549.4,103.1-549.2,101-549,99z M-547,105.5c0,0.4,0.1,0.7,0.3,0.9c0.2,0.2,0.6,0.3,1,0.3c0.4,0,0.8-0.1,1-0.2
				c0.3-0.2,0.4-0.5,0.4-0.9c0-2.2,0.1-4.3,0.1-6.5c0-0.4-0.1-0.7-0.3-0.9c-0.2-0.2-0.5-0.3-0.9-0.3c-0.4,0-0.7,0.1-0.9,0.2
				c-0.2,0.2-0.4,0.5-0.4,0.9C-546.7,101.2-546.9,103.3-547,105.5z"/>
			<path class="st7" d="M-537,99c-0.1-1,0.1-1.7,0.6-2.3c0.5-0.6,1.3-0.9,2.4-1.1c1.1-0.2,2-0.1,2.7,0.3c0.7,0.4,1.1,1.1,1.3,2
				c0,0.1,0.1,0.2,0.1,0.4c-0.8,0.2-1.5,0.3-2.3,0.4c0-0.2-0.1-0.3-0.1-0.5c-0.1-0.4-0.2-0.7-0.5-0.9c-0.2-0.1-0.5-0.2-0.9-0.1
				c-0.4,0.1-0.6,0.2-0.8,0.4c-0.2,0.2-0.2,0.5-0.2,0.9c0.1,0.4,0.2,0.8,0.5,1c0.3,0.3,0.6,0.5,1,0.8c0.4,0.2,0.8,0.4,1.3,0.6
				c0.5,0.2,0.9,0.4,1.3,0.7c0.4,0.3,0.8,0.6,1.1,0.9c0.3,0.4,0.6,0.8,0.7,1.4c0.2,1,0,1.8-0.6,2.4c-0.6,0.6-1.6,1.1-2.9,1.3
				c-1.3,0.2-2.4,0.1-3.1-0.4c-0.7-0.4-1.1-1.2-1.2-2.1c0-0.2,0-0.5-0.1-0.7c0.8-0.1,1.7-0.2,2.5-0.3c0,0.3,0.1,0.6,0.1,0.9
				c0.1,0.4,0.2,0.7,0.5,0.9c0.3,0.1,0.6,0.2,1,0.1c0.4-0.1,0.7-0.2,1-0.4c0.2-0.2,0.3-0.5,0.2-1c-0.1-0.4-0.3-0.7-0.6-1
				c-0.3-0.3-0.7-0.5-1.1-0.7c-0.4-0.2-0.9-0.4-1.3-0.7c-0.5-0.2-0.9-0.5-1.3-0.8c-0.4-0.3-0.7-0.6-1-1C-536.8,100-537,99.6-537,99z
				"/>
			<path class="st7" d="M-529.9,95c2.3-0.5,4.6-1.1,6.9-1.9c0.2,0.5,0.4,1.1,0.6,1.6c-0.8,0.3-1.6,0.5-2.4,0.8c1,3.3,2,6.6,3,9.9
				c-0.9,0.3-1.8,0.5-2.7,0.7c-0.9-3.3-1.7-6.6-2.6-10c-0.8,0.2-1.6,0.4-2.4,0.6C-529.7,96.1-529.8,95.6-529.9,95z"/>
			<path class="st7" d="M-520,92c1.2,2.9,2.3,5.7,3.5,8.6c0.2,0.4,0.4,0.6,0.7,0.7c0.3,0.1,0.7,0,1-0.2c0.4-0.2,0.7-0.4,0.8-0.6
				c0.2-0.3,0.2-0.6,0-1c-1.3-2.8-2.6-5.6-3.8-8.5c0.7-0.3,1.3-0.6,2-0.9c1.4,2.7,2.7,5.5,4.1,8.2c0.4,0.9,0.5,1.7,0.1,2.5
				c-0.4,0.8-1.2,1.4-2.5,2c-1.3,0.5-2.3,0.7-3.2,0.4c-0.8-0.2-1.4-0.8-1.7-1.8c-1-2.9-2.1-5.7-3.1-8.6
				C-521.4,92.6-520.7,92.3-520,92z"/>
			<path class="st7" d="M-514.3,89.4c1.1-0.6,2.2-1.2,3.2-1.8c1-0.6,1.9-0.9,2.7-0.8c0.8,0.1,1.4,0.5,2,1.3c1.2,1.7,2.3,3.3,3.5,5
				c0.6,0.8,0.7,1.6,0.4,2.4c-0.3,0.8-1,1.6-2.3,2.3c-1.3,0.8-2.6,1.5-3.9,2.2C-510.6,96.5-512.4,92.9-514.3,89.4z M-511.4,89.8
				c1.4,2.5,2.9,5,4.3,7.4c0.4-0.3,0.9-0.5,1.3-0.8c0.4-0.2,0.6-0.5,0.7-0.8c0.1-0.3,0.1-0.6-0.2-1c-1.1-1.8-2.2-3.5-3.4-5.3
				c-0.2-0.4-0.5-0.6-0.8-0.6c-0.3,0-0.6,0.1-0.9,0.3C-510.6,89.3-511,89.5-511.4,89.8z"/>
			<path class="st7" d="M-501.8,87.3c0.9-0.7,1.8-1.5,2.7-2.3c0.4,0.4,0.8,0.9,1.1,1.3c-0.9,0.8-1.9,1.6-2.8,2.4
				c0.7,0.9,1.5,1.8,2.2,2.8c1.3-1,2.5-2,3.7-3.1c0.4,0.4,0.8,0.8,1.2,1.3c-1.9,1.8-4,3.4-6.1,4.9c-2.4-3.2-4.7-6.5-7.1-9.7
				c1.7-1.3,3.4-2.7,5.1-4.1c0.4,0.4,0.8,0.8,1.2,1.3c-1.1,1-2.1,1.9-3.2,2.8C-503.2,85.6-502.5,86.4-501.8,87.3z"/>
			<path class="st7" d="M-496.8,80.4c2.1,2,4.2,4.1,6.2,6.1c-0.6,0.6-1.2,1.2-1.9,1.9c-2.8-2.9-5.5-5.8-8.3-8.7
				c0.7-0.7,1.4-1.4,2.2-2.2c2.3,1,4.7,2,7.1,2.9c-1.8-1.6-3.6-3.2-5.4-4.7c0.5-0.6,0.9-1.1,1.4-1.7c3.1,2.5,6.2,5.1,9.3,7.6
				c-0.6,0.8-1.3,1.6-2,2.3C-491.1,82.8-494,81.7-496.8,80.4z"/>
			<path class="st7" d="M-494.8,73c1.6-2,3-4.2,4.4-6.5c0.5,0.3,1,0.6,1.5,0.9c-0.5,0.8-1,1.6-1.4,2.4c2.9,1.9,5.7,3.8,8.6,5.6
				c-0.6,0.9-1.1,1.7-1.7,2.5c-2.8-2-5.6-4-8.4-6c-0.5,0.7-1.1,1.5-1.6,2.2C-493.9,73.7-494.4,73.4-494.8,73z"/>
			<path class="st7" d="M-487.5,67.2c-0.8-0.5-1.3-1.1-1.5-2c-0.1-0.8,0.1-1.8,0.7-3c0.6-1.2,1.2-2,2-2.4c0.7-0.4,1.6-0.4,2.5-0.1
				c0.1,0,0.2,0.1,0.3,0.1c-0.3,0.8-0.7,1.7-1.1,2.5c-0.2-0.1-0.3-0.1-0.5-0.2c-0.4-0.2-0.7-0.2-1-0.1c-0.3,0.1-0.5,0.4-0.7,0.8
				c-0.2,0.4-0.3,0.7-0.2,1c0,0.3,0.3,0.5,0.7,0.7c0.4,0.2,0.7,0.2,1.2,0.1c0.4-0.1,0.8-0.3,1.3-0.5c0.4-0.3,0.9-0.5,1.3-0.9
				c0.5-0.3,0.9-0.6,1.4-0.9c0.5-0.3,1-0.5,1.5-0.6c0.5-0.1,1-0.1,1.5,0.2c0.9,0.4,1.4,1,1.6,2c0.2,0.9-0.1,2.2-0.8,3.6
				c-0.7,1.4-1.5,2.3-2.3,2.8c-0.8,0.4-1.7,0.4-2.5-0.1c-0.2-0.1-0.4-0.2-0.6-0.4c0.5-0.8,0.9-1.6,1.3-2.5c0.3,0.1,0.5,0.3,0.8,0.4
				c0.4,0.2,0.7,0.2,1,0c0.3-0.2,0.5-0.5,0.8-0.9c0.2-0.4,0.3-0.8,0.3-1.2c0-0.3-0.2-0.6-0.6-0.8c-0.4-0.2-0.8-0.2-1.2-0.1
				c-0.4,0.1-0.8,0.3-1.3,0.6c-0.4,0.3-0.9,0.6-1.4,0.9c-0.5,0.3-1,0.6-1.4,0.8c-0.5,0.2-1,0.3-1.5,0.4
				C-486.6,67.6-487.1,67.5-487.5,67.2z"/>
		</g>
	</g>
</g>
<rect id="_x3C_Slice_x3E__4_" x="-1433" y="-191.5" class="st18" width="45" height="53"/>
<g>
	<path class="st19" d="M40,71H2.5V7.6c14-9.1,37.1-0.3,37.1-0.3"/>
	<path class="st19" d="M40,66.5L39.7,7.4c0,0,24.8-8.9,37.8,0.2V71H40"/>
	<path class="st7" d="M39.2,67.2c-10.1-8.3-32.2,0-32.2,0v-57c10-7.9,32.5,0.6,32.5,0.6"/>
	<path class="st7" d="M42,67.2c10.1-8.3,32,0,32,0v-57c-10-7.9-32.4,0.6-32.4,0.6"/>
	<g>
		<g>
			<path class="st21" d="M12.1,24.3c8.1-1.4,16.4-1.4,24.5,0"/>
		</g>
		<g>
			<path class="st21" d="M12.1,30.4c8.1-1.4,16.4-1.4,24.5,0"/>
		</g>
		<g>
			<path class="st21" d="M12.1,36.6c8.1-1.4,16.4-1.4,24.5,0"/>
		</g>
		<g>
			<path class="st21" d="M12.1,42.7c8.1-1.4,16.4-1.4,24.5,0"/>
		</g>
		<g>
			<path class="st21" d="M12.1,48.8c8.1-1.4,16.4-1.4,24.5,0"/>
		</g>
	</g>
	<g>
		<g>
			<path class="st21" d="M44.2,24.3c8.1-1.4,16.4-1.4,24.5,0"/>
		</g>
		<g>
			<path class="st21" d="M44.2,30.4c8.1-1.4,16.4-1.4,24.5,0"/>
		</g>
		<g>
			<path class="st21" d="M44.2,36.6c8.1-1.4,16.4-1.4,24.5,0"/>
		</g>
		<g>
			<path class="st21" d="M44.2,42.7c8.1-1.4,16.4-1.4,24.5,0"/>
		</g>
		<g>
			<path class="st21" d="M44.2,48.8c8.1-1.4,16.4-1.4,24.5,0"/>
		</g>
	</g>
</g>
<rect id="_x3C_Slice_x3E__5_" x="-479" y="-20.5" class="st18" width="54" height="52"/>
<path class="st14" d="M1057.4,39.8c0-0.8,0.1-1.5,0.1-2.3s0-1.5-0.1-2.3l-10.4-2.3c-0.2-1-0.5-2-0.8-2.9l8.5-6.6
	c-0.6-1.4-1.3-2.8-2-4.2l-10.8,2.6c-0.5-0.7-1.1-1.4-1.7-2.1l4.9-10c-1.1-1-2.4-2-3.6-2.9l-8.8,7.1c-0.7-0.4-1.5-0.8-2.3-1.1
	l0.1-11.3c-1.5-0.4-3-0.8-4.5-1l-4.8,10.2c-0.5,0-1.1,0-1.6,0c-0.3,0-0.6,0-1,0l-4.8-10.2c-1.5,0.3-3,0.6-4.5,1l0.1,11.1
	c-0.9,0.3-1.7,0.7-2.6,1.1l-8.5-6.9c-1.3,0.9-2.5,1.8-3.6,2.9l4.7,9.6c-0.7,0.8-1.4,1.6-2.1,2.4l-10.2-2.5c-0.8,1.3-1.4,2.7-2,4.2
	l8,6.2c-0.4,1.1-0.7,2.3-0.9,3.5l-9.8,2.1c0,0.8-0.1,1.5-0.1,2.3s0,1.5,0.1,2.3l9.4,2c0.2,1.4,0.4,2.7,0.8,4l-7.5,5.8
	c0.6,1.4,1.3,2.8,2,4.2l9-2.1c0.8,1.2,1.7,2.4,2.6,3.5l-4,8.2c1.1,1,2.4,2,3.6,2.9l7-5.7c1.3,0.8,2.7,1.4,4.1,2l-0.1,9
	c1.5,0.4,3,0.8,4.5,1l3.8-8.1c0.6,0,1.3,0.1,1.9,0.1c0.9,0,1.7,0,2.6-0.1l3.8,8.2c1.5-0.3,3-0.6,4.5-1l-0.1-9.2
	c1.3-0.6,2.6-1.2,3.8-2l7.2,5.9c1.3-0.9,2.5-1.8,3.6-2.9l-4.3-8.6c0.8-1,1.6-2,2.3-3.1l9.5,2.3c0.8-1.3,1.4-2.7,2-4.2l-8-6.3
	c0.3-1.1,0.5-2.2,0.6-3.4L1057.4,39.8z M1020,50.1c-7,0-12.6-5.6-12.6-12.6s5.6-12.6,12.6-12.6s12.6,5.6,12.6,12.6
	S1027,50.1,1020,50.1z"/>
<path class="st14" d="M2029.6,23.7c-14.4-31.6-44.8-31.6-59.2,0C1964.3,37.2,2000,75,2000,75S2035.7,37.2,2029.6,23.7z M2000,39.7
	c-5.3,0-9.6-4.6-9.6-10.3s4.3-10.3,9.6-10.3s9.6,4.6,9.6,10.3S2005.3,39.7,2000,39.7z"/>
</svg>
