<?xml version="1.0" encoding="utf-8"?>
<!-- Generator: Adobe Illustrator 19.1.0, SVG Export Plug-In . SVG Version: 6.00 Build 0)  -->
<svg version="1.1" id="Layer_1" xmlns="http://www.w3.org/2000/svg" xmlns:xlink="http://www.w3.org/1999/xlink" x="0px" y="0px"
	 viewBox="0 0 80 80" style="enable-background:new 0 0 80 80;" xml:space="preserve">
<style type="text/css">
	.st0{enable-background:new    ;}
	.st1{fill:url(#SVGID_1_);}
	.st2{fill:url(#SVGID_2_);}
	.st3{fill:url(#SVGID_3_);}
	.st4{fill:url(#SVGID_4_);}
	.st5{fill:url(#SVGID_5_);}
	.st6{fill:url(#SVGID_6_);}
	.st7{fill:#FFFFFF;}
	.st8{fill:url(#SVGID_7_);}
	.st9{fill:url(#SVGID_8_);}
	.st10{fill:url(#SVGID_9_);}
	.st11{fill:url(#SVGID_10_);}
	.st12{fill:url(#SVGID_11_);}
	.st13{fill:url(#SVGID_12_);}
	.st14{fill:#C1272D;}
	.st15{fill:#2E3192;}
	.st16{fill:#FFFFFF;stroke:#2E3192;stroke-width:0.5714;stroke-miterlimit:10;}
	.st17{fill:#FFFFFF;stroke:#2E3192;stroke-width:2.2857;stroke-miterlimit:10;}
	.st18{fill:none;}
	.st19{fill:#C1272D;stroke:#C1272D;stroke-miterlimit:10;}
	.st20{fill:none;stroke:#C1272D;stroke-width:0.6544;stroke-miterlimit:10;}
	.st21{fill:none;stroke:#C1272D;stroke-width:0.9816;stroke-miterlimit:10;}
</style>
<g>
	<g class="st0">
		<g>
			<linearGradient id="SVGID_1_" gradientUnits="userSpaceOnUse" x1="-2375.052" y1="25.6677" x2="-2333" y2="25.6677">
				<stop  offset="0" style="stop-color:#1B1464"/>
				<stop  offset="0.8544" style="stop-color:#0071BC"/>
				<stop  offset="1" style="stop-color:#1B1464"/>
			</linearGradient>
			<path class="st1" d="M-2375,38.6V3.2c0,0.1-0.1,0.3,0,0.4c1.1,1.3,8,1.8,15.1,2.4c11.6,1,25,2,27,6.8v35.4
				c-2-4.7-15.5-5.8-27-6.8c-7.1-0.6-13.7-1.1-14.8-2.4C-2375,38.9-2375,38.7-2375,38.6z"/>
		</g>
		<g>
			<linearGradient id="SVGID_2_" gradientUnits="userSpaceOnUse" x1="-2582" y1="25.6677" x2="-2540" y2="25.6677">
				<stop  offset="8.428263e-03" style="stop-color:#1B1464"/>
				<stop  offset="0.2534" style="stop-color:#0071BC"/>
				<stop  offset="1" style="stop-color:#1B1464"/>
			</linearGradient>
			<path class="st2" d="M-2540,3.2v35.4c0,0.1-0.2,0.3-0.3,0.4c-1.1,1.3-7.8,1.8-14.9,2.4c-11.6,1-23.8,2-26.8,6.8V12.7
				c3-4.7,15.2-5.8,26.7-6.8c7.1-0.6,13.9-1.1,15-2.4C-2540.2,3.4-2540,3.3-2540,3.2z"/>
		</g>
		<g>
			<linearGradient id="SVGID_3_" gradientUnits="userSpaceOnUse" x1="-2377" y1="18.3392" x2="-2320" y2="18.3392">
				<stop  offset="0" style="stop-color:#0071BC"/>
				<stop  offset="1" style="stop-color:#1B1464"/>
			</linearGradient>
			<path class="st3" d="M-2377,38.6V3.2c0-0.3,0.3-0.7,0.6-1c1.9-2.1,6.6-2.7,12.4-2.7c5.1,0,11.1,0.5,17,1
				c5.7,0.5,11.5,0.9,16.3,0.9c5.4,0,9.6-0.6,10.5-2.6c0.1-0.2,0.3-0.4,0.3-0.6v35.4c0,0.2-0.2,0.4-0.2,0.6c-0.9,2-5,2.6-10.4,2.6
				c-4.7,0-10.6-0.5-16.3-0.9c-5.9-0.5-11.9-1-17-1c-5.8,0-10.6,0.7-12.5,2.7C-2376.7,37.9-2377,38.3-2377,38.6z"/>
		</g>
		<g>
			<linearGradient id="SVGID_4_" gradientUnits="userSpaceOnUse" x1="-2594.5603" y1="18.3376" x2="-2538" y2="18.3376">
				<stop  offset="0" style="stop-color:#1B1464"/>
				<stop  offset="1" style="stop-color:#0071BC"/>
				<stop  offset="1" style="stop-color:#1B1464"/>
			</linearGradient>
			<path class="st4" d="M-2594,33.5V-1.9c0,0.2-0.6,0.4-0.6,0.6c0.9,2,4.6,2.6,10,2.6c4.7,0,10.4-0.5,16.1-0.9
				c5.9-0.5,11.8-1,16.9-1c5.8,0,10.9,0.7,12.7,2.7c0.3,0.4,0.9,0.7,0.9,1v35.4c0-0.3-0.6-0.7-0.9-1c-1.9-2.1-6.7-2.7-12.6-2.7
				c-5.1,0-11.2,0.5-17.1,1c-5.7,0.5-11.6,0.9-16.3,0.9c-5.4,0-8.8-0.6-9.7-2.6C-2594.6,33.9-2594,33.7-2594,33.5z"/>
		</g>
		<g>
			<linearGradient id="SVGID_5_" gradientUnits="userSpaceOnUse" x1="-2596.771" y1="33.2111" x2="-2318.8267" y2="33.2111">
				<stop  offset="0" style="stop-color:#0071BC"/>
				<stop  offset="1" style="stop-color:#0071BC"/>
			</linearGradient>
			<path class="st5" d="M-2469.4,18c4,0,7.9,0,11.6,0.1c3.6-0.1,7.5-0.1,11.6-0.1c46.5,0,114.8,5,125.8,13.1c1.4,1,1.9,2.1,1.4,3.2
				c-1.1,2.5-5.6,3.2-11.6,3.2c-4.8,0-10.6-0.5-16.5-1c-5.9-0.5-11.9-1-16.9-1c-5.3,0-9.4,0.6-11,2.3c-0.4,0.4-0.4,0.7-0.2,1
				c1.1,1.3,7.8,1.8,14.9,2.4c11.6,1,24.7,2,26.8,6.8l-1.3,0.2c-1.9-4.2-15-5.3-25.6-6.2c-8.1-0.7-14.5-1.2-15.9-2.9
				c-0.5-0.5-0.4-1.1,0.2-1.8c1.9-2.1,6.5-2.7,12.3-2.7c5.1,0,11,0.5,16.9,1c5.7,0.5,11.5,0.9,16.2,0.9c5.4,0,9.5-0.6,10.4-2.6
				c0.4-0.8,0-1.6-1.1-2.5c-5-3.7-24.8-7.3-54.3-9.8c-22.5-1.9-48.2-3-70.1-3c-4.1,0-8.1,0-11.9,0.1c-3.8-0.1-7.8-0.1-12-0.1
				c-21.8,0-47.6,1.1-70.1,3c-29.5,2.5-49.2,6.1-54.3,9.8c-1.1,0.8-1.5,1.7-1.1,2.5c0.9,2,4.9,2.6,10.4,2.6c4.7,0,10.5-0.5,16.2-0.9
				c5.9-0.5,11.9-1,16.9-1c5.8,0,10.5,0.7,12.3,2.7c0.6,0.7,0.6,1.3,0.2,1.8c-1.4,1.7-7.8,2.2-15.9,2.9c-10.6,0.9-23.7,2-25.6,6.2
				l-1.3-0.2c2.1-4.7,15.2-5.8,26.8-6.8c7.1-0.6,13.7-1.1,14.9-2.4c0.2-0.3,0.2-0.6-0.2-1c-1.6-1.7-5.7-2.3-11-2.3
				c-5,0-11,0.5-16.9,1c-5.9,0.5-11.7,1-16.5,1c-6.1,0-10.5-0.8-11.6-3.2c-0.5-1.1,0-2.2,1.4-3.2C-2584.2,23-2515.9,18-2469.4,18z"
				/>
		</g>
		
			<radialGradient id="SVGID_6_" cx="-2431.3328" cy="8.0544" r="117.002" gradientTransform="matrix(0.8471 0 0 1 -397.8729 0)" gradientUnits="userSpaceOnUse">
			<stop  offset="0" style="stop-color:#0071BC"/>
			<stop  offset="1" style="stop-color:#1B1464"/>
		</radialGradient>
		<path class="st6" d="M-2320.5-4.3c-11-8.1-79.2-13.1-125.7-13.1c-4,0-8.1,0-11.6,0.1c-3.5-0.1-7.6-0.1-11.8-0.1
			c-46.5,0-114.4,5-125.4,13.1c-1,0.8-1.1,1.6-1.1,2.4v35.4c0-0.8,0.1-1.6,1.1-2.4c11-8.1,79-13.1,125.5-13.1c4.2,0,8.3,0,11.7,0.1
			c3.5-0.1,7.4-0.1,11.5-0.1c46.5,0,114.8,5,125.8,13.1c1.1,0.8,1.5,1.6,1.5,2.4V-1.9C-2319-2.7-2319.4-3.5-2320.5-4.3z"/>
	</g>
</g>
<g>
	<g>
		<path class="st7" d="M-2577.5,9.6c0.5-0.1,0.8-0.1,0.9-0.1c0,0,0.1-0.1,0.1-0.1c0,0,0.1-0.1,0.1-0.3c0-0.2,0-0.6,0-1.3
			c0-0.4,0-0.9-0.1-1.5c-0.1-0.7-0.1-1.5-0.2-2.2c-0.1-0.7-0.1-1.3-0.2-2c0-0.3-0.1-0.5-0.1-0.6c0-0.1-0.1-0.2-0.1-0.2
			c0,0-0.1-0.1-0.2-0.1c-0.1,0-0.4,0-0.9,0c0-0.2,0-0.4,0-0.6c0.6,0,1,0,1.3-0.1c0.3,0,0.7-0.1,1-0.1c0.2,0,0.4,0,0.6-0.1
			c1,1.1,2.3,2.5,3.7,4c1,1.1,1.9,1.9,2.6,2.5c0-0.5-0.1-1-0.1-1.6c-0.2-2.4-0.3-3.9-0.4-4.3c0-0.2-0.1-0.3-0.1-0.3
			c-0.1-0.1-0.5-0.1-1.1-0.1c0-0.2,0-0.4,0-0.6c0.6,0,1.1,0,1.5-0.1c0.5,0,1-0.1,1.7-0.2c0,0.2,0,0.4,0,0.6c-0.6,0.1-0.9,0.1-1,0.2
			c0,0-0.1,0.1-0.1,0.1c-0.1,0.2-0.1,0.8,0,1.6c0,0.8,0.1,1.4,0.1,1.8c0.2,3,0.4,4.9,0.5,5.5c0,0-0.1,0-0.1,0.1
			c-0.4,0-0.8-0.1-1.2-0.1c-1.6-1.5-3.9-3.8-6.8-6.9c0.1,1.1,0.2,2.3,0.3,3.4c0.1,0.7,0.1,1.4,0.2,2.2c0.1,0.5,0.1,0.8,0.2,1
			c0,0.1,0.1,0.1,0.1,0.1c0,0,0.1,0,0.2,0.1c0.3,0,0.5,0,0.7,0c0,0,0.1,0,0.1,0c0,0.2,0,0.4,0,0.6c-0.9,0.1-1.4,0.1-1.5,0.1
			c-0.4,0-1,0.1-1.8,0.2C-2577.4,10-2577.4,9.8-2577.5,9.6z"/>
		<path class="st7" d="M-2559.7,8.4c0,0.2,0,0.3,0,0.5c-0.5,0-1,0-1.4,0.1c-0.4,0-0.8,0.1-1.1,0.1c0,0,0,0-0.1-0.1
			c0-0.3,0-0.6,0-0.9c-0.2,0.1-0.6,0.5-1.4,1.2c-0.2,0.1-0.4,0.1-0.6,0.1c-0.5,0-0.9-0.1-1.2-0.4c-0.3-0.3-0.5-0.7-0.5-1.2
			c0-0.4,0-0.7,0.1-0.9c0.1-0.2,0.2-0.4,0.4-0.6c0.1-0.1,0.4-0.2,0.6-0.4c0.7-0.3,1.5-0.6,2.3-0.8c0-0.5-0.2-0.9-0.4-1.2
			c-0.3-0.3-0.6-0.4-1.1-0.3c-0.2,0-0.4,0.1-0.6,0.1c-0.1,0-0.2,0.1-0.3,0.2c-0.1,0.2-0.2,0.5-0.2,0.7c-0.2,0-0.3,0-0.5-0.1
			c0-0.3,0-0.6,0-0.9c0.3-0.3,0.6-0.5,0.9-0.7c0.3-0.2,0.5-0.3,0.6-0.4c0.2-0.1,0.4-0.1,0.7-0.1c0.5,0,0.9,0,1.2,0.1
			c0.3,0.1,0.6,0.3,0.7,0.5c0.2,0.2,0.3,0.4,0.4,0.6c0.1,0.2,0.1,0.5,0.1,0.8c0,0.1,0,0.5,0,1.1c0,0.4,0,0.7,0,1
			c0.1,0.8,0.1,1.3,0.2,1.5c0,0.1,0.1,0.1,0.1,0.2C-2560.3,8.3-2560.1,8.4-2559.7,8.4z M-2562.4,5.7c-0.4,0.1-0.7,0.2-1,0.4
			c-0.3,0.1-0.5,0.3-0.6,0.5c-0.1,0.2-0.2,0.4-0.1,0.7c0,0.3,0.1,0.5,0.3,0.7c0.2,0.1,0.4,0.2,0.6,0.2c0.2,0,0.4-0.1,0.6-0.2
			c0.2-0.1,0.4-0.3,0.5-0.5C-2562.3,6.8-2562.3,6.3-2562.4,5.7z"/>
		<path class="st7" d="M-2559.3,3.6c0-0.1,0-0.2,0-0.3c0.2-0.1,0.4-0.3,0.6-0.4c0.1-0.1,0.2-0.1,0.3-0.2c0-0.3,0-0.6-0.1-0.9
			c0-0.3-0.1-0.7-0.1-1.2c0.4-0.2,0.7-0.3,0.8-0.4c0,0,0.3-0.2,0.8-0.5c0.1,0,0.1,0.1,0.2,0.1c0,0.2,0,0.5,0,0.7c0,0.3,0,0.5,0,0.8
			c0,0.4,0,0.8,0,1.2c0.1,0,0.2,0,0.2,0c0.6,0,1.1-0.1,1.4-0.2c0,0.3,0,0.6-0.1,0.9c-0.1,0-0.1,0-0.2,0c-0.2,0-0.4,0-0.7,0
			c-0.2,0-0.4,0-0.7,0c0,0.8,0.1,1.5,0.1,2.3c0,0.7,0.1,1.1,0.1,1.2c0,0.2,0.1,0.4,0.3,0.5c0.1,0.1,0.3,0.2,0.6,0.1
			c0.2,0,0.3,0,0.4,0c0.1,0,0.2,0,0.4-0.1c0,0.1,0.1,0.2,0.1,0.3c-0.1,0.1-0.2,0.2-0.2,0.3c-0.2,0.2-0.4,0.4-0.5,0.6
			c-0.2,0.1-0.3,0.2-0.5,0.2c-0.1,0-0.3,0.1-0.4,0.1c-0.5,0-1-0.1-1.3-0.3c-0.3-0.3-0.5-0.6-0.5-1c0-0.8-0.1-1.5-0.1-2.3
			c0-0.6-0.1-1.1-0.1-1.7c-0.1,0-0.1,0-0.2,0C-2558.9,3.6-2559.1,3.6-2559.3,3.6z"/>
		<path class="st7" d="M-2554.2,8.5c0-0.2,0-0.3,0-0.5c0.5-0.1,0.8-0.1,0.9-0.2c0.1,0,0.1-0.1,0.1-0.3c0-0.3,0-0.9-0.1-1.9
			c-0.1-1.4-0.2-2.2-0.2-2.4c0-0.1-0.1-0.1-0.1-0.2c-0.1-0.1-0.4-0.1-0.9,0c0-0.2,0-0.3,0-0.5c0.7-0.1,1.2-0.2,1.5-0.3
			c0.3-0.1,0.7-0.3,1.1-0.4c0.1,0,0.1,0.1,0.2,0.1c0,0.7,0,1.4,0,2c0,0.8,0.1,1.5,0.1,2.3c0,0.8,0.1,1.3,0.1,1.4
			c0,0.1,0.1,0.1,0.1,0.2c0.1,0.1,0.4,0.1,0.9,0.1c0,0.2,0,0.4,0,0.5c-0.6,0-1.4,0.1-2.1,0.1C-2553.1,8.4-2553.7,8.5-2554.2,8.5z
			 M-2552.9-1.5c0.3,0,0.5,0.1,0.8,0.3c0.2,0.2,0.3,0.4,0.4,0.7c0,0.3-0.1,0.5-0.3,0.8c-0.2,0.2-0.4,0.3-0.7,0.4
			c-0.3,0-0.5-0.1-0.8-0.3c-0.2-0.2-0.3-0.4-0.4-0.7c0-0.3,0.1-0.5,0.3-0.8C-2553.5-1.3-2553.2-1.5-2552.9-1.5z"/>
		<path class="st7" d="M-2549.6,5c0-0.8,0-1.4,0.3-1.9c0.2-0.5,0.6-0.9,1.1-1.2c0.5-0.3,1.1-0.5,1.8-0.5c1.1-0.1,1.9,0.2,2.5,0.7
			c0.6,0.5,0.9,1.3,1,2.4c0,0.6,0,1.2-0.2,1.6c-0.1,0.5-0.3,0.8-0.6,1.1c-0.3,0.3-0.5,0.5-0.8,0.7c-0.5,0.3-1.1,0.4-1.7,0.5
			c-1,0.1-1.8-0.2-2.4-0.7S-2549.5,6.1-2549.6,5z M-2547.7,4.6c0.1,1.2,0.3,2.1,0.7,2.6c0.3,0.3,0.6,0.5,1,0.5
			c0.4,0,0.7-0.2,0.9-0.4c0.3-0.4,0.4-1,0.3-2c0-0.7-0.1-1.3-0.3-1.8c-0.1-0.5-0.3-0.8-0.6-1c-0.2-0.2-0.5-0.3-0.8-0.2
			c-0.3,0-0.5,0.1-0.7,0.3c-0.2,0.2-0.3,0.4-0.4,0.8C-2547.7,3.4-2547.8,3.9-2547.7,4.6z"/>
		<path class="st7" d="M-2534,6.9c0,0.2,0,0.3,0,0.5c-0.6,0-1.1,0-1.5,0c-0.5,0-0.8,0.1-1.2,0.1c0,0-0.1-0.1-0.1-0.1
			c0-0.1,0-0.5,0-1.2c0-0.4,0-0.7,0-1.1c0-0.2,0-0.4,0-0.5c0-0.8-0.1-1.3-0.2-1.6c-0.1-0.2-0.2-0.4-0.4-0.6
			c-0.2-0.1-0.5-0.2-0.8-0.2c-0.3,0-0.6,0.1-0.8,0.3c-0.2,0.2-0.3,0.3-0.4,0.5c0,0.1,0,0.5,0,1.1c0,0.4,0,0.8,0.1,1.1
			c0,0.3,0.1,0.7,0.1,1.2c0,0.2,0,0.4,0.1,0.4c0,0,0.1,0.1,0.1,0.1c0.1,0,0.2,0.1,0.3,0.1c0.1,0,0.2,0,0.6,0c0,0.2,0,0.4,0,0.5
			c-0.5,0-1.1,0-1.8,0.1c-0.8,0-1.5,0.1-1.9,0.1c0-0.2,0-0.4,0-0.5c0.4,0,0.6-0.1,0.7-0.1c0.1,0,0.1-0.1,0.1-0.1
			c0-0.1,0.1-0.3,0-0.5c0-0.2,0-0.4,0-0.6c0-0.1,0-0.3,0-0.6c0-0.3,0-0.6,0-0.9c0-0.4-0.1-0.9-0.1-1.5c0-0.3-0.1-0.5-0.1-0.5
			c0,0-0.1-0.1-0.1-0.1c-0.1,0-0.4,0-0.8,0c0-0.2,0-0.4,0-0.5c0.8-0.2,1.4-0.3,1.6-0.4c0.3-0.1,0.5-0.2,0.9-0.4c0.1,0,0.1,0,0.2,0.1
			c0,0.4,0,0.7,0.1,1.1c0.4-0.4,0.8-0.7,1.2-1.1c0.1-0.1,0.3-0.1,0.4-0.1c0.1,0,0.2,0,0.4-0.1c0.5,0,0.9,0,1.1,0.1
			c0.3,0.1,0.5,0.2,0.6,0.4c0.2,0.2,0.3,0.4,0.4,0.6c0.1,0.2,0.1,0.6,0.2,1c0,0.5,0,0.9,0,1c0,0.1,0,0.1,0,0.2c0,0.2,0,0.5,0,0.7
			c0,0.8,0.1,1.2,0.1,1.4c0,0.2,0.1,0.3,0.1,0.3c0.1,0,0.2,0.1,0.4,0.1C-2534.3,6.8-2534.1,6.8-2534,6.9z"/>
		<path class="st7" d="M-2527,6.5c0,0.2,0,0.3,0,0.5c-0.5,0-1,0-1.4,0c-0.4,0-0.8,0-1.1,0.1c0,0,0,0-0.1-0.1c0-0.3,0-0.6,0-0.9
			c-0.2,0.1-0.6,0.5-1.4,1.1c-0.2,0.1-0.4,0.1-0.6,0.1c-0.5,0-0.9-0.1-1.2-0.4c-0.3-0.3-0.5-0.7-0.5-1.2c0-0.4,0-0.7,0.1-0.9
			c0.1-0.2,0.2-0.4,0.4-0.5c0.1-0.1,0.4-0.2,0.7-0.4c0.7-0.3,1.5-0.5,2.3-0.7c0-0.5-0.1-0.9-0.4-1.2c-0.3-0.3-0.6-0.4-1.1-0.4
			c-0.2,0-0.4,0-0.6,0.1c-0.1,0-0.2,0.1-0.3,0.1c-0.1,0.2-0.2,0.5-0.3,0.7c-0.2,0-0.3-0.1-0.5-0.1c0-0.3,0-0.6,0-0.9
			c0.3-0.2,0.6-0.5,0.9-0.6c0.3-0.2,0.5-0.3,0.6-0.3c0.2-0.1,0.4-0.1,0.7-0.1c0.5,0,0.9,0,1.2,0.2c0.3,0.1,0.6,0.3,0.7,0.5
			c0.2,0.2,0.3,0.4,0.3,0.6c0.1,0.2,0.1,0.5,0.1,0.8c0,0.1,0,0.5,0,1.1c0,0.4,0,0.7,0,1c0,0.8,0.1,1.3,0.1,1.5
			c0,0.1,0.1,0.1,0.1,0.2C-2527.6,6.5-2527.4,6.5-2527,6.5z M-2529.6,3.8c-0.4,0.1-0.7,0.2-1.1,0.3c-0.3,0.1-0.5,0.3-0.6,0.5
			c-0.1,0.2-0.2,0.4-0.2,0.7c0,0.3,0.1,0.5,0.3,0.7c0.2,0.2,0.4,0.2,0.6,0.2c0.2,0,0.4-0.1,0.6-0.2c0.2-0.1,0.4-0.3,0.5-0.5
			C-2529.6,5-2529.6,4.4-2529.6,3.8z"/>
		<path class="st7" d="M-2522.4,6.3c0,0.2,0,0.4,0,0.5c-0.6,0-1.2,0-1.8,0c-0.6,0-1.3,0.1-2.1,0.1c0-0.2,0-0.4,0-0.5
			c0.4,0,0.7-0.1,0.8-0.1c0.1,0,0.1,0,0.2-0.1c0,0,0.1-0.1,0.1-0.2c0-0.1,0-0.6,0-1.3c0-0.7,0-1.4-0.1-1.9c0-0.8-0.1-1.5-0.1-2.3
			c0-0.7-0.1-1.4-0.1-2c0-0.3-0.1-0.5-0.1-0.6c0,0,0-0.1-0.1-0.1c-0.1,0-0.1-0.1-0.3-0.1c-0.1,0-0.3,0-0.6,0c0-0.2,0-0.3,0-0.5
			c0.6-0.1,1-0.2,1.4-0.3c0.3-0.1,0.8-0.2,1.4-0.4c0,0,0.1,0.1,0.1,0.1c0,0.5,0,0.9,0,1.4c0,0.8,0,1.7,0.1,2.9
			c0,0.6,0.1,1.2,0.1,1.8c0,0.7,0.1,1.2,0.1,1.5c0.1,0.8,0.1,1.3,0.1,1.5c0,0.2,0,0.3,0.1,0.3c0,0,0,0.1,0.1,0.1
			c0,0,0.1,0.1,0.2,0.1C-2523.1,6.3-2522.9,6.3-2522.4,6.3z"/>
		<path class="st7" d="M-2518.2,6.7c0-0.2,0-0.4,0-0.6c0.4,0,0.6-0.1,0.7-0.1c0.1,0,0.1-0.1,0.2-0.1c0,0,0.1-0.1,0.1-0.2
			c0-0.1,0.2-0.4,0.4-1.1c0.1-0.3,0.3-0.9,0.6-1.7c0.5-1.5,1.1-3,1.6-4.5c0.2-0.5,0.4-1,0.5-1.6c0.3,0,0.7,0,1,0
			c1.1,2.3,2.2,4.7,3.3,7c0.2,0.3,0.3,0.6,0.5,0.9c0.1,0.2,0.2,0.4,0.3,0.6c0,0.1,0.1,0.1,0.1,0.2c0,0,0.1,0.1,0.1,0.1
			c0.1,0,0.2,0,0.4,0c0.1,0,0.2,0,0.3,0c0,0.2,0,0.4,0,0.6c-0.6,0-1.3,0-1.9,0c-0.8,0-1.6,0.1-2.4,0.1c0-0.2,0-0.4,0-0.6
			c0.6,0,0.9-0.1,0.9-0.1c0.1,0,0.1-0.1,0.1-0.2c0-0.1-0.1-0.3-0.2-0.6c-0.2-0.5-0.4-1-0.6-1.5c-1.2,0-2.4,0.1-3.5,0.1
			c-0.1,0.3-0.2,0.6-0.3,0.8c-0.2,0.6-0.3,1-0.3,1.2c0,0.1,0,0.2,0.1,0.2c0.1,0.1,0.4,0.1,1,0.1c0,0.2,0,0.4,0,0.6
			c-0.5,0-1.1,0-1.6,0C-2517.1,6.6-2517.6,6.6-2518.2,6.7z M-2515.3,2.8c0.4,0,0.9,0,1.5,0c0.5,0,1,0,1.4-0.1
			c-0.5-1.2-1.1-2.3-1.6-3.5C-2514.4,0.5-2514.9,1.7-2515.3,2.8z"/>
		<path class="st7" d="M-2503.4,5.6c0,0.2,0,0.4,0,0.5c-0.6,0-1.2,0-1.8,0c-0.6,0-1.3,0.1-2.1,0.1c0-0.2,0-0.4,0-0.5
			c0.4,0,0.7-0.1,0.8-0.1c0.1,0,0.1,0,0.2-0.1c0,0,0.1-0.1,0.1-0.2c0-0.1,0-0.6,0-1.3c0-0.7,0-1.4,0-1.9c0-0.8,0-1.5-0.1-2.3
			c0-0.7-0.1-1.4-0.1-2c0-0.3-0.1-0.5-0.1-0.6c0,0,0-0.1-0.1-0.1c-0.1,0-0.1-0.1-0.3-0.1c-0.1,0-0.3,0-0.6,0c0-0.2,0-0.3,0-0.5
			c0.6-0.1,1-0.2,1.4-0.2c0.3-0.1,0.8-0.2,1.4-0.4c0,0,0.1,0.1,0.1,0.1c0,0.5,0,0.9,0,1.4c0,0.8,0,1.7,0,2.9c0,0.6,0,1.2,0.1,1.8
			c0,0.7,0,1.2,0.1,1.5c0,0.8,0.1,1.3,0.1,1.5c0,0.2,0,0.3,0.1,0.3c0,0,0,0.1,0.1,0.1c0,0,0.1,0.1,0.2,0.1
			C-2504,5.6-2503.8,5.6-2503.4,5.6z"/>
		<path class="st7" d="M-2498.7,5.5c0,0.2,0,0.4,0,0.5c-0.6,0-1.2,0-1.8,0c-0.6,0-1.3,0.1-2.1,0.1c0-0.2,0-0.4,0-0.5
			c0.4,0,0.7-0.1,0.8-0.1c0.1,0,0.1,0,0.2-0.1c0,0,0.1-0.1,0.1-0.2c0-0.1,0-0.6,0-1.3c0-0.7,0-1.4,0-1.9c0-0.8,0-1.5-0.1-2.3
			c0-0.7-0.1-1.4-0.1-2c0-0.3-0.1-0.5-0.1-0.6c0,0,0-0.1-0.1-0.1c-0.1,0-0.1-0.1-0.3-0.1c-0.1,0-0.3,0-0.6,0c0-0.2,0-0.3,0-0.5
			c0.6-0.1,1-0.2,1.4-0.2c0.3-0.1,0.8-0.2,1.4-0.4c0,0,0.1,0.1,0.1,0.1c0,0.5,0,0.9,0,1.4c0,0.8,0,1.7,0,2.9c0,0.6,0,1.2,0,1.8
			c0,0.7,0,1.2,0.1,1.5c0,0.8,0.1,1.3,0.1,1.5c0,0.2,0,0.3,0.1,0.3c0,0,0,0.1,0.1,0.1c0,0,0.1,0.1,0.2,0.1
			C-2499.4,5.5-2499.1,5.5-2498.7,5.5z"/>
		<path class="st7" d="M-2497.8,6c0-0.2,0-0.3,0-0.5c0.5,0,0.8-0.1,0.9-0.1c0.1,0,0.1-0.1,0.1-0.2c0-0.3,0-0.9,0-1.9
			c0-1.4-0.1-2.2-0.1-2.4c0-0.1-0.1-0.1-0.1-0.2c-0.1-0.1-0.4-0.1-0.9-0.1c0-0.2,0-0.3,0-0.5c0.7-0.1,1.2-0.2,1.6-0.3
			c0.4-0.1,0.7-0.2,1.1-0.4c0.1,0,0.1,0.1,0.2,0.1c0,0.7,0,1.4,0,2c0,0.8,0,1.5,0.1,2.3c0,0.8,0,1.3,0.1,1.4c0,0.1,0.1,0.1,0.1,0.2
			c0.1,0.1,0.4,0.1,0.9,0.1c0,0.2,0,0.4,0,0.5c-0.6,0-1.4,0-2.1,0C-2496.7,5.9-2497.3,6-2497.8,6z M-2496.2-4c0.3,0,0.5,0.1,0.8,0.3
			c0.2,0.2,0.3,0.4,0.3,0.7c0,0.3-0.1,0.5-0.3,0.8c-0.2,0.2-0.4,0.3-0.7,0.3c-0.3,0-0.5-0.1-0.7-0.3c-0.2-0.2-0.3-0.4-0.3-0.7
			c0-0.3,0.1-0.5,0.3-0.7C-2496.7-3.8-2496.5-4-2496.2-4z"/>
		<path class="st7" d="M-2486.9,5.2c0,0.2,0,0.3,0,0.5c-0.5,0-1,0-1.4,0c-0.4,0-0.8,0-1.1,0.1c0,0,0,0-0.1-0.1c0-0.3,0-0.6,0-0.9
			c-0.2,0.1-0.6,0.5-1.4,1.1c-0.2,0-0.4,0.1-0.6,0.1c-0.5,0-0.9-0.1-1.2-0.4c-0.3-0.3-0.4-0.7-0.4-1.2c0-0.4,0-0.7,0.2-0.9
			c0.1-0.2,0.3-0.4,0.4-0.5c0.1-0.1,0.4-0.2,0.7-0.3c0.7-0.3,1.5-0.5,2.4-0.7c0-0.5-0.1-1-0.4-1.2c-0.2-0.3-0.6-0.4-1.1-0.4
			c-0.2,0-0.4,0-0.6,0.1c-0.1,0-0.2,0.1-0.3,0.1c-0.1,0.2-0.2,0.5-0.3,0.7c-0.2,0-0.3-0.1-0.5-0.1c0-0.3,0-0.6,0-0.9
			c0.3-0.2,0.7-0.4,1-0.6c0.3-0.2,0.5-0.3,0.6-0.3c0.2-0.1,0.4-0.1,0.7-0.1c0.5,0,0.9,0.1,1.2,0.2c0.3,0.1,0.6,0.3,0.7,0.5
			c0.2,0.2,0.3,0.4,0.3,0.6c0.1,0.2,0.1,0.5,0.1,0.8c0,0.1,0,0.5,0,1.1c0,0.4,0,0.7,0,1c0,0.8,0,1.3,0.1,1.5c0,0.1,0.1,0.1,0.1,0.2
			C-2487.5,5.2-2487.3,5.2-2486.9,5.2z M-2489.5,2.5c-0.4,0.1-0.7,0.2-1.1,0.3c-0.3,0.1-0.5,0.3-0.7,0.4c-0.1,0.2-0.2,0.4-0.2,0.6
			c0,0.3,0.1,0.5,0.2,0.7c0.2,0.2,0.3,0.2,0.6,0.2c0.2,0,0.4-0.1,0.6-0.2c0.2-0.1,0.4-0.3,0.5-0.5C-2489.5,3.6-2489.5,3-2489.5,2.5z
			"/>
		<path class="st7" d="M-2478.3,5.1c0,0.2,0,0.3,0,0.5c-0.6,0-1.1,0-1.5,0c-0.5,0-0.8,0-1.2,0.1c0,0-0.1-0.1-0.1-0.1
			c0-0.1,0-0.5,0.1-1.2c0-0.4,0-0.7,0-1.1c0-0.2,0-0.4,0-0.5c0-0.8-0.1-1.3-0.1-1.6c-0.1-0.2-0.2-0.4-0.4-0.6
			c-0.2-0.1-0.5-0.2-0.8-0.2c-0.3,0-0.6,0.1-0.8,0.2c-0.2,0.2-0.3,0.3-0.4,0.5c0,0.1,0,0.5,0,1.1c0,0.4,0,0.8,0,1.1
			c0,0.3,0,0.7,0.1,1.2c0,0.2,0,0.4,0.1,0.4c0,0,0.1,0.1,0.1,0.1c0.1,0,0.2,0.1,0.3,0.1c0.1,0,0.2,0,0.6,0c0,0.2,0,0.4,0,0.5
			c-0.5,0-1.1,0-1.8,0c-0.8,0-1.5,0-1.9,0.1c0-0.2,0-0.4,0-0.5c0.4,0,0.6,0,0.7-0.1c0.1,0,0.1-0.1,0.1-0.1c0-0.1,0.1-0.3,0.1-0.5
			c0-0.2,0-0.4,0-0.6c0-0.1,0-0.3,0-0.6c0-0.3,0-0.6,0-0.9c0-0.4,0-0.9-0.1-1.5c0-0.3,0-0.5-0.1-0.5c0,0-0.1-0.1-0.1-0.1
			c-0.1,0-0.3,0-0.8-0.1c0-0.2,0-0.4,0-0.5c0.8-0.2,1.4-0.3,1.6-0.3c0.3-0.1,0.6-0.2,0.9-0.3c0.1,0,0.1,0.1,0.2,0.1
			c0,0.4,0,0.7,0,1.1c0.4-0.3,0.8-0.7,1.2-1c0.2-0.1,0.3-0.1,0.4-0.1c0.1,0,0.2,0,0.4,0c0.5,0,0.9,0,1.1,0.1
			c0.2,0.1,0.5,0.3,0.6,0.5c0.2,0.2,0.3,0.4,0.4,0.6c0.1,0.2,0.1,0.6,0.1,1c0,0.5,0,0.9,0,1c0,0.1,0,0.1,0,0.2c0,0.2,0,0.5,0,0.7
			c0,0.8,0,1.3,0.1,1.4c0,0.2,0.1,0.3,0.1,0.4c0.1,0.1,0.2,0.1,0.4,0.1C-2478.6,5.1-2478.5,5.1-2478.3,5.1z"/>
		<path class="st7" d="M-2472.2,4.6c-0.1,0.2-0.2,0.4-0.3,0.7c-0.4,0.2-0.7,0.3-1,0.4c-0.2,0.1-0.5,0.1-0.9,0.1
			c-0.7,0-1.4-0.1-1.8-0.4c-0.5-0.3-0.8-0.7-1.1-1.2c-0.2-0.4-0.3-0.9-0.3-1.5c0-0.5,0-0.9,0.1-1.2c0.1-0.3,0.2-0.6,0.4-0.8
			c0.1-0.2,0.3-0.3,0.5-0.4c0.3-0.2,0.7-0.5,1-0.7c0.4-0.2,0.6-0.4,0.7-0.4c0.2-0.1,0.5-0.1,0.9-0.1c0.3,0,0.6,0,0.8,0.1
			c0.3,0,0.5,0.1,0.7,0.2c0,0,0,0.1,0.1,0.1c-0.1,0.4-0.1,0.7-0.2,1.1c0,0.1,0,0.4-0.1,0.9c-0.2,0-0.4,0-0.5,0
			c0-0.4-0.1-0.7-0.1-0.9c-0.1-0.2-0.2-0.3-0.5-0.4c-0.2-0.1-0.4-0.1-0.7-0.1c-0.3,0-0.6,0.1-0.8,0.2c-0.2,0.1-0.4,0.3-0.4,0.6
			c-0.1,0.3-0.1,0.7-0.1,1.1c0,0.6,0.1,1.1,0.3,1.5c0.2,0.5,0.5,0.8,0.8,1c0.3,0.2,0.7,0.3,1.2,0.3c0.2,0,0.4,0,0.6-0.1
			c0.2,0,0.4-0.1,0.5-0.2C-2472.2,4.5-2472.2,4.6-2472.2,4.6z"/>
		<path class="st7" d="M-2465.5,4.4c-0.1,0.2-0.2,0.4-0.3,0.7c-0.4,0.2-0.8,0.4-1.2,0.5c-0.3,0.1-0.6,0.1-1,0.1
			c-0.5,0-0.8,0-1.2-0.1c-0.3-0.1-0.6-0.2-0.9-0.4c-0.2-0.2-0.5-0.4-0.6-0.7c-0.2-0.3-0.3-0.6-0.4-0.9c-0.1-0.3-0.1-0.7-0.1-1.1
			c0-0.6,0.1-1.1,0.2-1.6c0.1-0.3,0.2-0.6,0.4-0.7c0.1-0.1,0.3-0.3,0.7-0.5c0.4-0.3,0.7-0.4,0.8-0.5c0.3-0.1,0.7-0.2,1.1-0.2
			c0.6,0,1.1,0.1,1.5,0.4c0.4,0.3,0.7,0.6,0.8,1c0.2,0.4,0.2,0.9,0.3,1.4c0,0.1,0,0.3,0,0.4c-0.1,0-0.3,0.1-0.5,0.1
			c-0.3,0.1-0.5,0.1-0.6,0.1c-0.3,0-0.8,0-1.4,0.1c-0.6,0-0.9,0-0.9,0c-0.1,0-0.1,0-0.2,0c-0.2,0-0.3,0-0.5,0c0,0.7,0.3,1.3,0.7,1.7
			c0.4,0.4,0.9,0.6,1.5,0.6c0.3,0,0.5,0,0.7-0.1c0.2-0.1,0.5-0.2,0.9-0.4C-2465.6,4.3-2465.5,4.4-2465.5,4.4z M-2467.1,1.6
			c0-0.7-0.1-1.2-0.3-1.5c-0.2-0.3-0.5-0.4-0.9-0.4c-0.4,0-0.7,0.2-0.9,0.5c-0.2,0.3-0.3,0.8-0.3,1.5c0.3,0,0.7,0.1,1.4,0.1
			C-2467.7,1.7-2467.4,1.6-2467.1,1.6z"/>
		<path class="st7" d="M-2460.8,5.5c0-0.2,0-0.3,0-0.5c0.5,0,0.9-0.1,1-0.2c0.1-0.1,0.1-0.1,0.1-0.3c0-0.2,0.1-1,0.1-2.2
			c0-0.7,0-1.4,0-2.1c-0.1,0-0.1,0-0.2,0c-0.3,0-0.6,0-0.9,0c0-0.1,0-0.2,0-0.3c0.6-0.3,0.9-0.5,0.9-0.5c0.1,0,0.1-0.1,0.1-0.2
			c0-0.2,0-0.5,0-0.8c0-0.3,0.1-0.5,0.1-0.7c0-0.1,0.1-0.3,0.2-0.4c0.2-0.2,0.5-0.5,1-1c0.3-0.2,0.6-0.5,0.8-0.7
			c0.1-0.1,0.3-0.2,0.5-0.3c0.2-0.1,0.4-0.1,0.6-0.1c0.2,0,0.5,0,0.7,0.1c-0.1,0.5-0.1,0.9-0.1,1.4c-0.1,0-0.2,0.1-0.3,0.1
			c-0.1-0.1-0.3-0.2-0.4-0.3c-0.1,0-0.3-0.1-0.5-0.1c-0.3,0-0.5,0.1-0.6,0.1c-0.1,0.1-0.2,0.2-0.2,0.3c-0.1,0.2-0.1,0.6-0.1,1.4
			c0,0.3,0,0.6,0,0.9c0.3,0,0.5,0,0.8,0c0.4,0,0.7,0,1,0c0,0,0.1,0,0.1,0.1c0,0.1,0,0.2-0.1,0.2c0,0.2-0.1,0.4-0.1,0.6
			c-0.2,0-0.5,0-0.7,0c-0.2,0-0.3,0-0.3,0c-0.1,0-0.3,0-0.7,0c0,0.7,0,1.5,0,2.2c0,0.5,0,1,0,1.4c0,0.4,0,0.7,0.1,0.8
			c0,0.1,0.1,0.1,0.1,0.2c0,0,0.1,0.1,0.2,0.1c0,0,0.3,0,0.9,0.1c0,0.2,0,0.3,0,0.5c-0.8,0-1.6,0-2.3,0
			C-2459.2,5.4-2459.9,5.4-2460.8,5.5z"/>
		<path class="st7" d="M-2455.3,2.2c0-0.8,0.1-1.4,0.4-1.9c0.3-0.5,0.7-0.9,1.2-1.1c0.5-0.3,1.2-0.4,1.9-0.4c1.1,0,1.9,0.3,2.4,0.8
			c0.5,0.6,0.8,1.4,0.8,2.4c0,0.6-0.1,1.1-0.2,1.6c-0.2,0.5-0.4,0.8-0.6,1.1c-0.3,0.3-0.6,0.5-0.9,0.6c-0.5,0.2-1.1,0.4-1.7,0.3
			c-1,0-1.8-0.3-2.4-0.9C-2455,4.2-2455.3,3.4-2455.3,2.2z M-2453.4,1.9c0,1.2,0.2,2.1,0.5,2.6c0.2,0.3,0.6,0.5,1,0.5
			c0.4,0,0.7-0.1,0.9-0.4c0.3-0.3,0.4-1,0.4-2c0-0.7-0.1-1.3-0.2-1.8c-0.1-0.5-0.3-0.8-0.5-1c-0.2-0.2-0.5-0.3-0.8-0.3
			c-0.3,0-0.5,0.1-0.7,0.2c-0.2,0.1-0.4,0.4-0.5,0.7C-2453.3,0.8-2453.4,1.3-2453.4,1.9z"/>
		<path class="st7" d="M-2443.7,5c0,0.2,0,0.4,0,0.5c-0.5,0-1.1,0-1.7,0c-0.7,0-1.4,0-2.2,0c0-0.2,0-0.4,0-0.5c0.4,0,0.6,0,0.7-0.1
			c0.1,0,0.1-0.1,0.1-0.1c0-0.1,0.1-0.2,0.1-0.5c0-0.2,0-0.4,0-0.6c0-0.1,0-0.3,0-0.6c0-0.3,0-0.6,0-0.9c0-0.4,0-0.9,0-1.5
			c0-0.3,0-0.5-0.1-0.5c0,0-0.1-0.1-0.1-0.1c-0.1,0-0.3-0.1-0.8-0.1c0-0.2,0-0.4,0-0.5c0.8-0.1,1.4-0.2,1.7-0.3
			c0.3-0.1,0.6-0.2,0.9-0.3c0.1,0,0.1,0.1,0.2,0.1c0,0.5,0,0.9,0,1.4c0.3-0.3,0.5-0.6,0.7-0.8c0.2-0.3,0.4-0.5,0.5-0.5
			c0.2-0.1,0.4-0.2,0.7-0.2c0.2,0,0.3,0,0.5,0.1c0,0.3,0,0.6-0.1,1c0,0.5,0,0.8,0,0.9c-0.1,0-0.2,0.1-0.3,0.1
			c-0.1-0.2-0.2-0.3-0.3-0.3c-0.2-0.1-0.4-0.1-0.6-0.1c-0.3,0-0.5,0.1-0.7,0.2c-0.2,0.2-0.3,0.3-0.4,0.5c0,0.1,0,0.5,0,1.2
			c0,0.2,0,0.5,0,0.7c0,0.3,0,0.6,0,0.9c0,0.4,0,0.6,0,0.6c0,0.1,0.1,0.1,0.1,0.2c0.1,0,0.2,0.1,0.5,0.1
			C-2444.1,5-2443.9,5-2443.7,5z"/>
		<path class="st7" d="M-2438.2,5.6c0-0.1,0-0.2,0-0.4c0.1,0,0.3-0.1,0.5-0.3c0.1-0.1,0.2-0.1,0.2-0.1c0,0,0,0,0-0.1
			c0-0.1,0-0.5,0.1-1.2c0-0.7,0-1.5,0.1-2.5c0-1.4,0-2.3,0-2.7c0-0.9,0-1.3-0.1-1.5c0-0.1-0.1-0.1-0.1-0.1c-0.1-0.1-0.5-0.1-1.1-0.2
			c0-0.2,0-0.4,0-0.6c0.6,0,1.2,0.1,2,0.1c0.8,0,1.6,0,2.4,0c0,0.2,0,0.4,0,0.6c-0.5,0-0.8,0.1-1,0.1c-0.1,0-0.1,0.1-0.1,0.1
			c0,0.1,0,0.3-0.1,0.8c0,0.5,0,1.1-0.1,1.9c0,0.1,0,0.7,0,2c0,0.7,0,1.3,0,1.9c0,0.6,0,1,0,1.2c0.6,0,1.1,0.1,1.3,0.1
			c0.7,0,1.3,0,1.8-0.1c0.2,0,0.3-0.1,0.3-0.1s0.1-0.1,0.1-0.3c0.1-0.3,0.2-0.7,0.3-1.2c0.2,0,0.4,0,0.6,0c0,0.1,0,0.2,0,0.2
			c-0.1,0.5-0.1,0.9-0.2,1.4c0,0.4-0.1,0.7-0.1,0.8c-0.1,0-0.3,0.1-0.4,0.1c-0.3,0-0.7,0-1.3,0c-0.1,0-0.6,0-1.6-0.1
			c-0.8,0-1.3,0-1.6-0.1C-2436.6,5.5-2437.3,5.6-2438.2,5.6z"/>
		<path class="st7" d="M-2423.9,5.3c0,0.2,0,0.3,0,0.5c-0.5,0-1-0.1-1.4-0.1c-0.4,0-0.8,0-1.1,0c0,0,0-0.1-0.1-0.1
			c0-0.3,0.1-0.6,0.1-0.9c-0.2,0.1-0.7,0.5-1.5,1.1c-0.2,0-0.4,0.1-0.6,0.1c-0.5,0-0.9-0.2-1.2-0.5c-0.3-0.3-0.4-0.7-0.4-1.3
			c0-0.4,0.1-0.7,0.2-0.9c0.1-0.2,0.3-0.4,0.4-0.5c0.1-0.1,0.4-0.2,0.7-0.3c0.7-0.2,1.5-0.4,2.4-0.6c0-0.5-0.1-1-0.3-1.2
			c-0.2-0.3-0.6-0.4-1.1-0.4c-0.2,0-0.4,0-0.6,0.1c-0.1,0-0.2,0.1-0.3,0.1c-0.1,0.2-0.2,0.5-0.3,0.7c-0.2,0-0.3-0.1-0.5-0.1
			c0-0.3,0-0.6,0.1-0.9c0.3-0.2,0.7-0.4,1-0.6c0.3-0.2,0.5-0.3,0.7-0.3c0.2,0,0.4-0.1,0.7-0.1c0.5,0,0.9,0.1,1.2,0.2
			c0.3,0.2,0.6,0.3,0.7,0.5c0.1,0.2,0.3,0.4,0.3,0.6c0.1,0.2,0.1,0.5,0.1,0.8c0,0.1,0,0.5-0.1,1.1c0,0.4,0,0.7,0,1
			c0,0.8,0,1.3,0,1.5c0,0.1,0.1,0.1,0.1,0.2C-2424.5,5.3-2424.2,5.3-2423.9,5.3z M-2426.3,2.5c-0.4,0.1-0.7,0.2-1.1,0.3
			c-0.3,0.1-0.6,0.2-0.7,0.4c-0.1,0.2-0.2,0.4-0.2,0.6c0,0.3,0.1,0.5,0.2,0.7c0.1,0.2,0.3,0.2,0.6,0.3c0.2,0,0.4-0.1,0.6-0.2
			c0.2-0.1,0.4-0.3,0.5-0.4C-2426.3,3.6-2426.3,3-2426.3,2.5z"/>
		<path class="st7" d="M-2423.1,0.6c0-0.1,0-0.2,0-0.3c0.2-0.1,0.4-0.2,0.6-0.4c0.1-0.1,0.2-0.1,0.3-0.2c0-0.3,0-0.6,0-0.9
			c0-0.3,0-0.7,0-1.2c0.4-0.1,0.7-0.2,0.9-0.3c0,0,0.3-0.1,0.9-0.4c0.1,0,0.1,0.1,0.2,0.1c0,0.2-0.1,0.5-0.1,0.7
			c0,0.3,0,0.5-0.1,0.8c0,0.4-0.1,0.8-0.1,1.2c0.1,0,0.2,0,0.2,0c0.6,0,1.1,0,1.4,0c0,0.3-0.1,0.6-0.1,0.9c-0.1,0-0.1,0-0.2,0
			c-0.2,0-0.4,0-0.7,0c-0.2,0-0.4,0-0.7,0c0,0.8,0,1.5-0.1,2.3c0,0.7,0,1.1,0,1.2c0,0.2,0.1,0.4,0.2,0.5c0.1,0.1,0.3,0.2,0.6,0.2
			c0.2,0,0.3,0,0.4,0c0.1,0,0.2,0,0.4-0.1c0,0.1,0.1,0.2,0.1,0.3c-0.1,0.1-0.2,0.2-0.3,0.2c-0.2,0.2-0.4,0.4-0.5,0.5
			c-0.2,0.1-0.3,0.1-0.5,0.1c-0.1,0-0.3,0-0.4,0c-0.5,0-0.9-0.2-1.2-0.4c-0.3-0.3-0.4-0.6-0.4-1c0-0.8,0.1-1.5,0.1-2.3
			c0-0.6,0-1.1,0-1.7c-0.1,0-0.1,0-0.2,0C-2422.6,0.6-2422.9,0.6-2423.1,0.6z"/>
		<path class="st7" d="M-2418.4,6c0-0.2,0-0.3,0-0.5c0.5,0,0.8-0.1,0.9-0.1c0.1,0,0.1-0.1,0.1-0.2c0.1-0.2,0.1-0.9,0.1-1.9
			c0-1.4,0-2.2,0-2.4c0-0.1,0-0.2-0.1-0.2c-0.1-0.1-0.4-0.1-0.9-0.1c0-0.2,0-0.3,0-0.5c0.7-0.1,1.2-0.1,1.6-0.2
			c0.4-0.1,0.7-0.2,1.2-0.3c0.1,0,0.1,0.1,0.2,0.1c-0.1,0.7-0.1,1.4-0.1,2c0,0.8,0,1.5-0.1,2.3c0,0.8,0,1.3,0,1.4
			c0,0.1,0.1,0.1,0.1,0.2c0.1,0.1,0.4,0.1,0.9,0.1c0,0.2,0,0.4,0,0.5c-0.6,0-1.4-0.1-2.1-0.1C-2417.3,6-2417.9,6-2418.4,6z
			 M-2416.3-3.9c0.3,0,0.5,0.1,0.7,0.3c0.2,0.2,0.3,0.5,0.3,0.7c0,0.3-0.1,0.5-0.3,0.7c-0.2,0.2-0.5,0.3-0.8,0.3
			c-0.3,0-0.5-0.1-0.7-0.3c-0.2-0.2-0.3-0.5-0.3-0.8c0-0.3,0.1-0.5,0.3-0.7C-2416.8-3.8-2416.6-3.9-2416.3-3.9z"/>
		<path class="st7" d="M-2405.9,5.8c0,0.2,0,0.3,0,0.5c-0.6-0.1-1.1-0.1-1.5-0.1c-0.5,0-0.8,0-1.2,0c0,0-0.1-0.1-0.1-0.1
			c0-0.1,0.1-0.5,0.1-1.2c0-0.4,0-0.7,0.1-1.1c0-0.2,0-0.4,0-0.5c0-0.8,0-1.3,0-1.6c-0.1-0.3-0.2-0.5-0.4-0.6
			c-0.2-0.2-0.4-0.2-0.8-0.3c-0.3,0-0.6,0.1-0.8,0.2c-0.2,0.1-0.4,0.3-0.4,0.4c0,0.1-0.1,0.5-0.1,1.1c0,0.4,0,0.8,0,1.1
			c0,0.3,0,0.7,0,1.2c0,0.2,0,0.4,0,0.4c0,0.1,0,0.1,0.1,0.1c0.1,0,0.2,0.1,0.3,0.1c0.1,0,0.2,0,0.6,0.1c0,0.2,0,0.4,0,0.5
			c-0.5,0-1.1-0.1-1.8-0.1c-0.8,0-1.5,0-1.9,0c0-0.2,0-0.4,0-0.5c0.4,0,0.6,0,0.7-0.1c0.1,0,0.1-0.1,0.1-0.1c0-0.1,0.1-0.2,0.1-0.5
			c0-0.2,0-0.4,0-0.6c0-0.1,0-0.3,0-0.6c0-0.3,0-0.6,0-0.9c0-0.4,0-0.9,0-1.5c0-0.3,0-0.5,0-0.5c0,0-0.1-0.1-0.1-0.1
			c-0.1,0-0.3-0.1-0.8-0.1c0-0.2,0-0.4,0-0.5c0.8-0.1,1.4-0.2,1.7-0.3c0.3-0.1,0.6-0.2,0.9-0.3c0.1,0,0.1,0.1,0.2,0.1
			c0,0.4,0,0.7,0,1.1c0.4-0.3,0.9-0.6,1.3-1c0.2-0.1,0.3-0.1,0.4-0.1c0.1,0,0.2,0,0.4,0c0.5,0,0.9,0.1,1.1,0.2
			c0.2,0.1,0.4,0.3,0.6,0.5c0.2,0.2,0.3,0.4,0.3,0.6c0.1,0.2,0.1,0.6,0.1,1c0,0.5,0,0.9,0,1c0,0.1,0,0.1,0,0.2c0,0.2,0,0.5,0,0.7
			c0,0.8,0,1.3,0,1.4c0,0.2,0.1,0.3,0.1,0.4c0.1,0.1,0.2,0.1,0.4,0.1C-2406.2,5.8-2406.1,5.8-2405.9,5.8z"/>
		<path class="st7" d="M-2405,3.1c0-0.8,0.2-1.4,0.5-1.9c0.3-0.5,0.7-0.9,1.2-1.1c0.5-0.2,1.2-0.3,1.9-0.3c1.1,0,1.9,0.3,2.4,0.9
			c0.5,0.6,0.8,1.4,0.7,2.5c0,0.6-0.1,1.1-0.3,1.6c-0.2,0.4-0.4,0.8-0.7,1.1c-0.3,0.3-0.6,0.5-0.9,0.6c-0.5,0.2-1.1,0.3-1.7,0.3
			c-1,0-1.8-0.4-2.4-1C-2404.7,5.2-2405,4.3-2405,3.1z M-2403,2.9c0,1.2,0.1,2.1,0.4,2.6c0.2,0.4,0.6,0.5,1,0.5
			c0.4,0,0.7-0.1,0.9-0.4c0.3-0.3,0.5-1,0.5-2c0-0.7,0-1.3-0.1-1.8c-0.1-0.5-0.3-0.9-0.5-1.1c-0.2-0.2-0.5-0.3-0.8-0.3
			c-0.3,0-0.5,0.1-0.7,0.2c-0.2,0.1-0.4,0.4-0.5,0.7C-2402.9,1.7-2403,2.2-2403,2.9z"/>
		<path class="st7" d="M-2387,0c-0.2,0-0.4,0-0.6,0c0-0.5,0-0.9,0-1.1c-0.1-0.2-0.4-0.4-0.7-0.6c-0.3-0.2-0.7-0.3-1.2-0.3
			c-0.6,0-1.1,0.1-1.5,0.4c-0.4,0.3-0.5,0.7-0.6,1.1c0,0.3,0,0.5,0.1,0.7c0.1,0.2,0.2,0.3,0.4,0.5c0.2,0.1,0.4,0.2,0.8,0.3
			c0.3,0.1,0.6,0.2,1.1,0.3c0.5,0.1,0.8,0.2,0.9,0.2c0.4,0.1,0.7,0.2,0.9,0.4c0.2,0.1,0.4,0.3,0.5,0.5c0.1,0.2,0.2,0.4,0.3,0.7
			c0.1,0.3,0.1,0.6,0.1,0.9c0,0.6-0.2,1.1-0.4,1.5c-0.2,0.3-0.5,0.6-0.8,0.9c-0.3,0.3-0.7,0.5-1,0.6c-0.6,0.2-1.2,0.3-2,0.2
			c-0.6,0-1.1-0.1-1.5-0.2c-0.4-0.1-0.9-0.3-1.4-0.6c0.2-0.5,0.3-1.3,0.3-2.4c0.2,0,0.4,0,0.6,0c0,0.3,0,0.7,0,1.2
			c0.2,0.3,0.4,0.6,0.9,0.8c0.4,0.2,0.9,0.4,1.4,0.4c0.4,0,0.8,0,1.2-0.2c0.3-0.1,0.6-0.3,0.8-0.6c0.2-0.3,0.3-0.6,0.3-0.9
			c0-0.3,0-0.5-0.1-0.7c-0.1-0.2-0.3-0.4-0.5-0.5c-0.2-0.1-0.6-0.3-1.2-0.4c-0.8-0.2-1.4-0.4-1.6-0.4c-0.4-0.1-0.7-0.3-0.9-0.6
			c-0.2-0.2-0.4-0.5-0.5-0.8c-0.1-0.3-0.2-0.7-0.1-1c0-0.5,0.1-1,0.4-1.4c0.2-0.4,0.5-0.7,0.9-1c0.4-0.2,0.8-0.4,1.2-0.5
			c0.4-0.1,0.9-0.1,1.4-0.1c0.5,0,1,0.1,1.4,0.2c0.5,0.1,0.8,0.3,1.2,0.4c0,0.1,0,0.1,0,0.2c-0.1,0.3-0.1,0.6-0.2,0.9
			C-2386.9-0.8-2387-0.4-2387,0z"/>
		<path class="st7" d="M-2385.2,2c0-0.1,0-0.2,0-0.3c0.2-0.1,0.4-0.2,0.6-0.4c0.1-0.1,0.2-0.1,0.3-0.2c0-0.3,0-0.6,0-0.9
			c0-0.3,0-0.7,0-1.2c0.5-0.1,0.7-0.2,0.9-0.3c0,0,0.3-0.1,0.9-0.4c0.1,0,0.1,0.1,0.2,0.1c0,0.2-0.1,0.5-0.1,0.7
			c0,0.3-0.1,0.5-0.1,0.8c0,0.4-0.1,0.8-0.1,1.2c0.1,0,0.2,0,0.2,0c0.6,0,1.1,0,1.4,0c-0.1,0.3-0.1,0.6-0.2,0.9c-0.1,0-0.1,0-0.2,0
			c-0.2,0-0.4,0-0.7,0c-0.2,0-0.4,0-0.7,0c0,0.8-0.1,1.5-0.1,2.3c0,0.7,0,1.1,0,1.2c0,0.2,0.1,0.4,0.2,0.5c0.1,0.1,0.3,0.2,0.6,0.2
			c0.2,0,0.3,0,0.4,0c0.1,0,0.2,0,0.4,0c0,0.1,0.1,0.2,0.1,0.3c-0.1,0.1-0.2,0.2-0.3,0.2c-0.2,0.2-0.4,0.4-0.6,0.5
			c-0.2,0.1-0.3,0.1-0.5,0.1c-0.1,0-0.3,0-0.4,0c-0.5,0-0.9-0.2-1.2-0.5c-0.3-0.3-0.4-0.6-0.4-1c0-0.8,0.1-1.5,0.1-2.3
			c0-0.6,0.1-1.1,0.1-1.7c-0.1,0-0.1,0-0.2,0C-2384.8,2-2385,2-2385.2,2z"/>
		<path class="st7" d="M-2380.5,1.9c0-0.2,0-0.3,0-0.5c0.4,0,0.8,0,1.2-0.1c0.4-0.1,0.9-0.2,1.6-0.4c0,0,0.1,0.1,0.1,0.1
			c-0.1,0.9-0.2,1.7-0.2,2.5c0,0.3,0,0.5,0,0.8c0,0.7,0,1.1,0,1.3c0,0.3,0.1,0.5,0.3,0.7c0.2,0.2,0.4,0.2,0.7,0.3
			c0.3,0,0.6-0.1,0.8-0.2c0.2-0.2,0.4-0.3,0.5-0.5c0.1-0.1,0.1-0.4,0.1-0.7c0-0.4,0-0.8,0.1-1.2c0-0.3,0-0.6,0-1c0-0.3,0-0.5,0-0.6
			c0,0-0.1-0.1-0.1-0.1c-0.1,0-0.3-0.1-0.8-0.1c0-0.2,0-0.3,0-0.5c0.7-0.1,1.2-0.1,1.5-0.1c0.3,0,0.7-0.1,1.3-0.3
			c0,0,0.1,0.1,0.1,0.1c0,0.4-0.1,0.8-0.1,1.3c-0.1,0.9-0.1,1.4-0.1,1.5c0,0.5-0.1,0.9-0.1,1.4c0,0.8-0.1,1.3,0,1.5
			c0,0.1,0,0.1,0.1,0.2c0.1,0.1,0.4,0.1,0.8,0.1c0,0.2,0,0.4,0,0.5c-0.5,0-0.9-0.1-1.4-0.1c-0.4,0-0.9,0-1.3,0c0,0,0,0,0-0.1
			c0-0.2,0-0.3,0.1-0.5c0-0.1,0-0.3,0-0.5c-0.2,0.1-0.3,0.3-0.5,0.4c-0.3,0.2-0.5,0.5-0.8,0.7c-0.3,0.1-0.6,0.1-1,0.1
			c-0.6,0-1.1-0.2-1.4-0.6c-0.3-0.4-0.5-0.8-0.5-1.4c0-0.1,0-0.3,0.1-0.8c0-0.2,0-0.5,0.1-0.9c0-0.5,0-1,0.1-1.4c0-0.3,0-0.4,0-0.5
			c0-0.1-0.1-0.1-0.2-0.2C-2379.8,2-2380.1,2-2380.5,1.9z"/>
		<path class="st7" d="M-2364.4,7.8c0,0.2,0,0.3,0,0.5c-0.5,0-1-0.1-1.4-0.1c-0.4,0-0.8,0-1.2-0.1c0,0,0,0-0.1-0.1
			c0-0.2,0-0.4,0.1-0.5c0-0.2,0-0.4,0-0.6c-0.3,0.2-0.7,0.5-1.1,0.8c-0.2,0.1-0.3,0.2-0.5,0.3c-0.2,0.1-0.4,0.1-0.7,0.1
			c-0.8,0-1.4-0.4-1.8-0.9c-0.5-0.6-0.7-1.4-0.6-2.3c0-0.5,0.1-1,0.3-1.4c0.1-0.3,0.3-0.6,0.4-0.7c0.1-0.1,0.4-0.3,1-0.7
			c0.5-0.3,0.9-0.5,1.1-0.6c0.2-0.1,0.5-0.1,0.9-0.1c0.2,0,0.4,0,0.5,0.1c0.1,0,0.4,0.1,0.7,0.3c0-0.3,0.1-0.5,0.1-0.8
			c0-0.3,0-0.8,0-1.3c0-0.2,0-0.4,0-0.4c0,0-0.1-0.1-0.1-0.1c-0.1,0-0.3,0-0.8-0.1c0-0.2,0-0.3,0-0.5c1,0,1.9-0.2,2.8-0.4
			c0.1,0,0.1,0.1,0.2,0.1c-0.1,1.2-0.2,1.9-0.2,2.1c-0.1,1.2-0.2,2.8-0.3,5c0,0.2,0,0.4,0,0.6c0,0.3,0,0.6,0,1c0,0.3,0,0.4,0,0.5
			c0,0.1,0.1,0.1,0.1,0.1C-2365,7.7-2364.8,7.8-2364.4,7.8z M-2366.8,3.3c-0.2-0.3-0.4-0.5-0.6-0.6c-0.3-0.2-0.6-0.3-1-0.3
			c-0.3,0-0.6,0-0.8,0.2c-0.2,0.1-0.4,0.4-0.5,0.7c-0.1,0.3-0.2,0.7-0.2,1.2c0,0.8,0.1,1.5,0.4,1.9c0.2,0.3,0.6,0.5,1,0.6
			c0.3,0,0.6-0.1,0.9-0.2c0.3-0.2,0.4-0.4,0.5-0.5c0.1-0.2,0.1-0.7,0.2-1.6C-2366.8,4.1-2366.8,3.7-2366.8,3.3z"/>
		<path class="st7" d="M-2357.6,7.7c-0.1,0.2-0.2,0.4-0.3,0.6c-0.4,0.2-0.8,0.3-1.2,0.4c-0.3,0.1-0.6,0.1-1,0.1
			c-0.5,0-0.8-0.1-1.2-0.2c-0.3-0.1-0.6-0.3-0.9-0.5c-0.2-0.2-0.4-0.4-0.6-0.7c-0.2-0.3-0.3-0.6-0.3-0.9c-0.1-0.4-0.1-0.7-0.1-1.1
			c0-0.6,0.2-1.1,0.3-1.6c0.1-0.3,0.3-0.5,0.4-0.7c0.1-0.1,0.3-0.2,0.7-0.5c0.4-0.2,0.7-0.4,0.9-0.4c0.3-0.1,0.7-0.2,1.1-0.1
			c0.6,0,1.1,0.2,1.5,0.5c0.4,0.3,0.6,0.6,0.8,1c0.1,0.4,0.2,0.9,0.1,1.5c0,0.1,0,0.2,0,0.4c-0.1,0-0.3,0.1-0.5,0.1
			c-0.3,0-0.5,0.1-0.6,0.1c-0.3,0-0.8,0-1.4,0c-0.6,0-0.9,0-0.9,0c-0.1,0-0.1,0-0.2,0c-0.2,0-0.3,0-0.5,0c0,0.7,0.2,1.3,0.6,1.7
			c0.4,0.4,0.9,0.7,1.5,0.7c0.3,0,0.5,0,0.7,0c0.2,0,0.5-0.1,0.9-0.3C-2357.7,7.6-2357.7,7.6-2357.6,7.7z M-2359.1,4.8
			c0.1-0.7,0-1.2-0.2-1.5c-0.2-0.3-0.5-0.5-0.8-0.5c-0.4,0-0.7,0.1-0.9,0.4c-0.3,0.3-0.4,0.8-0.4,1.5c0.3,0.1,0.7,0.1,1.3,0.1
			C-2359.7,4.8-2359.4,4.8-2359.1,4.8z"/>
		<path class="st7" d="M-2348.8,8.9c0,0.2,0,0.3,0,0.5c-0.6-0.1-1.1-0.1-1.5-0.2c-0.5,0-0.8,0-1.2,0c0,0-0.1-0.1-0.1-0.1
			c0-0.1,0.1-0.5,0.2-1.2c0-0.4,0.1-0.7,0.1-1.1c0-0.2,0-0.4,0-0.5c0.1-0.8,0.1-1.3,0-1.6c0-0.3-0.2-0.5-0.3-0.6
			c-0.2-0.2-0.4-0.3-0.8-0.3c-0.3,0-0.6,0-0.8,0.2c-0.2,0.1-0.4,0.3-0.4,0.4c0,0.1-0.1,0.5-0.1,1.1c0,0.4-0.1,0.8-0.1,1.1
			c0,0.3,0,0.7,0,1.2c0,0.2,0,0.4,0,0.4c0,0.1,0,0.1,0.1,0.1c0.1,0,0.2,0.1,0.3,0.1c0.1,0,0.2,0,0.6,0.1c0,0.2,0,0.4,0,0.5
			c-0.5-0.1-1.1-0.1-1.8-0.2c-0.8-0.1-1.5-0.1-1.9-0.1c0-0.2,0-0.4,0-0.5c0.4,0,0.6,0,0.7,0c0.1,0,0.1-0.1,0.2-0.1
			c0.1-0.1,0.1-0.2,0.1-0.5c0-0.2,0-0.4,0.1-0.6c0-0.1,0-0.3,0-0.6c0-0.3,0-0.6,0.1-0.9c0-0.4,0-0.9,0.1-1.5c0-0.3,0-0.5,0-0.5
			c0,0-0.1-0.1-0.1-0.1c-0.1,0-0.3-0.1-0.8-0.1c0-0.2,0-0.4,0-0.5c0.8-0.1,1.4-0.2,1.7-0.2c0.3-0.1,0.6-0.1,0.9-0.3
			c0.1,0,0.1,0.1,0.2,0.1c0,0.4-0.1,0.7-0.1,1.1c0.4-0.3,0.9-0.6,1.3-0.9c0.2,0,0.3-0.1,0.4-0.1c0.1,0,0.2,0,0.4,0
			c0.5,0,0.9,0.1,1.1,0.2c0.2,0.1,0.4,0.3,0.6,0.5c0.2,0.2,0.3,0.4,0.3,0.6c0.1,0.2,0.1,0.6,0,1c0,0.5-0.1,0.9-0.1,1
			c0,0.1,0,0.1,0,0.2c0,0.2,0,0.5,0,0.7c0,0.8-0.1,1.2-0.1,1.4c0,0.2,0,0.3,0.1,0.4c0.1,0.1,0.2,0.1,0.4,0.1
			C-2349.1,8.8-2348.9,8.8-2348.8,8.9z"/>
		<path class="st7" d="M-2347.8,4.2c0-0.1,0-0.2,0-0.3c0.2-0.1,0.4-0.2,0.6-0.3c0.1-0.1,0.2-0.1,0.3-0.2c0-0.3,0-0.6,0.1-0.9
			c0-0.3,0-0.7,0-1.2c0.5-0.1,0.8-0.2,0.9-0.2c0,0,0.3-0.1,0.9-0.3c0.1,0,0.1,0.1,0.2,0.1c0,0.2-0.1,0.5-0.1,0.7
			c0,0.3-0.1,0.5-0.1,0.8c0,0.4-0.1,0.8-0.1,1.2c0.1,0,0.2,0,0.2,0c0.6,0,1.1,0.1,1.4,0c-0.1,0.3-0.1,0.6-0.2,0.9
			c-0.1,0-0.1,0-0.2,0c-0.2,0-0.4,0-0.7-0.1c-0.2,0-0.4,0-0.7,0c-0.1,0.8-0.1,1.5-0.2,2.3c-0.1,0.7-0.1,1.1-0.1,1.2
			c0,0.2,0.1,0.4,0.2,0.5c0.1,0.1,0.3,0.2,0.6,0.2c0.2,0,0.3,0,0.4,0c0.1,0,0.2,0,0.4,0c0,0.1,0.1,0.2,0.1,0.3
			c-0.1,0.1-0.2,0.2-0.3,0.2c-0.2,0.2-0.4,0.4-0.6,0.5c-0.2,0.1-0.3,0.1-0.5,0.1c-0.1,0-0.3,0-0.4,0c-0.5,0-0.9-0.2-1.2-0.5
			c-0.3-0.3-0.4-0.6-0.4-1c0.1-0.8,0.1-1.5,0.2-2.3c0-0.6,0.1-1.1,0.1-1.7c-0.1,0-0.1,0-0.2,0C-2347.4,4.2-2347.6,4.2-2347.8,4.2z"
			/>
		<path class="st7" d="M-2343,7.6c0.2,0,0.4,0,0.5,0c0,0.5,0,0.8,0,1c0.2,0.3,0.4,0.5,0.6,0.6c0.2,0.1,0.5,0.2,0.8,0.2
			c0.4,0,0.8,0,1-0.2c0.2-0.2,0.4-0.4,0.4-0.7c0-0.2,0-0.4-0.1-0.5c-0.1-0.1-0.2-0.3-0.4-0.4c-0.2-0.1-0.5-0.2-1-0.3
			c-0.5-0.1-0.9-0.3-1.1-0.4c-0.2-0.2-0.4-0.4-0.6-0.6c-0.1-0.3-0.2-0.6-0.1-0.9c0-0.6,0.3-1.1,0.8-1.5c0.5-0.4,1.2-0.5,2.1-0.5
			c0.4,0,0.7,0.1,1,0.2c0.3,0.1,0.6,0.2,0.8,0.4c0,0,0,0,0,0.1c0,0.2-0.1,0.3-0.1,0.5c0,0.2-0.1,0.5-0.2,1.2c-0.2,0-0.4,0-0.5,0
			c0-0.1,0-0.1,0-0.3c0-0.2,0-0.4,0-0.6c-0.1-0.2-0.3-0.3-0.5-0.5c-0.2-0.1-0.4-0.2-0.7-0.2c-0.4,0-0.7,0-0.9,0.2
			c-0.2,0.2-0.3,0.4-0.4,0.6c0,0.2,0,0.4,0.1,0.6c0.1,0.1,0.2,0.2,0.4,0.3c0.2,0.1,0.5,0.2,1,0.3c0.5,0.1,0.8,0.2,1,0.3
			c0.2,0.1,0.4,0.3,0.6,0.4c0.1,0.2,0.2,0.3,0.3,0.6c0.1,0.2,0.1,0.5,0.1,0.7c-0.1,0.7-0.4,1.2-0.9,1.7c-0.6,0.4-1.3,0.6-2.3,0.5
			c-0.3,0-0.6-0.1-0.9-0.2c-0.3-0.1-0.7-0.2-1.1-0.4c0,0,0-0.1-0.1-0.1c0.1-0.3,0.1-0.6,0.1-0.7C-2343,8.4-2343,8-2343,7.6z"/>
	</g>
</g>
<g>
	<g class="st0">
		<g>
			<linearGradient id="SVGID_7_" gradientUnits="userSpaceOnUse" x1="-2416" y1="90.0499" x2="-2397" y2="90.0499">
				<stop  offset="0" style="stop-color:#1B1464"/>
				<stop  offset="0.8544" style="stop-color:#0071BC"/>
				<stop  offset="1" style="stop-color:#1B1464"/>
			</linearGradient>
			<path class="st8" d="M-2416,98.4V75.5c0,0.1,0.3,0.2,0.3,0.2c0.5,0.8,3.6,1.2,6.7,1.6c5.1,0.6,12,1.3,12,4.4v22.8
				c0-3-6.7-3.7-11.8-4.4c-3.1-0.4-6.3-0.7-6.8-1.6C-2415.7,98.6-2416,98.5-2416,98.4z"/>
		</g>
		<g>
			<linearGradient id="SVGID_8_" gradientUnits="userSpaceOnUse" x1="-2506" y1="90.0499" x2="-2487.9656" y2="90.0499">
				<stop  offset="8.428263e-03" style="stop-color:#1B1464"/>
				<stop  offset="0.2534" style="stop-color:#0071BC"/>
				<stop  offset="1" style="stop-color:#1B1464"/>
			</linearGradient>
			<path class="st9" d="M-2488,75.5v22.8c0,0.1,0,0.2-0.1,0.2c-0.5,0.8-3.2,1.2-6.3,1.6c-5.1,0.6-10.6,1.3-11.6,4.4V81.7
				c1-3,6.5-3.7,11.6-4.4c3.1-0.4,6-0.7,6.5-1.6C-2487.9,75.7-2488,75.6-2488,75.5z"/>
		</g>
		<g>
			<linearGradient id="SVGID_9_" gradientUnits="userSpaceOnUse" x1="-2416" y1="85.3263" x2="-2391.667" y2="85.3263">
				<stop  offset="0" style="stop-color:#0071BC"/>
				<stop  offset="1" style="stop-color:#1B1464"/>
			</linearGradient>
			<path class="st10" d="M-2416,98.4V75.5c0-0.2,0-0.4,0.2-0.7c0.8-1.3,2.8-1.8,5.4-1.8c2.2,0,4.9,0.3,7.4,0.6
				c2.5,0.3,5.1,0.6,7.1,0.6c2.4,0,3.8-0.4,4.2-1.7c0-0.1-0.3-0.3-0.3-0.4v22.8c0,0.1,0.4,0.3,0.3,0.4c-0.4,1.3-2,1.7-4.4,1.7
				c-2.1,0-4.5-0.3-7-0.6c-2.6-0.3-5.2-0.6-7.4-0.6c-2.6,0-4.5,0.4-5.4,1.8C-2416,98-2416,98.2-2416,98.4z"/>
		</g>
		<g>
			<linearGradient id="SVGID_10_" gradientUnits="userSpaceOnUse" x1="-2511.584" y1="85.3253" x2="-2487" y2="85.3253">
				<stop  offset="0" style="stop-color:#1B1464"/>
				<stop  offset="1" style="stop-color:#0071BC"/>
				<stop  offset="1" style="stop-color:#1B1464"/>
			</linearGradient>
			<path class="st11" d="M-2511,95.1V72.3c0,0.1-0.6,0.3-0.6,0.4c0.4,1.3,1.8,1.7,4.2,1.7c2.1,0,4.5-0.3,7-0.6
				c2.6-0.3,5.1-0.6,7.4-0.6c2.6,0,4.8,0.4,5.6,1.8c0.1,0.2,0.4,0.5,0.4,0.7v22.8c0-0.2-0.3-0.4-0.4-0.7c-0.8-1.3-3-1.8-5.5-1.8
				c-2.2,0-4.9,0.3-7.5,0.6c-2.5,0.3-5.1,0.6-7.2,0.6c-2.4,0-3.5-0.4-3.9-1.7C-2511.6,95.4-2511,95.2-2511,95.1z"/>
		</g>
		<g>
			<linearGradient id="SVGID_11_" gradientUnits="userSpaceOnUse" x1="-2512.8984" y1="94.9118" x2="-2390.6113" y2="94.9118">
				<stop  offset="0" style="stop-color:#0071BC"/>
				<stop  offset="1" style="stop-color:#0071BC"/>
			</linearGradient>
			<path class="st12" d="M-2456.8,85.1c1.8,0,3.5,0,5.1,0.1c1.6,0,3.3-0.1,5.1-0.1c20.5,0,50.5,3.2,55.4,8.4
				c0.6,0.7,0.8,1.4,0.6,2.1c-0.5,1.6-2.4,2.1-5.1,2.1c-2.1,0-4.7-0.3-7.3-0.6c-2.6-0.3-5.2-0.6-7.4-0.6c-2.3,0-4.1,0.4-4.8,1.5
				c-0.2,0.3-0.2,0.5-0.1,0.7c0.5,0.8,3.4,1.2,6.5,1.6c5.1,0.6,10.8,1.3,11.8,4.4l-0.6,0.1c-0.8-2.7-6.6-3.4-11.3-4
				c-3.6-0.4-6.4-0.8-7-1.9c-0.2-0.3-0.2-0.7,0.1-1.2c0.8-1.3,2.9-1.8,5.4-1.8c2.2,0,4.9,0.3,7.5,0.6c2.5,0.3,5.1,0.6,7.1,0.6
				c2.4,0,4.2-0.4,4.6-1.7c0.2-0.5,0-1.1-0.5-1.6c-2.2-2.4-10.9-4.7-23.9-6.3c-9.9-1.2-21.2-1.9-30.8-1.9c-1.8,0-3.6,0-5.3,0.1
				c-1.7-0.1-3.4-0.1-5.3-0.1c-9.6,0-21,0.7-30.8,1.9c-13,1.6-21.7,3.9-23.9,6.3c-0.5,0.5-0.7,1.1-0.5,1.6c0.4,1.3,2.2,1.7,4.6,1.7
				c2.1,0,4.6-0.3,7.1-0.6c2.6-0.3,5.2-0.6,7.5-0.6c2.6,0,4.6,0.4,5.4,1.8c0.3,0.4,0.3,0.8,0.1,1.2c-0.6,1.1-3.4,1.4-7,1.9
				c-4.7,0.6-10.4,1.3-11.3,4l-0.6-0.1c0.9-3,6.7-3.7,11.8-4.4c3.1-0.4,6-0.7,6.5-1.6c0.1-0.2,0.1-0.4-0.1-0.7
				c-0.7-1.1-2.5-1.5-4.8-1.5c-2.2,0-4.8,0.3-7.4,0.6c-2.6,0.3-5.2,0.6-7.3,0.6c-2.7,0-4.6-0.5-5.1-2.1c-0.2-0.7,0-1.4,0.6-2.1
				C-2507.4,88.4-2477.3,85.1-2456.8,85.1z"/>
		</g>
		
			<radialGradient id="SVGID_12_" cx="-2348.9717" cy="78.6974" r="74.931" gradientTransform="matrix(0.5783 0 0 1 -1093.2321 0)" gradientUnits="userSpaceOnUse">
			<stop  offset="0" style="stop-color:#0071BC"/>
			<stop  offset="1" style="stop-color:#1B1464"/>
		</radialGradient>
		<path class="st13" d="M-2391.5,70.7c-4.8-5.2-34.8-8.4-55.2-8.4c-1.8,0-3.5,0-5,0.1c-1.5,0-3.3-0.1-5.2-0.1
			c-20.4,0-50,3.2-54.9,8.4c-0.5,0.5-0.2,1-0.2,1.5v22.8c0-0.5-0.3-1,0.2-1.5c4.8-5.2,34.6-8.4,55.1-8.4c1.8,0,3.6,0,5.1,0.1
			c1.5,0,3.2-0.1,5-0.1c20.5,0,50.3,3.2,55.2,8.4c0.5,0.5,0.5,1,0.5,1.5V72.3C-2391,71.7-2391,71.2-2391.5,70.7z"/>
	</g>
</g>
<g>
	<g>
		<path class="st7" d="M-2471.1,78.1c0.5-0.1,0.8-0.1,0.9-0.1c0,0,0.1-0.1,0.1-0.1c0,0,0.1-0.1,0.1-0.3c0-0.2,0-0.6,0-1.3
			c0-0.4,0-0.9-0.1-1.5c-0.1-0.7-0.1-1.5-0.2-2.2c-0.1-0.7-0.1-1.3-0.2-2c0-0.3-0.1-0.5-0.1-0.6c0-0.1-0.1-0.2-0.1-0.2
			c0,0-0.1-0.1-0.2-0.1c-0.1,0-0.4,0-0.9,0c0-0.2,0-0.4,0-0.6c0.6,0,1,0,1.3-0.1c0.3,0,0.7-0.1,1-0.1c0.2,0,0.4,0,0.7-0.1
			c1.1,1.2,2.3,2.5,3.8,4c1,1.1,1.9,2,2.6,2.6c0-0.5,0-1.1-0.1-1.6c-0.1-2.4-0.2-3.9-0.3-4.3c0-0.2-0.1-0.3-0.1-0.3
			c-0.1-0.1-0.5-0.1-1.1-0.1c0-0.2,0-0.4,0-0.6c0.6,0,1.1,0,1.6,0c0.5,0,1.1-0.1,1.8-0.1c0,0.2,0,0.4,0,0.6c-0.6,0-0.9,0.1-1,0.2
			c0,0-0.1,0.1-0.1,0.1c-0.1,0.2-0.1,0.8-0.1,1.6c0,0.8,0,1.4,0,1.8c0.1,3,0.2,4.9,0.3,5.5c0,0-0.1,0-0.1,0.1
			c-0.4,0-0.8-0.1-1.2-0.1c-1.5-1.6-3.8-3.9-6.8-7c0.1,1.1,0.2,2.3,0.2,3.4c0,0.7,0.1,1.4,0.2,2.2c0.1,0.5,0.1,0.8,0.1,1
			c0,0.1,0.1,0.1,0.1,0.1c0,0,0.1,0,0.2,0.1c0.3,0,0.5,0,0.7,0c0,0,0.1,0,0.1,0c0,0.2,0,0.4,0,0.6c-0.9,0-1.4,0.1-1.5,0.1
			c-0.4,0-1,0.1-1.8,0.2C-2471.1,78.5-2471.1,78.3-2471.1,78.1z"/>
		<path class="st7" d="M-2459.6,78.1c0-0.2,0-0.4,0-0.6c0.4,0,0.6-0.1,0.7-0.1c0.1,0,0.1-0.1,0.2-0.1c0,0,0.1-0.1,0.1-0.2
			c0-0.1,0.2-0.4,0.4-1.1c0.1-0.3,0.3-0.8,0.7-1.7c0.6-1.5,1.2-3,1.7-4.4c0.2-0.5,0.4-1,0.6-1.6c0.3,0,0.7,0,1,0
			c1.1,2.4,2.1,4.7,3.2,7.1c0.1,0.3,0.3,0.6,0.4,0.9c0.1,0.2,0.2,0.4,0.3,0.6c0,0.1,0.1,0.1,0.1,0.2c0,0,0.1,0.1,0.1,0.1
			c0.1,0,0.2,0,0.4,0.1c0.1,0,0.2,0,0.3,0c0,0.2,0,0.4,0,0.6c-0.6,0-1.3,0-1.9-0.1c-0.8,0-1.6,0-2.4,0.1c0-0.2,0-0.4,0-0.6
			c0.6,0,0.9-0.1,0.9-0.1c0.1,0,0.1-0.1,0.1-0.2c0-0.1-0.1-0.3-0.2-0.6c-0.2-0.5-0.4-1-0.6-1.5c-1.2,0-2.4,0-3.6,0
			c-0.1,0.3-0.2,0.5-0.3,0.8c-0.2,0.6-0.3,1-0.3,1.2c0,0.1,0,0.2,0.1,0.2c0.1,0.1,0.4,0.1,1,0.1c0,0.2,0,0.4,0,0.6
			c-0.5,0-1.1,0-1.6,0C-2458.6,78-2459.1,78-2459.6,78.1z M-2456.7,74.3c0.4,0,0.9,0,1.5,0c0.5,0,1,0,1.4,0c-0.5-1.2-1-2.3-1.5-3.5
			C-2455.7,71.9-2456.2,73.1-2456.7,74.3z"/>
		<path class="st7" d="M-2448.1,78c0-0.1,0-0.2,0-0.4c0.1,0,0.3-0.1,0.5-0.3c0.1-0.1,0.2-0.1,0.2-0.1c0,0,0,0,0-0.1
			c0-0.1,0.1-0.5,0.1-1.2c0-0.7,0.1-1.5,0.1-2.5c0-1.4,0-2.3,0-2.7c0-0.9,0-1.3-0.1-1.5c0-0.1-0.1-0.1-0.1-0.1
			c-0.1-0.1-0.5-0.1-1.1-0.2c0-0.2,0-0.4,0-0.6c0.6,0,1.3,0.1,2.1,0.1c0.9,0,1.7,0,2.5,0c0,0.2,0,0.4,0,0.6c-0.5,0-0.9,0-1,0.1
			c-0.1,0-0.1,0.1-0.1,0.1c0,0.1-0.1,0.3-0.1,0.8c0,0.5-0.1,1.1-0.1,1.9c0,0.1,0,0.7,0,2c0,0.7,0,1.3,0,1.9c0,0.6,0,1,0,1.2
			c0.6,0,1.1,0.1,1.3,0.1c0.7,0,1.3,0,1.8-0.1c0.2,0,0.3,0,0.3-0.1c0,0,0.1-0.1,0.1-0.2c0.1-0.3,0.2-0.7,0.3-1.2c0.2,0,0.4,0,0.6,0
			c0,0.1,0,0.2,0,0.2c-0.1,0.5-0.2,0.9-0.2,1.4c-0.1,0.4-0.1,0.7-0.1,0.8c-0.1,0-0.3,0-0.4,0.1c-0.3,0-0.7,0-1.3,0
			c-0.1,0-0.6,0-1.6-0.1c-0.8,0-1.3-0.1-1.6-0.1C-2446.5,77.9-2447.2,77.9-2448.1,78z"/>
		<path class="st7" d="M-2432.9,71.6c-0.2,0-0.4,0-0.6,0c0-0.5,0-0.9,0-1.1c-0.1-0.2-0.4-0.4-0.7-0.6c-0.3-0.2-0.7-0.3-1.2-0.3
			c-0.6,0-1.1,0.1-1.5,0.4c-0.4,0.3-0.6,0.6-0.6,1.1c0,0.3,0,0.5,0.1,0.7c0.1,0.2,0.2,0.3,0.4,0.5c0.2,0.1,0.4,0.2,0.8,0.3
			c0.3,0.1,0.6,0.2,1.1,0.3c0.5,0.1,0.8,0.2,0.9,0.2c0.4,0.1,0.7,0.3,0.9,0.4c0.2,0.2,0.4,0.3,0.5,0.5c0.1,0.2,0.2,0.4,0.3,0.7
			c0.1,0.3,0.1,0.6,0.1,0.9c0,0.6-0.2,1.1-0.5,1.5c-0.2,0.3-0.5,0.6-0.8,0.9c-0.3,0.3-0.7,0.4-1,0.5c-0.6,0.2-1.2,0.2-2,0.2
			c-0.6,0-1.1-0.1-1.5-0.2c-0.4-0.1-0.9-0.3-1.4-0.6c0.2-0.5,0.3-1.3,0.3-2.4c0.2,0,0.4,0,0.6,0c0,0.3,0,0.7,0,1.2
			c0.2,0.3,0.4,0.6,0.9,0.8c0.4,0.2,0.9,0.4,1.4,0.4c0.4,0,0.8,0,1.2-0.2c0.4-0.1,0.6-0.3,0.8-0.6c0.2-0.3,0.3-0.6,0.3-0.9
			c0-0.3,0-0.5-0.1-0.7c-0.1-0.2-0.3-0.4-0.5-0.5c-0.2-0.1-0.6-0.3-1.2-0.5c-0.8-0.2-1.4-0.4-1.6-0.5c-0.4-0.1-0.7-0.3-0.9-0.6
			c-0.2-0.2-0.4-0.5-0.5-0.8c-0.1-0.3-0.1-0.7-0.1-1c0-0.5,0.2-1,0.4-1.4c0.2-0.4,0.6-0.7,0.9-1c0.4-0.2,0.8-0.4,1.3-0.4
			c0.5-0.1,0.9-0.1,1.4-0.1c0.5,0,1,0.1,1.5,0.2c0.5,0.1,0.9,0.3,1.2,0.5c0,0.1,0,0.1,0,0.2c-0.1,0.3-0.2,0.6-0.2,0.9
			C-2432.8,70.8-2432.8,71.1-2432.9,71.6z"/>
	</g>
</g>
<path class="st14" d="M-2371.4-171.1c-9.6-21.1-29.8-21.1-39.5,0c-4.1,9,19.7,34.2,19.7,34.2S-2367.3-162.2-2371.4-171.1z
	 M-2391.2-160.5c-3.6,0-6.4-3.1-6.4-6.9c0-3.8,2.9-6.9,6.4-6.9s6.4,3.1,6.4,6.9C-2384.7-163.6-2387.6-160.5-2391.2-160.5z"/>
<g>
	<circle class="st15" cx="-2887.6" cy="21.5" r="80"/>
	<g>
		<g>
			<path class="st7" d="M-2926.8,51.8c-0.7-1.2,1.4-4.8,2.8-4.8c1.4,0,3.3,3.5,2.8,4.8C-2921.8,53.1-2926.1,53-2926.8,51.8z"/>
			<rect x="-2925.3" y="19.7" class="st7" width="2.3" height="25.6"/>
			<path class="st16" d="M-2923.6,47.9h-1.1c-0.5,0-0.9-0.4-0.9-0.9v-1.1c0-0.5,0.4-0.9,0.9-0.9h1.1c0.5,0,0.9,0.4,0.9,0.9v1.1
				C-2922.7,47.5-2923.1,47.9-2923.6,47.9z"/>
		</g>
		<path class="st7" d="M-2865,48.1c-8.1,5.3-38.5,5.9-45.7,0c-7.2-5.9,0-30.1,0-30.1h45.7C-2865,18-2856.9,42.8-2865,48.1z"/>
		<path class="st17" d="M-2846.1,16.5l-39.1,22c-1.3,0.8-3.5,0.8-4.8,0l-39.1-22c-1.6-0.9-1.9-2.4-0.6-3.4l39.1-27.7
			c1.6-1.2,4.3-1.2,6,0l39.1,27.7C-2844.2,14.1-2844.4,15.6-2846.1,16.5z"/>
	</g>
	<g>
		<g>
			<path class="st7" d="M-2946.4-8.3c2.6,1.2,5.3,2.4,7.9,3.7c-0.3,0.7-0.7,1.5-1,2.2c-3.7-1.5-7.4-3.1-11.1-4.6
				c0.5-1.3,1.1-2.5,1.7-3.8c2.6,0,5.2,0.2,7.8,0.5c-2.1-1.2-4.2-2.3-6.3-3.5c0.4-0.8,0.9-1.7,1.4-2.5c3.4,2.1,6.9,4.1,10.3,6.2
				c-0.5,0.8-0.9,1.5-1.3,2.3C-2940.1-8-2943.2-8.2-2946.4-8.3z"/>
			<path class="st7" d="M-2929.8-18.2c-0.5,0.6-1.1,1.3-1.6,1.9c-0.7-0.3-1.3-0.7-2-1c-0.7,0.8-1.3,1.7-1.9,2.6
				c0.5,0.5,1,1.1,1.5,1.6c-0.4,0.6-0.9,1.3-1.3,2c-2.9-2.9-5.7-5.9-8.4-9.1c0.9-1.2,1.7-2.4,2.7-3.6
				C-2937-22.1-2933.3-20.3-2929.8-18.2z M-2936.4-16c0.5-0.7,1-1.4,1.5-2.1c-1.9-0.9-3.7-1.8-5.6-2.6
				C-2939.1-19.1-2937.8-17.5-2936.4-16z"/>
			<path class="st7" d="M-2938.2-26.8c2-2.3,4.2-4.4,6.5-6.4c0.4,0.4,0.7,0.9,1.1,1.3c-0.8,0.6-1.5,1.3-2.2,2c2.3,2.5,4.7,5,7,7.6
				c-0.6,0.6-1.2,1.1-1.7,1.7c-2.4-2.4-4.9-4.8-7.3-7.3c-0.7,0.7-1.4,1.5-2.1,2.2C-2937.4-26-2937.8-26.4-2938.2-26.8z"/>
			<path class="st7" d="M-2930.5-34.2c0.8-0.6,1.5-1.2,2.3-1.8c2.4,3.2,4.8,6.4,7.2,9.7c-0.6,0.5-1.3,1-1.9,1.5
				C-2925.5-27.9-2928-31.1-2930.5-34.2z"/>
			<path class="st7" d="M-2924.8-34.8c-0.6-0.8-0.7-1.6-0.4-2.5c0.3-0.8,1.1-1.7,2.3-2.4c1.2-0.7,2.3-1,3.2-0.9
				c0.9,0.1,1.6,0.6,2,1.5c1,1.8,1.9,3.7,2.9,5.5c0.4,0.9,0.5,1.7,0.2,2.4c-0.3,0.8-0.9,1.4-1.9,2c-1,0.6-1.9,0.9-2.7,0.8
				c-0.8-0.1-1.5-0.5-2.1-1.3C-2922.5-31.4-2923.6-33.1-2924.8-34.8z M-2919.1-31c0.2,0.4,0.5,0.6,0.8,0.6c0.3,0,0.6-0.1,0.9-0.2
				c0.3-0.2,0.5-0.4,0.7-0.7c0.1-0.3,0.1-0.6-0.2-1c-1.1-1.9-2.2-3.8-3.2-5.6c-0.2-0.4-0.5-0.6-0.8-0.6c-0.3,0-0.7,0.1-1,0.3
				c-0.4,0.2-0.6,0.5-0.8,0.8c-0.1,0.3-0.1,0.6,0.2,1C-2921.4-34.6-2920.3-32.8-2919.1-31z"/>
			<path class="st7" d="M-2913.5-40.6c1.2,2.7,2.3,5.3,3.5,8c-0.6,0.3-1.3,0.6-1.9,0.9c-1.7-3.6-3.5-7.2-5.2-10.8
				c1.1-0.5,2.2-1,3.2-1.4c1.8,1.8,3.6,3.7,5.2,5.7c-0.8-2.2-1.7-4.5-2.5-6.7c0.8-0.3,1.6-0.6,2.4-0.8c1.3,3.8,2.5,7.6,3.8,11.4
				c-0.8,0.2-1.5,0.5-2.3,0.8C-2909.3-36.1-2911.3-38.4-2913.5-40.6z"/>
			<path class="st7" d="M-2895.9-36.6c-0.8,0.1-1.5,0.2-2.3,0.4c-0.3-0.7-0.5-1.4-0.8-2.1c-1,0.2-1.9,0.4-2.9,0.6
				c0,0.7,0.1,1.5,0.2,2.2c-0.7,0.2-1.4,0.4-2.1,0.6c-0.4-4.1-0.7-8.1-0.8-12.3c1.3-0.3,2.7-0.6,4-0.9
				C-2898.9-44.3-2897.3-40.5-2895.9-36.6z M-2902-39.3c0.8-0.2,1.5-0.4,2.3-0.5c-0.8-1.9-1.7-3.8-2.5-5.7
				C-2902.2-43.4-2902.2-41.3-2902-39.3z"/>
			<path class="st7" d="M-2896.2-48.7c0.9-0.1,1.9-0.2,2.8-0.3c0.3,3.4,0.6,6.8,0.9,10.2c1.3-0.1,2.6-0.2,3.9-0.2c0,0.6,0,1.1,0,1.7
				c-2,0-4.1,0.2-6.1,0.4C-2895.2-40.8-2895.7-44.7-2896.2-48.7z"/>
			<path class="st7" d="M-2876.4-36.2c-0.8-0.1-1.5-0.3-2.3-0.4c0-0.7,0-1.5-0.1-2.2c-1-0.1-2-0.3-2.9-0.3c-0.2,0.7-0.4,1.4-0.6,2.1
				c-0.7-0.1-1.4-0.1-2.1-0.1c1-4,2.1-7.9,3.5-11.8c1.4,0.1,2.7,0.3,4.1,0.5C-2876.6-44.4-2876.4-40.3-2876.4-36.2z M-2881.2-40.8
				c0.8,0.1,1.6,0.2,2.4,0.3c-0.1-2.1-0.3-4.1-0.4-6.2C-2880-44.7-2880.6-42.7-2881.2-40.8z"/>
			<path class="st7" d="M-2872.5-47.7c0.9,0.2,1.8,0.4,2.7,0.6c-0.9,3.3-1.8,6.6-2.6,10c1.3,0.3,2.5,0.7,3.8,1.1
				c-0.2,0.5-0.4,1.1-0.5,1.6c-1.9-0.6-3.9-1.2-5.9-1.6C-2874.2-39.9-2873.4-43.8-2872.5-47.7z"/>
			<path class="st7" d="M-2863.9-45.3c0.9,0.3,1.8,0.6,2.6,1c-1.3,3.2-2.6,6.4-3.9,9.5c1.2,0.5,2.4,1,3.6,1.6
				c-0.3,0.5-0.5,1-0.8,1.5c-1.9-0.9-3.8-1.7-5.7-2.4C-2866.6-37.7-2865.3-41.5-2863.9-45.3z"/>
			<path class="st7" d="M-2855.6-41.7c0.8,0.4,1.7,0.9,2.5,1.3c-2,3.5-4,7-6,10.4c-0.7-0.4-1.4-0.8-2.1-1.1
				C-2859.3-34.6-2857.5-38.1-2855.6-41.7z"/>
			<path class="st7" d="M-2851.2-24.4c-0.6-0.5-1.3-1-1.9-1.5c0.3-0.7,0.7-1.3,1-2c-0.8-0.6-1.6-1.2-2.5-1.7c-0.5,0.5-1,1.1-1.6,1.6
				c-0.6-0.4-1.2-0.8-1.8-1.2c2.8-3,5.7-5.9,8.7-8.7c1.2,0.8,2.3,1.6,3.4,2.4C-2847.5-31.8-2849.3-28.1-2851.2-24.4z M-2853.4-30.9
				c0.7,0.5,1.3,0.9,2,1.4c0.9-1.9,1.7-3.8,2.5-5.7C-2850.4-33.7-2851.9-32.3-2853.4-30.9z"/>
			<path class="st7" d="M-2842.6-28.5c-2,2.1-4,4.2-6,6.4c-0.5-0.5-1.1-1-1.6-1.5c2.6-3,5.3-6.1,7.9-9.1c0.9,0.8,1.8,1.6,2.7,2.5
				c-0.9,2.4-2,4.8-3.1,7.1c1.7-1.7,3.5-3.3,5.2-5c0.6,0.6,1.2,1.3,1.8,2c-3,2.6-6,5.3-9,7.9c-0.6-0.6-1.1-1.3-1.7-1.9
				C-2845-22.7-2843.8-25.6-2842.6-28.5z"/>
			<path class="st7" d="M-2835.4-12.9c-0.5,0.3-0.9,0.6-1.4,0.8c-0.8,0.5-1.6,0.6-2.4,0.3c-0.8-0.3-1.5-0.9-2.2-1.9
				c-0.7-1-1.1-1.9-1.1-2.7c0-0.8,0.4-1.6,1.1-2.2c1.6-1.3,3.2-2.6,4.8-4c0.8-0.6,1.6-0.8,2.4-0.5c0.9,0.3,1.8,1,2.6,2.3
				c0.9,1.2,1.3,2.4,1.3,3.3c0,0.9-0.5,1.7-1.3,2.2c-0.3,0.2-0.7,0.4-1,0.6c-0.5-0.8-1-1.6-1.5-2.3c0.4-0.2,0.7-0.5,1.1-0.7
				c0.4-0.2,0.5-0.5,0.5-0.9c0-0.3-0.2-0.7-0.4-1.1c-0.3-0.4-0.6-0.6-0.9-0.8c-0.3-0.1-0.6,0-1,0.2c-1.7,1.3-3.5,2.6-5.2,3.9
				c-0.3,0.3-0.5,0.5-0.5,0.8c0,0.3,0.1,0.6,0.4,1c0.2,0.3,0.5,0.6,0.8,0.7c0.3,0.1,0.6,0,1-0.2c0.5-0.3,0.9-0.6,1.4-1
				C-2836.3-14.4-2835.9-13.6-2835.4-12.9z"/>
			<path class="st7" d="M-2830.9-9.8c0.6,1.2,1.2,2.5,1.8,3.7c-0.5,0.2-1,0.5-1.6,0.7c-0.5-1.2-1.1-2.5-1.7-3.6
				c-1,0.5-2.1,1.1-3.1,1.6c0.7,1.4,1.4,2.9,2,4.4c-0.5,0.2-1.1,0.4-1.6,0.7c-1-2.3-2-4.5-3.2-6.5c3.5-2,6.9-4,10.4-6
				c1.4,2.5,2.7,5.2,3.9,7.9c-0.5,0.2-1.1,0.4-1.6,0.7c-0.7-1.7-1.5-3.4-2.3-5C-2828.9-10.8-2829.9-10.3-2830.9-9.8z"/>
		</g>
	</g>
	<g>
		<g>
			<path class="st7" d="M-2947.3,47.4c0.5,1.1,1.1,2.3,1.7,3.4c-0.5,0.3-1,0.5-1.5,0.8c-0.6-1.1-1.2-2.3-1.7-3.4
				c-1.5,0.7-3,1.4-4.5,2.1c-0.5-1-0.9-2-1.3-3c3.7-1.5,7.4-3.1,11.1-4.6c0.9,2.2,1.9,4.4,3.1,6.4c-0.5,0.3-1,0.6-1.5,0.8
				c-0.7-1.3-1.4-2.6-2-4C-2945.1,46.4-2946.2,46.9-2947.3,47.4z"/>
			<path class="st7" d="M-2942.5,51.4c0.8-0.5,1.7-0.6,2.5-0.2c0.8,0.3,1.5,1,2.2,2.1c0.7,1,1,2,1,2.8c0,0.8-0.4,1.6-1.2,2.2
				c-1.7,1.3-3.3,2.5-5,3.8c-0.8,0.6-1.6,0.7-2.5,0.4c-0.9-0.3-1.8-1.1-2.6-2.4c-0.8-1.3-1.2-2.4-1.2-3.4c0-1,0.5-1.7,1.3-2.2
				C-2946.1,53.5-2944.3,52.5-2942.5,51.4z M-2946.5,57.2c-0.4,0.2-0.6,0.5-0.5,0.9c0,0.3,0.1,0.7,0.4,1.1c0.3,0.4,0.5,0.7,0.8,0.8
				c0.3,0.1,0.6,0.1,1-0.2c1.8-1.2,3.5-2.5,5.3-3.7c0.4-0.3,0.5-0.5,0.5-0.8c0-0.3-0.1-0.6-0.3-1c-0.2-0.3-0.5-0.6-0.8-0.7
				c-0.3-0.1-0.6-0.1-1,0.2C-2942.8,54.9-2944.6,56-2946.5,57.2z"/>
			<path class="st7" d="M-2940,70c0-0.1,0.1-0.2,0.1-0.2c0-0.1,0.1-0.2,0.1-0.2c0.1-0.1,0.1-0.2,0.3-0.3c0.1-0.1,0.3-0.3,0.4-0.4
				c0.5-0.4,0.9-0.9,1.4-1.3c0.4-0.4,0.6-0.8,0.6-1.1c0-0.4-0.3-0.8-0.7-1.3c-0.2-0.2-0.4-0.5-0.6-0.7c-1.2,1.1-2.5,2.2-3.7,3.2
				c-0.6-0.7-1.3-1.5-1.9-2.3c3.1-2.5,6.2-5,9.4-7.6c0.8,1,1.6,1.9,2.4,2.9c0.9,1,1.3,1.8,1.4,2.5c0.1,0.7-0.2,1.4-0.8,2.1
				c-0.2,0.2-0.4,0.5-0.7,0.7c-0.9,0.9-1.8,1.1-2.9,0.5c0.3,0.6,0.4,1.2,0.3,1.7c-0.1,0.5-0.4,1-0.8,1.4c-0.4,0.4-0.9,0.9-1.3,1.3
				c-0.2,0.2-0.4,0.4-0.5,0.6c-0.1,0.2-0.2,0.4-0.3,0.7C-2938.7,71.4-2939.4,70.7-2940,70z M-2934.4,60.8c-0.9,0.8-1.9,1.6-2.8,2.4
				c0.2,0.3,0.5,0.5,0.7,0.8c0.3,0.4,0.7,0.6,1,0.7c0.3,0.1,0.7,0,1-0.4c0.3-0.3,0.6-0.5,0.9-0.8c0.3-0.3,0.5-0.6,0.5-0.9
				c0-0.3-0.1-0.6-0.4-0.9C-2933.9,61.4-2934.2,61.1-2934.4,60.8z"/>
			<path class="st7" d="M-2926.1,66.6c0.6,0.5,1.2,1,1.9,1.5c-2.1,2.7-4.2,5.5-6.2,8.2c1.2,0.9,2.5,1.8,3.7,2.6
				c-0.3,0.5-0.6,1-1,1.4c-2.1-1.4-4.1-2.9-6.1-4.5C-2931.2,72.8-2928.7,69.7-2926.1,66.6z"/>
			<path class="st7" d="M-2918.7,85.4c-0.9-0.4-1.7-0.8-2.5-1.3c0.2-0.7,0.4-1.4,0.6-2.2c-1-0.5-2-1.1-2.9-1.6
				c-0.5,0.5-1,1.1-1.5,1.6c-0.7-0.4-1.5-0.9-2.2-1.4c3-2.8,5.9-5.8,8.6-8.8c1,0.6,2,1.1,3,1.7
				C-2916.8,77.4-2917.8,81.4-2918.7,85.4z M-2922.4,79.2c0.7,0.4,1.5,0.8,2.2,1.3c0.6-2,1.2-4,1.9-5.9
				C-2919.7,76.1-2921,77.6-2922.4,79.2z"/>
			<path class="st7" d="M-2913.1,74.7c2.2,1,4.4,1.9,6.7,2.6c-0.2,0.5-0.4,1.1-0.5,1.6c-0.8-0.3-1.6-0.5-2.4-0.8
				c-1.2,3.2-2.4,6.4-3.6,9.6c-0.9-0.3-1.7-0.7-2.6-1c1.3-3.2,2.7-6.3,4-9.5c-0.8-0.3-1.5-0.7-2.3-1
				C-2913.6,75.8-2913.4,75.3-2913.1,74.7z"/>
			<path class="st7" d="M-2905.5,77.7c0.7,0.2,1.5,0.4,2.2,0.6c-1.1,3.9-2.1,7.7-3.2,11.6c-0.9-0.2-1.8-0.5-2.7-0.8
				C-2907.9,85.3-2906.7,81.5-2905.5,77.7z"/>
			<path class="st7" d="M-2900.3,82.4c-0.6,2.8-1.2,5.7-1.8,8.5c-0.8-0.2-1.6-0.3-2.4-0.5c0.9-3.9,1.9-7.8,2.8-11.7
				c0.9,0.2,1.9,0.4,2.8,0.6c0.3,2.5,0.7,5,1.3,7.5c0.4-2.4,0.7-4.7,1.1-7.1c0.7,0.1,1.4,0.2,2,0.3c-0.5,4-0.9,7.9-1.4,11.9
				c-0.9-0.1-1.9-0.2-2.8-0.4C-2899.3,88.5-2899.9,85.4-2900.3,82.4z"/>
			<path class="st7" d="M-2893.2,83c0.1-1,0.5-1.7,1.1-2.2c0.6-0.5,1.5-0.7,2.7-0.6c1.1,0,2,0.3,2.6,0.8c0.6,0.5,0.9,1.3,1,2.2
				c0,2.1,0.1,4.2,0.1,6.2c0,1-0.3,1.7-1,2.2c-0.7,0.5-1.8,0.8-3.1,0.7c-1.4,0-2.4-0.4-3.1-1c-0.7-0.6-0.9-1.4-0.9-2.3
				C-2893.6,87.1-2893.4,85.1-2893.2,83z M-2891.2,89.5c0,0.4,0.1,0.7,0.3,0.9c0.2,0.2,0.6,0.3,1,0.3c0.4,0,0.8-0.1,1-0.2
				c0.3-0.2,0.4-0.5,0.4-0.9c0-2.2,0.1-4.3,0.1-6.5c0-0.4-0.1-0.7-0.3-0.9c-0.2-0.2-0.5-0.3-0.9-0.3c-0.4,0-0.7,0.1-0.9,0.2
				c-0.2,0.2-0.4,0.5-0.4,0.9C-2890.9,85.2-2891,87.4-2891.2,89.5z"/>
			<path class="st7" d="M-2881.2,83c-0.1-1,0.1-1.7,0.6-2.3c0.5-0.6,1.3-0.9,2.4-1.1c1.1-0.2,2-0.1,2.7,0.3c0.7,0.4,1.1,1.1,1.3,2
				c0,0.1,0.1,0.2,0.1,0.4c-0.8,0.2-1.5,0.3-2.3,0.4c0-0.2-0.1-0.3-0.1-0.5c-0.1-0.4-0.2-0.7-0.5-0.9c-0.2-0.1-0.5-0.2-0.9-0.1
				c-0.4,0.1-0.6,0.2-0.8,0.4c-0.2,0.2-0.2,0.5-0.2,0.9c0.1,0.4,0.2,0.8,0.5,1c0.3,0.3,0.6,0.5,1,0.8c0.4,0.2,0.8,0.4,1.3,0.6
				c0.5,0.2,0.9,0.4,1.3,0.7c0.4,0.3,0.8,0.6,1.1,0.9c0.3,0.4,0.6,0.8,0.7,1.4c0.2,1,0,1.8-0.6,2.4c-0.6,0.6-1.6,1.1-2.9,1.3
				c-1.3,0.2-2.4,0.1-3.1-0.4c-0.7-0.4-1.1-1.2-1.2-2.1c0-0.2,0-0.5-0.1-0.7c0.8-0.1,1.7-0.2,2.5-0.3c0,0.3,0.1,0.6,0.1,0.9
				c0.1,0.4,0.2,0.7,0.5,0.9c0.3,0.1,0.6,0.2,1,0.1c0.4-0.1,0.7-0.2,1-0.4c0.2-0.2,0.3-0.5,0.2-1c-0.1-0.4-0.3-0.7-0.6-1
				c-0.3-0.3-0.7-0.5-1.1-0.7c-0.4-0.2-0.9-0.4-1.3-0.7c-0.5-0.2-0.9-0.5-1.3-0.8c-0.4-0.3-0.7-0.6-1-1
				C-2881,84.1-2881.2,83.6-2881.2,83z"/>
			<path class="st7" d="M-2874.1,79c2.3-0.5,4.6-1.1,6.9-1.9c0.2,0.5,0.4,1.1,0.6,1.6c-0.8,0.3-1.6,0.5-2.4,0.8c1,3.3,2,6.6,3,9.9
				c-0.9,0.3-1.8,0.5-2.7,0.7c-0.9-3.3-1.7-6.6-2.6-10c-0.8,0.2-1.6,0.4-2.4,0.6C-2873.8,80.1-2874,79.6-2874.1,79z"/>
			<path class="st7" d="M-2864.1,76c1.2,2.9,2.3,5.7,3.5,8.6c0.2,0.4,0.4,0.6,0.7,0.7c0.3,0.1,0.7,0,1-0.2c0.4-0.2,0.7-0.4,0.8-0.6
				c0.2-0.3,0.2-0.6,0-1c-1.3-2.8-2.6-5.6-3.8-8.4c0.7-0.3,1.3-0.6,2-0.9c1.4,2.7,2.7,5.5,4.1,8.2c0.4,0.9,0.5,1.7,0.1,2.5
				c-0.4,0.8-1.2,1.4-2.5,2c-1.3,0.5-2.3,0.7-3.2,0.4c-0.8-0.2-1.4-0.8-1.7-1.8c-1-2.9-2.1-5.7-3.1-8.6
				C-2865.6,76.6-2864.8,76.3-2864.1,76z"/>
			<path class="st7" d="M-2858.5,73.4c1.1-0.6,2.2-1.2,3.2-1.8c1-0.6,1.9-0.9,2.7-0.8c0.8,0.1,1.4,0.5,2,1.3c1.2,1.7,2.3,3.3,3.5,5
				c0.6,0.8,0.7,1.6,0.4,2.4c-0.3,0.8-1,1.6-2.3,2.3c-1.3,0.8-2.6,1.5-3.9,2.2C-2854.7,80.5-2856.6,77-2858.5,73.4z M-2855.6,73.8
				c1.4,2.5,2.9,5,4.3,7.4c0.4-0.3,0.9-0.5,1.3-0.8c0.4-0.2,0.6-0.5,0.7-0.8c0.1-0.3,0.1-0.6-0.2-1c-1.1-1.8-2.2-3.5-3.4-5.3
				c-0.2-0.4-0.5-0.6-0.8-0.6c-0.3,0-0.6,0.1-0.9,0.3C-2854.8,73.3-2855.2,73.5-2855.6,73.8z"/>
			<path class="st7" d="M-2846,71.3c0.9-0.7,1.8-1.5,2.7-2.3c0.4,0.4,0.8,0.9,1.1,1.3c-0.9,0.8-1.9,1.6-2.8,2.4
				c0.7,0.9,1.5,1.8,2.2,2.8c1.3-1,2.5-2,3.7-3.1c0.4,0.4,0.8,0.8,1.2,1.3c-1.9,1.8-4,3.4-6.1,4.9c-2.4-3.2-4.7-6.5-7.1-9.7
				c1.7-1.3,3.4-2.7,5.1-4.1c0.4,0.4,0.8,0.8,1.2,1.3c-1.1,1-2.1,1.9-3.2,2.8C-2847.4,69.6-2846.7,70.5-2846,71.3z"/>
			<path class="st7" d="M-2841,64.4c2.1,2,4.2,4.1,6.2,6.1c-0.6,0.6-1.2,1.2-1.9,1.9c-2.8-2.9-5.5-5.8-8.3-8.7
				c0.7-0.7,1.4-1.4,2.2-2.2c2.3,1,4.7,2,7.1,2.9c-1.8-1.6-3.6-3.2-5.4-4.7c0.5-0.6,1-1.1,1.4-1.7c3.1,2.5,6.2,5.1,9.3,7.6
				c-0.6,0.8-1.3,1.6-2,2.3C-2835.3,66.8-2838.2,65.7-2841,64.4z"/>
			<path class="st7" d="M-2839,57c1.6-2,3-4.2,4.4-6.5c0.5,0.3,1,0.6,1.5,0.9c-0.5,0.8-1,1.6-1.4,2.4c2.9,1.9,5.7,3.8,8.6,5.6
				c-0.6,0.9-1.1,1.7-1.7,2.5c-2.8-2-5.6-4-8.4-6c-0.5,0.7-1.1,1.5-1.6,2.2C-2838.1,57.7-2838.5,57.4-2839,57z"/>
			<path class="st7" d="M-2831.7,51.2c-0.8-0.5-1.3-1.1-1.5-2c-0.1-0.8,0.1-1.8,0.7-3c0.6-1.2,1.2-2,2-2.4c0.7-0.4,1.6-0.4,2.5-0.1
				c0.1,0,0.2,0.1,0.3,0.1c-0.3,0.8-0.7,1.7-1.1,2.5c-0.2-0.1-0.3-0.1-0.5-0.2c-0.4-0.2-0.7-0.2-1-0.1c-0.3,0.1-0.5,0.4-0.7,0.8
				c-0.2,0.4-0.3,0.7-0.2,1c0,0.3,0.3,0.5,0.7,0.7c0.4,0.2,0.7,0.2,1.2,0.1c0.4-0.1,0.8-0.3,1.3-0.5c0.4-0.3,0.9-0.5,1.3-0.9
				c0.5-0.3,0.9-0.6,1.4-0.9c0.5-0.3,1-0.5,1.5-0.6c0.5-0.1,1-0.1,1.6,0.2c0.9,0.4,1.4,1,1.6,2c0.2,0.9-0.1,2.2-0.8,3.6
				c-0.7,1.4-1.5,2.3-2.3,2.8c-0.8,0.4-1.7,0.4-2.5-0.1c-0.2-0.1-0.4-0.2-0.6-0.4c0.5-0.8,0.9-1.6,1.3-2.5c0.3,0.1,0.5,0.3,0.8,0.4
				c0.4,0.2,0.7,0.2,1,0c0.3-0.2,0.5-0.5,0.8-0.9c0.2-0.4,0.3-0.8,0.3-1.2c0-0.3-0.2-0.6-0.6-0.8c-0.4-0.2-0.8-0.2-1.2-0.1
				c-0.4,0.1-0.8,0.3-1.3,0.6c-0.4,0.3-0.9,0.6-1.4,0.9c-0.5,0.3-1,0.6-1.4,0.8c-0.5,0.2-1,0.3-1.5,0.4
				C-2830.7,51.6-2831.2,51.5-2831.7,51.2z"/>
		</g>
	</g>
</g>
<rect id="_x3C_Slice_x3E_" x="-2894" y="-139" class="st18" width="163" height="161"/>
<rect id="_x3C_Slice_x3E__1_" x="-2351" y="-189" class="st18" width="50" height="55"/>
<g>
	<path class="st19" d="M-2522-139.5h-24.5V-182c9-6,24.5-0.1,24.5-0.1"/>
	<path class="st19" d="M-2521.9-142.6l0-39.5c0,0,16.4-6,25.4,0.1v42.4h-25.5"/>
	<path class="st7" d="M-2522.4-142.2c-6.7-5.6-21.6,0-21.6,0v-38c7-5.3,21.7,0.4,21.7,0.4"/>
	<path class="st7" d="M-2520.4-142.2c6.7-5.6,21.4,0,21.4,0v-38c-7-5.3-21.7,0.4-21.7,0.4"/>
	<g>
		<g>
			<path class="st20" d="M-2540.4-170.8c5.4-0.9,10.9-0.9,16.4,0"/>
		</g>
		<g>
			<path class="st20" d="M-2540.4-166.7c5.4-0.9,10.9-0.9,16.4,0"/>
		</g>
		<g>
			<path class="st20" d="M-2540.4-162.6c5.4-0.9,10.9-0.9,16.4,0"/>
		</g>
		<g>
			<path class="st20" d="M-2540.4-158.6c5.4-0.9,10.9-0.9,16.4,0"/>
		</g>
		<g>
			<path class="st20" d="M-2540.4-154.5c5.4-0.9,10.9-0.9,16.4,0"/>
		</g>
	</g>
	<g>
		<g>
			<path class="st20" d="M-2519-170.8c5.4-0.9,10.9-0.9,16.4,0"/>
		</g>
		<g>
			<path class="st20" d="M-2519-166.7c5.4-0.9,10.9-0.9,16.4,0"/>
		</g>
		<g>
			<path class="st20" d="M-2519-162.6c5.4-0.9,10.9-0.9,16.4,0"/>
		</g>
		<g>
			<path class="st20" d="M-2519-158.6c5.4-0.9,10.9-0.9,16.4,0"/>
		</g>
		<g>
			<path class="st20" d="M-2519-154.5c5.4-0.9,10.9-0.9,16.4,0"/>
		</g>
	</g>
</g>
<path class="st14" d="M-2431.4-160.4c0-0.5,0.1-1,0.1-1.5s0-1-0.1-1.5l-7-1.5c-0.1-0.7-0.3-1.3-0.5-2l5.7-4.4
	c-0.4-1-0.8-1.9-1.3-2.8l-7.2,1.7c-0.4-0.5-0.8-0.9-1.2-1.4l3.3-6.7c-0.8-0.7-1.6-1.3-2.4-1.9l-5.8,4.8c-0.5-0.3-1-0.5-1.5-0.7
	l0.1-7.5c-1-0.3-2-0.5-3-0.7l-3.2,6.8c-0.4,0-0.7,0-1.1,0c-0.2,0-0.4,0-0.6,0l-3.2-6.8c-1,0.2-2,0.4-3,0.7l0.1,7.4
	c-0.6,0.2-1.1,0.5-1.7,0.8l-5.7-4.6c-0.8,0.6-1.7,1.2-2.4,1.9l3.2,6.4c-0.5,0.5-0.9,1-1.4,1.6l-6.8-1.6c-0.5,0.9-0.9,1.8-1.3,2.8
	l5.3,4.2c-0.3,0.8-0.5,1.5-0.6,2.3l-6.5,1.4c0,0.5-0.1,1-0.1,1.5s0,1,0.1,1.5l6.3,1.4c0.1,0.9,0.3,1.8,0.5,2.6l-5,3.9
	c0.4,1,0.8,1.9,1.3,2.8l6-1.4c0.5,0.8,1.1,1.6,1.8,2.3l-2.7,5.4c0.8,0.7,1.6,1.3,2.4,1.9l4.6-3.8c0.9,0.5,1.8,1,2.7,1.3l-0.1,6
	c1,0.3,2,0.5,3,0.7l2.5-5.4c0.4,0,0.9,0,1.3,0c0.6,0,1.1,0,1.7-0.1l2.6,5.5c1-0.2,2-0.4,3-0.7l-0.1-6.1c0.9-0.4,1.7-0.8,2.5-1.3
	l4.8,3.9c0.8-0.6,1.7-1.2,2.4-1.9l-2.9-5.8c0.6-0.7,1.1-1.4,1.6-2.1l6.3,1.5c0.5-0.9,0.9-1.8,1.3-2.8l-5.3-4.2
	c0.2-0.7,0.3-1.5,0.4-2.3L-2431.4-160.4z M-2456.3-153.6c-4.6,0-8.4-3.8-8.4-8.4s3.8-8.4,8.4-8.4c4.6,0,8.4,3.8,8.4,8.4
	S-2451.7-153.6-2456.3-153.6z"/>
<rect id="_x3C_Slice_x3E__2_" x="-2548" y="-188" class="st18" width="53" height="53"/>
<rect id="_x3C_Slice_x3E__3_" x="-2483" y="-188" class="st18" width="54" height="52"/>
<g>
	<circle class="st15" cx="-1522.6" cy="40" r="80"/>
	<g>
		<g>
			<path class="st7" d="M-1561.8,70.3c-0.7-1.2,1.4-4.8,2.8-4.8c1.4,0,3.3,3.5,2.8,4.8S-1561.1,71.5-1561.8,70.3z"/>
			<rect x="-1561.1" y="38.2" class="st7" width="2.3" height="25.6"/>
			<path class="st16" d="M-1559.4,66.4h-1.1c-0.5,0-0.9-0.4-0.9-0.9v-1.1c0-0.5,0.4-0.9,0.9-0.9h1.1c0.5,0,0.9,0.4,0.9,0.9v1.1
				C-1558.6,66-1558.9,66.4-1559.4,66.4z"/>
		</g>
		<path class="st7" d="M-1500.8,66.6c-8.1,5.3-38.5,5.9-45.7,0s0-30.1,0-30.1h45.7C-1500.8,36.5-1492.7,61.3-1500.8,66.6z"/>
		<path class="st17" d="M-1481.9,35l-39.1,22c-1.3,0.8-3.5,0.8-4.8,0l-39.1-22c-1.6-0.9-1.9-2.4-0.6-3.4l39.1-27.7
			c1.6-1.2,4.3-1.2,6,0l39.1,27.7C-1480,32.6-1480.3,34.1-1481.9,35z"/>
	</g>
	<g>
		<g>
			<path class="st7" d="M-1582.2,10.2c2.6,1.2,5.3,2.4,7.9,3.7c-0.3,0.7-0.7,1.5-1,2.2c-3.7-1.5-7.4-3.1-11.1-4.6
				c0.5-1.3,1.1-2.5,1.7-3.8c2.6,0,5.2,0.2,7.8,0.5c-2.1-1.2-4.2-2.3-6.3-3.5c0.4-0.8,0.9-1.7,1.4-2.5c3.4,2.1,6.9,4.1,10.3,6.2
				c-0.5,0.8-0.9,1.5-1.3,2.3C-1576,10.5-1579.1,10.3-1582.2,10.2z"/>
			<path class="st7" d="M-1565.6,0.2c-0.5,0.6-1.1,1.3-1.6,1.9c-0.7-0.3-1.3-0.7-2-1c-0.7,0.8-1.3,1.7-1.9,2.6
				c0.5,0.5,1,1.1,1.5,1.6c-0.4,0.6-0.9,1.3-1.3,2c-2.9-2.9-5.7-5.9-8.4-9.1c0.9-1.2,1.7-2.4,2.7-3.6
				C-1572.8-3.6-1569.2-1.8-1565.6,0.2z M-1572.2,2.5c0.5-0.7,1-1.4,1.5-2.1c-1.9-0.9-3.7-1.8-5.6-2.6
				C-1575-0.6-1573.6,1-1572.2,2.5z"/>
			<path class="st7" d="M-1574.1-8.3c2-2.3,4.2-4.4,6.5-6.4c0.4,0.4,0.7,0.9,1.1,1.3c-0.8,0.6-1.5,1.3-2.2,2c2.3,2.5,4.7,5,7,7.6
				c-0.6,0.6-1.2,1.1-1.7,1.7c-2.4-2.4-4.9-4.8-7.3-7.3c-0.7,0.7-1.4,1.5-2.1,2.2C-1573.2-7.6-1573.6-7.9-1574.1-8.3z"/>
			<path class="st7" d="M-1566.4-15.7c0.8-0.6,1.5-1.2,2.3-1.8c2.4,3.2,4.8,6.4,7.2,9.7c-0.6,0.5-1.3,1-1.9,1.5
				C-1561.3-9.4-1563.8-12.6-1566.4-15.7z"/>
			<path class="st7" d="M-1560.7-16.3c-0.6-0.8-0.7-1.6-0.4-2.5c0.3-0.8,1.1-1.7,2.3-2.4c1.2-0.7,2.3-1,3.2-0.9
				c0.9,0.1,1.6,0.6,2,1.5c1,1.8,1.9,3.7,2.9,5.5c0.4,0.9,0.5,1.7,0.2,2.4c-0.3,0.8-0.9,1.4-1.9,2c-1,0.6-1.9,0.9-2.7,0.8
				c-0.8-0.1-1.5-0.5-2.1-1.3C-1558.3-12.9-1559.5-14.6-1560.7-16.3z M-1555-12.5c0.2,0.4,0.5,0.6,0.8,0.6c0.3,0,0.6-0.1,0.9-0.2
				c0.3-0.2,0.5-0.4,0.7-0.7c0.1-0.3,0.1-0.6-0.2-1c-1.1-1.9-2.2-3.8-3.2-5.6c-0.2-0.4-0.5-0.6-0.8-0.6c-0.3,0-0.7,0.1-1,0.3
				c-0.4,0.2-0.6,0.5-0.8,0.8c-0.1,0.3-0.1,0.6,0.2,1C-1557.3-16.1-1556.1-14.3-1555-12.5z"/>
			<path class="st7" d="M-1549.4-22.1c1.2,2.7,2.3,5.3,3.5,8c-0.6,0.3-1.3,0.6-1.9,0.9c-1.7-3.6-3.5-7.2-5.2-10.8
				c1.1-0.5,2.2-1,3.2-1.4c1.8,1.8,3.6,3.7,5.2,5.7c-0.8-2.2-1.7-4.5-2.5-6.7c0.8-0.3,1.6-0.6,2.4-0.8c1.3,3.8,2.5,7.6,3.8,11.4
				c-0.8,0.2-1.5,0.5-2.3,0.8C-1545.1-17.6-1547.2-19.9-1549.4-22.1z"/>
			<path class="st7" d="M-1531.8-18.1c-0.8,0.1-1.5,0.2-2.3,0.4c-0.3-0.7-0.5-1.4-0.8-2.1c-1,0.2-1.9,0.4-2.9,0.6
				c0,0.7,0.1,1.5,0.2,2.2c-0.7,0.2-1.4,0.4-2.1,0.6c-0.4-4.1-0.7-8.1-0.8-12.3c1.3-0.3,2.7-0.6,4-0.9
				C-1534.7-25.8-1533.2-22-1531.8-18.1z M-1537.9-20.8c0.8-0.2,1.5-0.4,2.3-0.5c-0.8-1.9-1.7-3.8-2.5-5.7
				C-1538.1-24.9-1538-22.9-1537.9-20.8z"/>
			<path class="st7" d="M-1532-30.2c0.9-0.1,1.9-0.2,2.8-0.3c0.3,3.4,0.6,6.8,0.9,10.2c1.3-0.1,2.6-0.2,3.9-0.2c0,0.6,0,1.1,0,1.7
				c-2,0-4.1,0.2-6.1,0.4C-1531-22.3-1531.5-26.2-1532-30.2z"/>
			<path class="st7" d="M-1512.2-17.7c-0.8-0.1-1.5-0.3-2.3-0.4c0-0.7,0-1.5-0.1-2.2c-1-0.1-2-0.3-2.9-0.3c-0.2,0.7-0.4,1.4-0.6,2.1
				c-0.7-0.1-1.4-0.1-2.1-0.1c1-4,2.1-7.9,3.5-11.8c1.4,0.1,2.7,0.3,4.1,0.5C-1512.4-25.9-1512.2-21.8-1512.2-17.7z M-1517.1-22.3
				c0.8,0.1,1.6,0.2,2.4,0.3c-0.1-2.1-0.3-4.1-0.4-6.2C-1515.8-26.2-1516.5-24.3-1517.1-22.3z"/>
			<path class="st7" d="M-1508.4-29.2c0.9,0.2,1.8,0.4,2.7,0.6c-0.9,3.3-1.8,6.6-2.6,10c1.3,0.3,2.5,0.7,3.8,1.1
				c-0.2,0.5-0.4,1.1-0.5,1.6c-1.9-0.6-3.9-1.2-5.9-1.6C-1510.1-21.4-1509.2-25.3-1508.4-29.2z"/>
			<path class="st7" d="M-1499.7-26.8c0.9,0.3,1.8,0.6,2.6,1c-1.3,3.2-2.6,6.4-3.9,9.5c1.2,0.5,2.4,1,3.6,1.6
				c-0.3,0.5-0.5,1-0.8,1.5c-1.9-0.9-3.8-1.7-5.7-2.4C-1502.5-19.2-1501.1-23-1499.7-26.8z"/>
			<path class="st7" d="M-1491.5-23.2c0.8,0.4,1.7,0.9,2.5,1.3c-2,3.5-4,7-6,10.4c-0.7-0.4-1.4-0.8-2.1-1.1
				C-1495.2-16.1-1493.3-19.7-1491.5-23.2z"/>
			<path class="st7" d="M-1487-6c-0.6-0.5-1.3-1-1.9-1.5c0.3-0.7,0.7-1.3,1-2c-0.8-0.6-1.6-1.2-2.5-1.7c-0.5,0.5-1,1.1-1.6,1.6
				c-0.6-0.4-1.2-0.8-1.8-1.2c2.8-3,5.7-5.9,8.7-8.7c1.2,0.8,2.3,1.6,3.4,2.4C-1483.3-13.3-1485.1-9.6-1487-6z M-1489.2-12.4
				c0.7,0.5,1.3,0.9,2,1.4c0.9-1.9,1.7-3.8,2.5-5.7C-1486.3-15.3-1487.8-13.8-1489.2-12.4z"/>
			<path class="st7" d="M-1478.4-10c-2,2.1-4,4.2-6,6.4c-0.5-0.5-1.1-1-1.6-1.5c2.6-3,5.3-6.1,7.9-9.1c0.9,0.8,1.8,1.6,2.7,2.5
				c-0.9,2.4-2,4.8-3.1,7.1c1.7-1.7,3.5-3.3,5.2-5c0.6,0.6,1.2,1.3,1.8,2c-3,2.6-6,5.3-9,7.9c-0.6-0.6-1.1-1.3-1.7-1.9
				C-1480.9-4.2-1479.6-7.1-1478.4-10z"/>
			<path class="st7" d="M-1471.2,5.6c-0.5,0.3-0.9,0.6-1.4,0.8c-0.8,0.5-1.6,0.6-2.4,0.3c-0.8-0.3-1.5-0.9-2.2-1.9
				c-0.7-1-1.1-1.9-1.1-2.7c0-0.8,0.4-1.5,1.1-2.2c1.6-1.3,3.2-2.6,4.8-4c0.8-0.6,1.6-0.8,2.4-0.5c0.9,0.3,1.8,1,2.6,2.3
				c0.9,1.2,1.3,2.4,1.3,3.3c0,0.9-0.5,1.7-1.3,2.2c-0.3,0.2-0.7,0.4-1,0.6c-0.5-0.8-1-1.6-1.5-2.3c0.4-0.2,0.7-0.5,1.1-0.7
				c0.4-0.2,0.5-0.5,0.5-0.9c0-0.3-0.2-0.7-0.4-1.1c-0.3-0.4-0.6-0.6-0.9-0.8c-0.3-0.1-0.6,0-1,0.2c-1.7,1.3-3.5,2.6-5.2,3.9
				c-0.3,0.3-0.5,0.5-0.5,0.8c0,0.3,0.1,0.6,0.4,1c0.2,0.3,0.5,0.6,0.8,0.7c0.3,0.1,0.6,0,1-0.2c0.5-0.3,0.9-0.6,1.4-1
				C-1472.2,4.1-1471.7,4.9-1471.2,5.6z"/>
			<path class="st7" d="M-1466.7,8.7c0.6,1.2,1.2,2.5,1.8,3.7c-0.5,0.2-1,0.5-1.6,0.7c-0.5-1.2-1.1-2.5-1.7-3.6
				c-1,0.5-2.1,1.1-3.1,1.6c0.7,1.4,1.4,2.9,2,4.4c-0.5,0.2-1.1,0.4-1.6,0.7c-1-2.3-2-4.5-3.2-6.5c3.5-2,6.9-4,10.4-6
				c1.4,2.5,2.7,5.2,3.9,7.9c-0.5,0.2-1.1,0.4-1.6,0.7c-0.7-1.7-1.5-3.4-2.3-5C-1464.7,7.7-1465.7,8.2-1466.7,8.7z"/>
		</g>
	</g>
	<g>
		<g>
			<path class="st7" d="M-1583.1,65.9c0.5,1.1,1.1,2.3,1.7,3.4c-0.5,0.3-1,0.5-1.5,0.8c-0.6-1.1-1.2-2.3-1.7-3.4
				c-1.5,0.7-3,1.4-4.5,2.1c-0.5-1-0.9-2-1.3-3c3.7-1.5,7.4-3.1,11.1-4.6c0.9,2.2,1.9,4.4,3.1,6.4c-0.5,0.3-1,0.6-1.5,0.8
				c-0.7-1.3-1.4-2.6-2-4C-1580.9,64.9-1582,65.4-1583.1,65.9z"/>
			<path class="st7" d="M-1578.3,69.9c0.8-0.5,1.7-0.6,2.5-0.2c0.8,0.3,1.5,1,2.2,2.1c0.7,1,1,2,1,2.8c0,0.8-0.4,1.6-1.2,2.2
				c-1.7,1.3-3.3,2.5-5,3.8c-0.8,0.6-1.6,0.7-2.5,0.4c-0.9-0.3-1.8-1.1-2.6-2.4c-0.8-1.3-1.2-2.4-1.2-3.4c0-1,0.5-1.7,1.3-2.2
				C-1581.9,72-1580.1,71-1578.3,69.9z M-1582.3,75.7c-0.4,0.2-0.6,0.5-0.5,0.9c0,0.3,0.1,0.7,0.4,1.1c0.3,0.4,0.5,0.7,0.8,0.8
				c0.3,0.1,0.6,0.1,1-0.2c1.8-1.2,3.5-2.5,5.3-3.7c0.4-0.2,0.5-0.5,0.5-0.8c0-0.3-0.1-0.6-0.3-1c-0.2-0.3-0.5-0.6-0.8-0.7
				c-0.3-0.1-0.6-0.1-1,0.2C-1578.6,73.4-1580.5,74.5-1582.3,75.7z"/>
			<path class="st7" d="M-1575.9,88.5c0-0.1,0.1-0.2,0.1-0.2c0-0.1,0.1-0.2,0.1-0.2c0.1-0.1,0.1-0.2,0.3-0.3
				c0.1-0.1,0.3-0.3,0.4-0.4c0.5-0.4,0.9-0.9,1.4-1.3c0.4-0.4,0.6-0.8,0.6-1.1c0-0.4-0.3-0.8-0.7-1.3c-0.2-0.2-0.4-0.5-0.6-0.7
				c-1.2,1.1-2.5,2.2-3.7,3.2c-0.6-0.7-1.3-1.5-1.9-2.3c3.1-2.5,6.2-5,9.4-7.6c0.8,1,1.6,1.9,2.4,2.9c0.9,1,1.3,1.8,1.4,2.5
				c0.1,0.7-0.2,1.4-0.8,2.1c-0.2,0.2-0.4,0.5-0.7,0.7c-0.9,0.9-1.8,1.1-2.9,0.5c0.3,0.6,0.4,1.2,0.3,1.7c-0.1,0.5-0.4,1-0.8,1.4
				c-0.4,0.4-0.9,0.9-1.3,1.3c-0.2,0.2-0.4,0.4-0.5,0.6c-0.1,0.2-0.2,0.4-0.3,0.7C-1574.5,89.9-1575.2,89.2-1575.9,88.5z
				 M-1570.3,79.3c-0.9,0.8-1.9,1.6-2.8,2.4c0.2,0.3,0.5,0.5,0.7,0.8c0.3,0.4,0.7,0.6,1,0.7c0.3,0.1,0.7,0,1-0.4
				c0.3-0.3,0.6-0.5,0.9-0.8c0.3-0.3,0.5-0.6,0.5-0.9c0-0.3-0.1-0.6-0.4-0.9C-1569.7,79.9-1570,79.6-1570.3,79.3z"/>
			<path class="st7" d="M-1561.9,85.1c0.6,0.5,1.2,1,1.9,1.5c-2.1,2.7-4.2,5.5-6.2,8.2c1.2,0.9,2.5,1.8,3.7,2.6
				c-0.3,0.5-0.6,1-1,1.4c-2.1-1.4-4.1-2.9-6.1-4.5C-1567,91.3-1564.5,88.2-1561.9,85.1z"/>
			<path class="st7" d="M-1554.5,103.9c-0.9-0.4-1.7-0.8-2.5-1.3c0.2-0.7,0.4-1.4,0.6-2.1c-1-0.5-2-1.1-2.9-1.6
				c-0.5,0.5-1,1.1-1.5,1.6c-0.7-0.4-1.5-0.9-2.2-1.4c3-2.8,5.9-5.8,8.6-8.8c1,0.6,2,1.1,3,1.7
				C-1552.6,95.9-1553.7,99.9-1554.5,103.9z M-1558.3,97.6c0.7,0.4,1.5,0.8,2.2,1.3c0.6-2,1.2-4,1.9-5.9
				C-1555.5,94.6-1556.9,96.1-1558.3,97.6z"/>
			<path class="st7" d="M-1549,93.2c2.2,1,4.4,1.9,6.7,2.6c-0.2,0.5-0.4,1.1-0.5,1.6c-0.8-0.3-1.6-0.5-2.4-0.8
				c-1.2,3.2-2.4,6.4-3.6,9.6c-0.9-0.3-1.7-0.7-2.6-1c1.3-3.2,2.7-6.3,4-9.5c-0.8-0.3-1.5-0.7-2.3-1
				C-1549.5,94.3-1549.2,93.7-1549,93.2z"/>
			<path class="st7" d="M-1541.3,96.1c0.7,0.2,1.5,0.4,2.2,0.6c-1.1,3.9-2.1,7.7-3.2,11.6c-0.9-0.2-1.8-0.5-2.7-0.8
				C-1543.7,103.8-1542.5,100-1541.3,96.1z"/>
			<path class="st7" d="M-1536.1,100.9c-0.6,2.8-1.2,5.7-1.8,8.5c-0.8-0.2-1.6-0.3-2.4-0.5c0.9-3.9,1.9-7.8,2.8-11.7
				c0.9,0.2,1.9,0.4,2.8,0.6c0.3,2.5,0.7,5,1.3,7.5c0.4-2.4,0.7-4.7,1.1-7.1c0.7,0.1,1.4,0.2,2,0.3c-0.5,4-0.9,7.9-1.4,11.9
				c-0.9-0.1-1.9-0.2-2.8-0.4C-1535.2,107-1535.7,103.9-1536.1,100.9z"/>
			<path class="st7" d="M-1529,101.5c0.1-1,0.5-1.7,1.1-2.1c0.6-0.5,1.5-0.7,2.7-0.6c1.1,0,2,0.3,2.6,0.8c0.6,0.5,0.9,1.3,1,2.2
				c0,2.1,0.1,4.2,0.1,6.2c0,1-0.3,1.7-1,2.3c-0.7,0.5-1.8,0.8-3.1,0.7c-1.4,0-2.4-0.4-3.1-1c-0.7-0.6-0.9-1.4-0.9-2.3
				C-1529.4,105.6-1529.2,103.5-1529,101.5z M-1527,108c0,0.4,0.1,0.7,0.3,0.9c0.2,0.2,0.6,0.3,1,0.3c0.4,0,0.8-0.1,1-0.2
				c0.3-0.2,0.4-0.5,0.4-0.9c0-2.2,0.1-4.3,0.1-6.5c0-0.4-0.1-0.7-0.3-0.9c-0.2-0.2-0.5-0.3-0.9-0.3c-0.4,0-0.7,0.1-0.9,0.2
				c-0.2,0.2-0.4,0.5-0.4,0.9C-1526.7,103.7-1526.9,105.8-1527,108z"/>
			<path class="st7" d="M-1517,101.5c-0.1-1,0.1-1.7,0.6-2.3c0.5-0.6,1.3-0.9,2.4-1.1c1.1-0.2,2-0.1,2.7,0.3c0.7,0.4,1.1,1.1,1.3,2
				c0,0.1,0.1,0.2,0.1,0.4c-0.8,0.2-1.5,0.3-2.3,0.4c0-0.2-0.1-0.3-0.1-0.5c-0.1-0.4-0.2-0.7-0.5-0.9c-0.2-0.1-0.5-0.2-0.9-0.1
				c-0.4,0.1-0.6,0.2-0.8,0.4c-0.2,0.2-0.2,0.5-0.2,0.9c0.1,0.4,0.2,0.8,0.5,1c0.3,0.3,0.6,0.5,1,0.8c0.4,0.2,0.8,0.4,1.3,0.6
				c0.5,0.2,0.9,0.4,1.3,0.7c0.4,0.3,0.8,0.6,1.1,0.9c0.3,0.4,0.6,0.8,0.7,1.4c0.2,1,0,1.8-0.6,2.4c-0.6,0.6-1.6,1.1-2.9,1.3
				c-1.3,0.2-2.4,0.1-3.1-0.4c-0.7-0.4-1.1-1.2-1.2-2.1c0-0.2,0-0.5-0.1-0.7c0.8-0.1,1.7-0.2,2.5-0.3c0,0.3,0.1,0.6,0.1,0.9
				c0.1,0.4,0.2,0.7,0.5,0.9c0.3,0.1,0.6,0.2,1,0.1c0.4-0.1,0.7-0.2,1-0.4c0.2-0.2,0.3-0.5,0.2-1c-0.1-0.4-0.3-0.7-0.6-1
				c-0.3-0.3-0.7-0.5-1.1-0.7c-0.4-0.2-0.9-0.4-1.3-0.7c-0.5-0.2-0.9-0.5-1.3-0.8c-0.4-0.3-0.7-0.6-1-1
				C-1516.8,102.5-1517,102.1-1517,101.5z"/>
			<path class="st7" d="M-1509.9,97.5c2.3-0.5,4.6-1.1,6.9-1.9c0.2,0.5,0.4,1.1,0.6,1.6c-0.8,0.3-1.6,0.5-2.4,0.8c1,3.3,2,6.6,3,9.9
				c-0.9,0.3-1.8,0.5-2.7,0.7c-0.9-3.3-1.7-6.6-2.6-10c-0.8,0.2-1.6,0.4-2.4,0.6C-1509.7,98.6-1509.8,98.1-1509.9,97.5z"/>
			<path class="st7" d="M-1500,94.5c1.2,2.9,2.3,5.7,3.5,8.6c0.2,0.4,0.4,0.6,0.7,0.7c0.3,0.1,0.7,0,1-0.2c0.4-0.2,0.7-0.4,0.8-0.6
				c0.2-0.3,0.2-0.6,0-1c-1.3-2.8-2.6-5.6-3.8-8.5c0.7-0.3,1.3-0.6,2-0.9c1.4,2.7,2.7,5.5,4.1,8.2c0.4,0.9,0.5,1.7,0.1,2.5
				c-0.4,0.8-1.2,1.4-2.5,2c-1.3,0.5-2.3,0.7-3.2,0.4c-0.8-0.2-1.4-0.8-1.7-1.8c-1-2.9-2.1-5.7-3.1-8.6
				C-1501.4,95.1-1500.7,94.8-1500,94.5z"/>
			<path class="st7" d="M-1494.3,91.9c1.1-0.6,2.2-1.2,3.2-1.8c1-0.6,1.9-0.9,2.7-0.8c0.8,0.1,1.4,0.5,2,1.3c1.2,1.7,2.3,3.3,3.5,5
				c0.6,0.8,0.7,1.6,0.4,2.4c-0.3,0.8-1,1.6-2.3,2.3c-1.3,0.8-2.6,1.5-3.9,2.2C-1490.6,99-1492.4,95.4-1494.3,91.9z M-1491.4,92.3
				c1.4,2.5,2.9,5,4.3,7.4c0.4-0.3,0.9-0.5,1.3-0.8c0.4-0.2,0.6-0.5,0.7-0.8c0.1-0.3,0.1-0.6-0.2-1c-1.1-1.8-2.2-3.5-3.4-5.3
				c-0.2-0.4-0.5-0.6-0.8-0.6c-0.3,0-0.6,0.1-0.9,0.3C-1490.6,91.8-1491,92-1491.4,92.3z"/>
			<path class="st7" d="M-1481.8,89.8c0.9-0.7,1.8-1.5,2.7-2.3c0.4,0.4,0.8,0.9,1.1,1.3c-0.9,0.8-1.9,1.6-2.8,2.4
				c0.7,0.9,1.5,1.8,2.2,2.8c1.3-1,2.5-2,3.7-3.1c0.4,0.4,0.8,0.8,1.2,1.3c-1.9,1.8-4,3.4-6.1,4.9c-2.4-3.2-4.7-6.5-7.1-9.7
				c1.7-1.3,3.4-2.7,5.1-4.1c0.4,0.4,0.8,0.8,1.2,1.3c-1.1,1-2.1,1.9-3.2,2.8C-1483.2,88.1-1482.5,88.9-1481.8,89.8z"/>
			<path class="st7" d="M-1476.8,82.9c2.1,2,4.2,4.1,6.2,6.1c-0.6,0.6-1.2,1.2-1.9,1.9c-2.8-2.9-5.5-5.8-8.3-8.7
				c0.7-0.7,1.4-1.4,2.2-2.2c2.3,1,4.7,2,7.1,2.9c-1.8-1.6-3.6-3.2-5.4-4.7c0.5-0.6,0.9-1.1,1.4-1.7c3.1,2.5,6.2,5.1,9.3,7.6
				c-0.6,0.8-1.3,1.6-2,2.3C-1471.1,85.3-1474,84.2-1476.8,82.9z"/>
			<path class="st7" d="M-1474.8,75.5c1.6-2,3-4.2,4.4-6.5c0.5,0.3,1,0.6,1.5,0.9c-0.5,0.8-1,1.6-1.4,2.4c2.9,1.9,5.7,3.8,8.6,5.6
				c-0.6,0.9-1.1,1.7-1.7,2.5c-2.8-2-5.6-4-8.4-6c-0.5,0.7-1.1,1.5-1.6,2.2C-1473.9,76.2-1474.4,75.9-1474.8,75.5z"/>
			<path class="st7" d="M-1467.5,69.7c-0.8-0.5-1.3-1.1-1.5-2c-0.1-0.8,0.1-1.8,0.7-3c0.6-1.2,1.2-2,2-2.4c0.7-0.4,1.6-0.4,2.5-0.1
				c0.1,0,0.2,0.1,0.3,0.1c-0.3,0.8-0.7,1.7-1.1,2.5c-0.2-0.1-0.3-0.1-0.5-0.2c-0.4-0.2-0.7-0.2-1-0.1c-0.3,0.1-0.5,0.4-0.7,0.8
				c-0.2,0.4-0.3,0.7-0.2,1c0,0.3,0.3,0.5,0.7,0.7c0.4,0.2,0.7,0.2,1.2,0.1c0.4-0.1,0.8-0.3,1.3-0.5c0.4-0.3,0.9-0.5,1.3-0.9
				c0.5-0.3,0.9-0.6,1.4-0.9c0.5-0.3,1-0.5,1.5-0.6c0.5-0.1,1-0.1,1.5,0.2c0.9,0.4,1.4,1,1.6,2c0.2,0.9-0.1,2.2-0.8,3.6
				c-0.7,1.4-1.5,2.3-2.3,2.8c-0.8,0.4-1.7,0.4-2.5-0.1c-0.2-0.1-0.4-0.2-0.6-0.4c0.5-0.8,0.9-1.6,1.3-2.5c0.3,0.1,0.5,0.3,0.8,0.4
				c0.4,0.2,0.7,0.2,1,0c0.3-0.2,0.5-0.5,0.8-0.9c0.2-0.4,0.3-0.8,0.3-1.2c0-0.3-0.2-0.6-0.6-0.8c-0.4-0.2-0.8-0.2-1.2-0.1
				c-0.4,0.1-0.8,0.3-1.3,0.6c-0.4,0.3-0.9,0.6-1.4,0.9c-0.5,0.3-1,0.6-1.4,0.8c-0.5,0.2-1,0.3-1.5,0.4
				C-1466.6,70.1-1467.1,70-1467.5,69.7z"/>
		</g>
	</g>
</g>
<rect id="_x3C_Slice_x3E__4_" x="-2413" y="-189" class="st18" width="45" height="53"/>
<g>
	<path class="st19" d="M-940,73.5h-37.5V10.1c14-9.1,37.1-0.3,37.1-0.3"/>
	<path class="st19" d="M-940,69l-0.3-59.2c0,0,24.8-8.9,37.8,0.2v63.4H-940"/>
	<path class="st7" d="M-940.8,69.7c-10.1-8.3-32.2,0-32.2,0v-57c10-7.9,32.5,0.6,32.5,0.6"/>
	<path class="st7" d="M-938,69.7c10.1-8.3,32,0,32,0v-57c-10-7.9-32.4,0.6-32.4,0.6"/>
	<g>
		<g>
			<path class="st21" d="M-967.9,26.8c8.1-1.4,16.4-1.4,24.5,0"/>
		</g>
		<g>
			<path class="st21" d="M-967.9,32.9c8.1-1.4,16.4-1.4,24.5,0"/>
		</g>
		<g>
			<path class="st21" d="M-967.9,39.1c8.1-1.4,16.4-1.4,24.5,0"/>
		</g>
		<g>
			<path class="st21" d="M-967.9,45.2c8.1-1.4,16.4-1.4,24.5,0"/>
		</g>
		<g>
			<path class="st21" d="M-967.9,51.3c8.1-1.4,16.4-1.4,24.5,0"/>
		</g>
	</g>
	<g>
		<g>
			<path class="st21" d="M-935.8,26.8c8.1-1.4,16.4-1.4,24.5,0"/>
		</g>
		<g>
			<path class="st21" d="M-935.8,32.9c8.1-1.4,16.4-1.4,24.5,0"/>
		</g>
		<g>
			<path class="st21" d="M-935.8,39.1c8.1-1.4,16.4-1.4,24.5,0"/>
		</g>
		<g>
			<path class="st21" d="M-935.8,45.2c8.1-1.4,16.4-1.4,24.5,0"/>
		</g>
		<g>
			<path class="st21" d="M-935.8,51.3c8.1-1.4,16.4-1.4,24.5,0"/>
		</g>
	</g>
</g>
<rect id="_x3C_Slice_x3E__5_" x="-1459" y="-18" class="st18" width="54" height="52"/>
<path class="st14" d="M77.4,42.3c0-0.8,0.1-1.5,0.1-2.3s0-1.5-0.1-2.3L67,35.4c-0.2-1-0.5-2-0.8-2.9l8.5-6.6c-0.6-1.4-1.3-2.8-2-4.2
	l-10.8,2.6c-0.5-0.7-1.1-1.4-1.7-2.1l4.9-10c-1.1-1-2.4-2-3.6-2.9l-8.8,7.1c-0.7-0.4-1.5-0.8-2.3-1.1L50.6,4c-1.5-0.4-3-0.8-4.5-1
	l-4.8,10.2c-0.5,0-1.1,0-1.6,0c-0.3,0-0.6,0-1,0L33.9,3c-1.5,0.3-3,0.6-4.5,1l0.1,11.1c-0.9,0.3-1.7,0.7-2.6,1.1l-8.5-6.9
	c-1.3,0.9-2.5,1.8-3.6,2.9l4.7,9.6c-0.7,0.8-1.4,1.6-2.1,2.4L7.3,21.7c-0.8,1.3-1.4,2.7-2,4.2l8,6.2c-0.4,1.1-0.7,2.3-0.9,3.5
	l-9.8,2.1c0,0.8-0.1,1.5-0.1,2.3s0,1.5,0.1,2.3l9.4,2c0.2,1.4,0.4,2.7,0.8,4l-7.5,5.8c0.6,1.4,1.3,2.8,2,4.2l9-2.1
	c0.8,1.2,1.7,2.4,2.6,3.5l-4,8.2c1.1,1,2.4,2,3.6,2.9l7-5.7c1.3,0.8,2.7,1.4,4.1,2l-0.1,9c1.5,0.4,3,0.8,4.5,1l3.8-8.1
	c0.6,0,1.3,0.1,1.9,0.1c0.9,0,1.7,0,2.6-0.1l3.8,8.2c1.5-0.3,3-0.6,4.5-1l-0.1-9.2c1.3-0.6,2.6-1.2,3.8-2l7.2,5.9
	c1.3-0.9,2.5-1.8,3.6-2.9l-4.3-8.6c0.8-1,1.6-2,2.3-3.1l9.5,2.3c0.8-1.3,1.4-2.7,2-4.2l-8-6.3c0.3-1.1,0.5-2.2,0.6-3.4L77.4,42.3z
	 M40,52.6c-7,0-12.6-5.6-12.6-12.6S33,27.4,40,27.4c7,0,12.6,5.6,12.6,12.6S47,52.6,40,52.6z"/>
<path class="st14" d="M1049.6,26.2c-14.4-31.6-44.8-31.6-59.2,0c-6.1,13.5,29.6,51.3,29.6,51.3S1055.7,39.7,1049.6,26.2z M1020,42.2
	c-5.3,0-9.6-4.6-9.6-10.3s4.3-10.3,9.6-10.3s9.6,4.6,9.6,10.3S1025.3,42.2,1020,42.2z"/>
</svg>
