<?xml version="1.0" encoding="utf-8"?>
<!-- Generator: Adobe Illustrator 19.1.0, SVG Export Plug-In . SVG Version: 6.00 Build 0)  -->
<svg version="1.1" id="Layer_1" xmlns="http://www.w3.org/2000/svg" xmlns:xlink="http://www.w3.org/1999/xlink" x="0px" y="0px"
	 viewBox="0 0 80 80" style="enable-background:new 0 0 80 80;" xml:space="preserve">
<style type="text/css">
	.st0{enable-background:new    ;}
	.st1{fill:url(#SVGID_1_);}
	.st2{fill:url(#SVGID_2_);}
	.st3{fill:url(#SVGID_3_);}
	.st4{fill:url(#SVGID_4_);}
	.st5{fill:url(#SVGID_5_);}
	.st6{fill:url(#SVGID_6_);}
	.st7{fill:#FFFFFF;}
	.st8{fill:url(#SVGID_7_);}
	.st9{fill:url(#SVGID_8_);}
	.st10{fill:url(#SVGID_9_);}
	.st11{fill:url(#SVGID_10_);}
	.st12{fill:url(#SVGID_11_);}
	.st13{fill:url(#SVGID_12_);}
	.st14{fill:#C1272D;}
	.st15{fill:#2E3192;}
	.st16{fill:#FFFFFF;stroke:#2E3192;stroke-width:0.5714;stroke-miterlimit:10;}
	.st17{fill:#FFFFFF;stroke:#2E3192;stroke-width:2.2857;stroke-miterlimit:10;}
	.st18{fill:none;}
	.st19{fill:#C1272D;stroke:#C1272D;stroke-miterlimit:10;}
	.st20{fill:none;stroke:#C1272D;stroke-width:0.6544;stroke-miterlimit:10;}
	.st21{fill:none;stroke:#C1272D;stroke-width:0.9816;stroke-miterlimit:10;}
	.st22{fill:none;stroke:#000000;stroke-width:0.783;stroke-miterlimit:10;stroke-dasharray:12.2961,12.2961;}
</style>
<g>
	<circle class="st22" cx="40" cy="40" r="39.1"/>
	<animateTransform attributeName="transform"
        	attributeType="XML"
        	type="rotate"
        	from="0 40 40"
        	to="360 40 40"
        	dur="10s"
        	repeatCount="indefinite" />
</g>
<circle cx="40" cy="40" r="30"/>

<path class="st7" d="M28.4,46.1L28.4,46.1c-1.1,0-2-0.9-2-2v-8.3c0-1.1,0.9-2,2-2h0c1.1,0,2,0.9,2,2v8.3
	C30.4,45.2,29.5,46.1,28.4,46.1z">
	<animateTransform id="first"
	attributeName="transform"
	type="translate"
	dur="1s"
	values="0,6;0,-6;0,6"
	repeatCount="indefinite"/>
	</path>

<path class="st7" d="M34.2,46.1L34.2,46.1c-1.1,0-2-0.9-2-2v-8.3c0-1.1,0.9-2,2-2h0c1.1,0,2,0.9,2,2v8.3
	C36.2,45.2,35.3,46.1,34.2,46.1z">
	<animateTransform id="first"
    	attributeName="transform"
    	type="translate"
    	begin=".1"
    	dur="1s"
    	values="0,6;0,-6;0,6"
    	repeatCount="indefinite"/>
	</path>

<path class="st7" d="M40,46.1L40,46.1c-1.1,0-2-0.9-2-2v-8.3c0-1.1,0.9-2,2-2h0c1.1,0,2,0.9,2,2v8.3C42,45.2,41.1,46.1,40,46.1z">
<animateTransform id="first"
	attributeName="transform"
	type="translate"
	begin=".2"
	dur="1s"
	values="0,6;0,-6;0,6"
	repeatCount="indefinite"/>
</path>

<path class="st7" d="M45.8,46.1L45.8,46.1c-1.1,0-2-0.9-2-2v-8.3c0-1.1,0.9-2,2-2h0c1.1,0,2,0.9,2,2v8.3
	C47.7,45.2,46.9,46.1,45.8,46.1z">
	<animateTransform id="first"
    	attributeName="transform"
    	type="translate"
    	begin=".3"
    	dur="1s"
    	values="0,6;0,-6;0,6"
    	repeatCount="indefinite"/>
	</path>

<path class="st7" d="M51.6,46.1L51.6,46.1c-1.1,0-2-0.9-2-2v-8.3c0-1.1,0.9-2,2-2h0c1.1,0,2,0.9,2,2v8.3
	C53.5,45.2,52.7,46.1,51.6,46.1z">
	<animateTransform id="first"
    	attributeName="transform"
    	type="translate"
    	begin=".4"
    	dur="1s"
    	values="0,6;0,-6;0,6"
    	repeatCount="indefinite"/>
	</path>
</svg>
