<?xml version="1.0" encoding="utf-8"?>
<!-- Generator: Adobe Illustrator 19.1.0, SVG Export Plug-In . SVG Version: 6.00 Build 0)  -->
<svg version="1.1" id="Layer_1" xmlns="http://www.w3.org/2000/svg" xmlns:xlink="http://www.w3.org/1999/xlink" x="0px" y="0px"
	 viewBox="0 0 166 166" style="enable-background:new 0 0 166 166;" xml:space="preserve">
<style type="text/css">
	.st0{enable-background:new    ;}
	.st1{fill:url(#SVGID_1_);}
	.st2{fill:url(#SVGID_2_);}
	.st3{fill:url(#SVGID_3_);}
	.st4{fill:url(#SVGID_4_);}
	.st5{fill:url(#SVGID_5_);}
	.st6{fill:url(#SVGID_6_);}
	.st7{fill:#FFFFFF;}
	.st8{fill:url(#SVGID_7_);}
	.st9{fill:url(#SVGID_8_);}
	.st10{fill:url(#SVGID_9_);}
	.st11{fill:url(#SVGID_10_);}
	.st12{fill:url(#SVGID_11_);}
	.st13{fill:url(#SVGID_12_);}
	.st14{fill:#C1272D;}
	.st15{fill:#2E3192;}
	.st16{fill:#FFFFFF;stroke:#2E3192;stroke-width:0.5714;stroke-miterlimit:10;}
	.st17{fill:#FFFFFF;stroke:#2E3192;stroke-width:2.2857;stroke-miterlimit:10;}
	.st18{fill:none;}
	.st19{fill:#C1272D;stroke:#C1272D;stroke-miterlimit:10;}
	.st20{fill:none;stroke:#C1272D;stroke-width:0.6544;stroke-miterlimit:10;}
	.st21{fill:none;stroke:#C1272D;stroke-width:0.9816;stroke-miterlimit:10;}
	.st22{opacity:0.5;}
	.st23{fill:none;stroke:#000000;stroke-width:0.783;stroke-miterlimit:10;stroke-dasharray:12.2961,12.2961;}
</style>
<g>
	<circle class="st15" cx="83.4" cy="83" r="80"/>
	<g>
		<g>
			<path class="st7" d="M44.2,113.3c-0.7-1.2,1.4-4.8,2.8-4.8c1.4,0,3.3,3.5,2.8,4.8C49.2,114.6,44.9,114.5,44.2,113.3z"/>
			<rect x="44.9" y="81.2" class="st7" width="2.3" height="25.6"/>
			<path class="st16" d="M46.6,109.4h-1.1c-0.5,0-0.9-0.4-0.9-0.9v-1.1c0-0.5,0.4-0.9,0.9-0.9h1.1c0.5,0,0.9,0.4,0.9,0.9v1.1
				C47.4,109,47.1,109.4,46.6,109.4z"/>
		</g>
		<path class="st7" d="M105.2,109.6c-8.1,5.3-38.5,5.9-45.7,0s0-30.1,0-30.1h45.7C105.2,79.5,113.3,104.3,105.2,109.6z"/>
		<path class="st17" d="M124.1,78l-39.1,22c-1.3,0.8-3.5,0.8-4.8,0L41,78c-1.6-0.9-1.9-2.4-0.6-3.4l39.1-27.7c1.6-1.2,4.3-1.2,6,0
			l39.1,27.7C126,75.6,125.7,77.1,124.1,78z"/>
	</g>
	<g>
		<g>
			<path class="st7" d="M23.8,53.2c2.6,1.2,5.3,2.4,7.9,3.7c-0.3,0.7-0.7,1.5-1,2.2c-3.7-1.5-7.4-3.1-11.1-4.6
				c0.5-1.3,1.1-2.5,1.7-3.8c2.6,0,5.2,0.2,7.8,0.5c-2.1-1.2-4.2-2.3-6.3-3.5c0.4-0.8,0.9-1.7,1.4-2.5c3.4,2.1,6.9,4.1,10.3,6.2
				c-0.5,0.8-0.9,1.5-1.3,2.3C30,53.5,26.9,53.3,23.8,53.2z"/>
			<path class="st7" d="M40.4,43.2c-0.5,0.6-1.1,1.3-1.6,1.9c-0.7-0.3-1.3-0.7-2-1c-0.7,0.8-1.3,1.7-1.9,2.6c0.5,0.5,1,1.1,1.5,1.6
				c-0.4,0.6-0.9,1.3-1.3,2c-2.9-2.9-5.7-5.9-8.4-9.1c0.9-1.2,1.7-2.4,2.7-3.6C33.2,39.4,36.8,41.2,40.4,43.2z M33.8,45.5
				c0.5-0.7,1-1.4,1.5-2.1c-1.9-0.9-3.7-1.8-5.6-2.6C31,42.4,32.4,44,33.8,45.5z"/>
			<path class="st7" d="M31.9,34.7c2-2.3,4.2-4.4,6.5-6.4c0.4,0.4,0.7,0.9,1.1,1.3c-0.8,0.6-1.5,1.3-2.2,2c2.3,2.5,4.7,5,7,7.6
				c-0.6,0.6-1.2,1.1-1.7,1.7c-2.4-2.4-4.9-4.8-7.3-7.3c-0.7,0.7-1.4,1.5-2.1,2.2C32.8,35.4,32.4,35.1,31.9,34.7z"/>
			<path class="st7" d="M39.6,27.3c0.8-0.6,1.5-1.2,2.3-1.8c2.4,3.2,4.8,6.4,7.2,9.7c-0.6,0.5-1.3,1-1.9,1.5
				C44.7,33.6,42.2,30.4,39.6,27.3z"/>
			<path class="st7" d="M45.3,26.7c-0.6-0.8-0.7-1.6-0.4-2.5c0.3-0.8,1.1-1.7,2.3-2.4c1.2-0.7,2.3-1,3.2-0.9c0.9,0.1,1.6,0.6,2,1.5
				c1,1.8,1.9,3.7,2.9,5.5c0.4,0.9,0.5,1.7,0.2,2.4c-0.3,0.8-0.9,1.4-1.9,2c-1,0.6-1.9,0.9-2.7,0.8c-0.8-0.1-1.5-0.5-2.1-1.3
				C47.7,30.1,46.5,28.4,45.3,26.7z M51,30.5c0.2,0.4,0.5,0.6,0.8,0.6c0.3,0,0.6-0.1,0.9-0.2c0.3-0.2,0.5-0.4,0.7-0.7
				c0.1-0.3,0.1-0.6-0.2-1c-1.1-1.9-2.2-3.8-3.2-5.6c-0.2-0.4-0.5-0.6-0.8-0.6c-0.3,0-0.7,0.1-1,0.3c-0.4,0.2-0.6,0.5-0.8,0.8
				c-0.1,0.3-0.1,0.6,0.2,1C48.7,26.9,49.9,28.7,51,30.5z"/>
			<path class="st7" d="M56.6,20.9c1.2,2.7,2.3,5.3,3.5,8c-0.6,0.3-1.3,0.6-1.9,0.9c-1.7-3.6-3.5-7.2-5.2-10.8
				c1.1-0.5,2.2-1,3.2-1.4c1.8,1.8,3.6,3.7,5.2,5.7c-0.8-2.2-1.7-4.5-2.5-6.7c0.8-0.3,1.6-0.6,2.4-0.8c1.3,3.8,2.5,7.6,3.8,11.4
				c-0.8,0.2-1.5,0.5-2.3,0.8C60.9,25.4,58.8,23.1,56.6,20.9z"/>
			<path class="st7" d="M74.2,24.9c-0.8,0.1-1.5,0.2-2.3,0.4c-0.3-0.7-0.5-1.4-0.8-2.1c-1,0.2-1.9,0.4-2.9,0.6
				c0,0.7,0.1,1.5,0.2,2.2c-0.7,0.2-1.4,0.4-2.1,0.6c-0.4-4.1-0.7-8.1-0.8-12.3c1.3-0.3,2.7-0.6,4-0.9C71.3,17.2,72.8,21,74.2,24.9z
				 M68.1,22.2c0.8-0.2,1.5-0.4,2.3-0.5c-0.8-1.9-1.7-3.8-2.5-5.7C67.9,18.1,68,20.1,68.1,22.2z"/>
			<path class="st7" d="M74,12.8c0.9-0.1,1.9-0.2,2.8-0.3c0.3,3.4,0.6,6.8,0.9,10.2c1.3-0.1,2.6-0.2,3.9-0.2c0,0.6,0,1.1,0,1.7
				c-2,0-4.1,0.2-6.1,0.4C75,20.7,74.5,16.8,74,12.8z"/>
			<path class="st7" d="M93.8,25.3c-0.8-0.1-1.5-0.3-2.3-0.4c0-0.7,0-1.5-0.1-2.2c-1-0.1-2-0.3-2.9-0.3c-0.2,0.7-0.4,1.4-0.6,2.1
				c-0.7-0.1-1.4-0.1-2.1-0.1c1-4,2.1-7.9,3.5-11.8c1.4,0.1,2.7,0.3,4.1,0.5C93.6,17.1,93.8,21.2,93.8,25.3z M88.9,20.7
				c0.8,0.1,1.6,0.2,2.4,0.3c-0.1-2.1-0.3-4.1-0.4-6.2C90.2,16.8,89.5,18.7,88.9,20.7z"/>
			<path class="st7" d="M97.6,13.8c0.9,0.2,1.8,0.4,2.7,0.6c-0.9,3.3-1.8,6.6-2.6,10c1.3,0.3,2.5,0.7,3.8,1.1
				c-0.2,0.5-0.4,1.1-0.5,1.6c-1.9-0.6-3.9-1.2-5.9-1.6C95.9,21.6,96.8,17.7,97.6,13.8z"/>
			<path class="st7" d="M106.3,16.2c0.9,0.3,1.8,0.6,2.6,1c-1.3,3.2-2.6,6.4-3.9,9.5c1.2,0.5,2.4,1,3.6,1.6c-0.3,0.5-0.5,1-0.8,1.5
				c-1.9-0.9-3.8-1.7-5.7-2.4C103.5,23.8,104.9,20,106.3,16.2z"/>
			<path class="st7" d="M114.5,19.8c0.8,0.4,1.7,0.9,2.5,1.3c-2,3.5-4,7-6,10.4c-0.7-0.4-1.4-0.8-2.1-1.1
				C110.8,26.9,112.7,23.3,114.5,19.8z"/>
			<path class="st7" d="M119,37c-0.6-0.5-1.3-1-1.9-1.5c0.3-0.7,0.7-1.3,1-2c-0.8-0.6-1.6-1.2-2.5-1.7c-0.5,0.5-1,1.1-1.6,1.6
				c-0.6-0.4-1.2-0.8-1.8-1.2c2.8-3,5.7-5.9,8.7-8.7c1.2,0.8,2.3,1.6,3.4,2.4C122.7,29.7,120.9,33.4,119,37z M116.8,30.6
				c0.7,0.5,1.3,0.9,2,1.4c0.9-1.9,1.7-3.8,2.5-5.7C119.7,27.7,118.2,29.2,116.8,30.6z"/>
			<path class="st7" d="M127.6,33c-2,2.1-4,4.2-6,6.4c-0.5-0.5-1.1-1-1.6-1.5c2.6-3,5.3-6.1,7.9-9.1c0.9,0.8,1.8,1.6,2.7,2.5
				c-0.9,2.4-2,4.8-3.1,7.1c1.7-1.7,3.5-3.3,5.2-5c0.6,0.6,1.2,1.3,1.8,2c-3,2.6-6,5.3-9,7.9c-0.6-0.6-1.1-1.3-1.7-1.9
				C125.1,38.8,126.4,35.9,127.6,33z"/>
			<path class="st7" d="M134.8,48.6c-0.5,0.3-0.9,0.6-1.4,0.8c-0.8,0.5-1.6,0.6-2.4,0.3c-0.8-0.3-1.5-0.9-2.2-1.9
				c-0.7-1-1.1-1.9-1.1-2.7c0-0.8,0.4-1.5,1.1-2.2c1.6-1.3,3.2-2.6,4.8-4c0.8-0.6,1.6-0.8,2.4-0.5c0.9,0.3,1.8,1,2.6,2.3
				c0.9,1.2,1.3,2.4,1.3,3.3c0,0.9-0.5,1.7-1.3,2.2c-0.3,0.2-0.7,0.4-1,0.6c-0.5-0.8-1-1.6-1.5-2.3c0.4-0.2,0.7-0.5,1.1-0.7
				c0.4-0.2,0.5-0.5,0.5-0.9c0-0.3-0.2-0.7-0.4-1.1c-0.3-0.4-0.6-0.6-0.9-0.8c-0.3-0.1-0.6,0-1,0.2c-1.7,1.3-3.5,2.6-5.2,3.9
				c-0.3,0.3-0.5,0.5-0.5,0.8c0,0.3,0.1,0.6,0.4,1c0.2,0.3,0.5,0.6,0.8,0.7c0.3,0.1,0.6,0,1-0.2c0.5-0.3,0.9-0.6,1.4-1
				C133.8,47.1,134.3,47.9,134.8,48.6z"/>
			<path class="st7" d="M139.3,51.7c0.6,1.2,1.2,2.5,1.8,3.7c-0.5,0.2-1,0.5-1.6,0.7c-0.5-1.2-1.1-2.5-1.7-3.6
				c-1,0.5-2.1,1.1-3.1,1.6c0.7,1.4,1.4,2.9,2,4.4c-0.5,0.2-1.1,0.4-1.6,0.7c-1-2.3-2-4.5-3.2-6.5c3.5-2,6.9-4,10.4-6
				c1.4,2.5,2.7,5.2,3.9,7.9c-0.5,0.2-1.1,0.4-1.6,0.7c-0.7-1.7-1.5-3.4-2.3-5C141.3,50.7,140.3,51.2,139.3,51.7z"/>
		</g>
	</g>
	<g>
		<g>
			<path class="st7" d="M22.9,108.9c0.5,1.1,1.1,2.3,1.7,3.4c-0.5,0.3-1,0.5-1.5,0.8c-0.6-1.1-1.2-2.3-1.7-3.4
				c-1.5,0.7-3,1.4-4.5,2.1c-0.5-1-0.9-2-1.3-3c3.7-1.5,7.4-3.1,11.1-4.6c0.9,2.2,1.9,4.4,3.1,6.4c-0.5,0.3-1,0.6-1.5,0.8
				c-0.7-1.3-1.4-2.6-2-4C25.1,107.9,24,108.4,22.9,108.9z"/>
			<path class="st7" d="M27.7,112.9c0.8-0.5,1.7-0.6,2.5-0.2c0.8,0.3,1.5,1,2.2,2.1c0.7,1,1,2,1,2.8c0,0.8-0.4,1.6-1.2,2.2
				c-1.7,1.3-3.3,2.5-5,3.8c-0.8,0.6-1.6,0.7-2.5,0.4c-0.9-0.3-1.8-1.1-2.6-2.4c-0.8-1.3-1.2-2.4-1.2-3.4c0-1,0.5-1.7,1.3-2.2
				C24.1,115,25.9,114,27.7,112.9z M23.7,118.7c-0.4,0.2-0.6,0.5-0.5,0.9c0,0.3,0.1,0.7,0.4,1.1c0.3,0.4,0.5,0.7,0.8,0.8
				c0.3,0.1,0.6,0.1,1-0.2c1.8-1.2,3.5-2.5,5.3-3.7c0.4-0.2,0.5-0.5,0.5-0.8c0-0.3-0.1-0.6-0.3-1c-0.2-0.3-0.5-0.6-0.8-0.7
				c-0.3-0.1-0.6-0.1-1,0.2C27.4,116.4,25.5,117.5,23.7,118.7z"/>
			<path class="st7" d="M30.1,131.5c0-0.1,0.1-0.2,0.1-0.2c0-0.1,0.1-0.2,0.1-0.2c0.1-0.1,0.1-0.2,0.3-0.3c0.1-0.1,0.3-0.3,0.4-0.4
				c0.5-0.4,0.9-0.9,1.4-1.3c0.4-0.4,0.6-0.8,0.6-1.1c0-0.4-0.3-0.8-0.7-1.3c-0.2-0.2-0.4-0.5-0.6-0.7c-1.2,1.1-2.5,2.2-3.7,3.2
				c-0.6-0.7-1.3-1.5-1.9-2.3c3.1-2.5,6.2-5,9.4-7.6c0.8,1,1.6,1.9,2.4,2.9c0.9,1,1.3,1.8,1.4,2.5c0.1,0.7-0.2,1.4-0.8,2.1
				c-0.2,0.2-0.4,0.5-0.7,0.7c-0.9,0.9-1.8,1.1-2.9,0.5c0.3,0.6,0.4,1.2,0.3,1.7c-0.1,0.5-0.4,1-0.8,1.4c-0.4,0.4-0.9,0.9-1.3,1.3
				c-0.2,0.2-0.4,0.4-0.5,0.6c-0.1,0.2-0.2,0.4-0.3,0.7C31.5,132.9,30.8,132.2,30.1,131.5z M35.7,122.3c-0.9,0.8-1.9,1.6-2.8,2.4
				c0.2,0.3,0.5,0.5,0.7,0.8c0.3,0.4,0.7,0.6,1,0.7c0.3,0.1,0.7,0,1-0.4c0.3-0.3,0.6-0.5,0.9-0.8c0.3-0.3,0.5-0.6,0.5-0.9
				c0-0.3-0.1-0.6-0.4-0.9C36.3,122.9,36,122.6,35.7,122.3z"/>
			<path class="st7" d="M44.1,128.1c0.6,0.5,1.2,1,1.9,1.5c-2.1,2.7-4.2,5.5-6.2,8.2c1.2,0.9,2.5,1.8,3.7,2.6c-0.3,0.5-0.6,1-1,1.4
				c-2.1-1.4-4.1-2.9-6.1-4.5C39,134.3,41.5,131.2,44.1,128.1z"/>
			<path class="st7" d="M51.5,146.9c-0.9-0.4-1.7-0.8-2.5-1.3c0.2-0.7,0.4-1.4,0.6-2.1c-1-0.5-2-1.1-2.9-1.6c-0.5,0.5-1,1.1-1.5,1.6
				c-0.7-0.4-1.5-0.9-2.2-1.4c3-2.8,5.9-5.8,8.6-8.8c1,0.6,2,1.1,3,1.7C53.4,138.9,52.3,142.9,51.5,146.9z M47.7,140.6
				c0.7,0.4,1.5,0.8,2.2,1.3c0.6-2,1.2-4,1.9-5.9C50.5,137.6,49.1,139.1,47.7,140.6z"/>
			<path class="st7" d="M57,136.2c2.2,1,4.4,1.9,6.7,2.6c-0.2,0.5-0.4,1.1-0.5,1.6c-0.8-0.3-1.6-0.5-2.4-0.8
				c-1.2,3.2-2.4,6.4-3.6,9.6c-0.9-0.3-1.7-0.7-2.6-1c1.3-3.2,2.7-6.3,4-9.5c-0.8-0.3-1.5-0.7-2.3-1C56.5,137.3,56.8,136.7,57,136.2
				z"/>
			<path class="st7" d="M64.7,139.1c0.7,0.2,1.5,0.4,2.2,0.6c-1.1,3.9-2.1,7.7-3.2,11.6c-0.9-0.2-1.8-0.5-2.7-0.8
				C62.3,146.8,63.5,143,64.7,139.1z"/>
			<path class="st7" d="M69.9,143.9c-0.6,2.8-1.2,5.7-1.8,8.5c-0.8-0.2-1.6-0.3-2.4-0.5c0.9-3.9,1.9-7.8,2.8-11.7
				c0.9,0.2,1.9,0.4,2.8,0.6c0.3,2.5,0.7,5,1.3,7.5c0.4-2.4,0.7-4.7,1.1-7.1c0.7,0.1,1.4,0.2,2,0.3c-0.5,4-0.9,7.9-1.4,11.9
				c-0.9-0.1-1.9-0.2-2.8-0.4C70.8,150,70.3,146.9,69.9,143.9z"/>
			<path class="st7" d="M77,144.5c0.1-1,0.5-1.7,1.1-2.1c0.6-0.5,1.5-0.7,2.7-0.6c1.1,0,2,0.3,2.6,0.8c0.6,0.5,0.9,1.3,1,2.2
				c0,2.1,0.1,4.2,0.1,6.2c0,1-0.3,1.7-1,2.3c-0.7,0.5-1.8,0.8-3.1,0.7c-1.4,0-2.4-0.4-3.1-1c-0.7-0.6-0.9-1.4-0.9-2.3
				C76.6,148.6,76.8,146.5,77,144.5z M79,151c0,0.4,0.1,0.7,0.3,0.9c0.2,0.2,0.6,0.3,1,0.3c0.4,0,0.8-0.1,1-0.2
				c0.3-0.2,0.4-0.5,0.4-0.9c0-2.2,0.1-4.3,0.1-6.5c0-0.4-0.1-0.7-0.3-0.9c-0.2-0.2-0.5-0.3-0.9-0.3c-0.4,0-0.7,0.1-0.9,0.2
				c-0.2,0.2-0.4,0.5-0.4,0.9C79.3,146.7,79.1,148.8,79,151z"/>
			<path class="st7" d="M89,144.5c-0.1-1,0.1-1.7,0.6-2.3c0.5-0.6,1.3-0.9,2.4-1.1c1.1-0.2,2-0.1,2.7,0.3c0.7,0.4,1.1,1.1,1.3,2
				c0,0.1,0.1,0.2,0.1,0.4c-0.8,0.2-1.5,0.3-2.3,0.4c0-0.2-0.1-0.3-0.1-0.5c-0.1-0.4-0.2-0.7-0.5-0.9c-0.2-0.1-0.5-0.2-0.9-0.1
				c-0.4,0.1-0.6,0.2-0.8,0.4c-0.2,0.2-0.2,0.5-0.2,0.9c0.1,0.4,0.2,0.8,0.5,1c0.3,0.3,0.6,0.5,1,0.8c0.4,0.2,0.8,0.4,1.3,0.6
				c0.5,0.2,0.9,0.4,1.3,0.7c0.4,0.3,0.8,0.6,1.1,0.9c0.3,0.4,0.6,0.8,0.7,1.4c0.2,1,0,1.8-0.6,2.4c-0.6,0.6-1.6,1.1-2.9,1.3
				c-1.3,0.2-2.4,0.1-3.1-0.4c-0.7-0.4-1.1-1.2-1.2-2.1c0-0.2,0-0.5-0.1-0.7c0.8-0.1,1.7-0.2,2.5-0.3c0,0.3,0.1,0.6,0.1,0.9
				c0.1,0.4,0.2,0.7,0.5,0.9c0.3,0.1,0.6,0.2,1,0.1c0.4-0.1,0.7-0.2,1-0.4c0.2-0.2,0.3-0.5,0.2-1c-0.1-0.4-0.3-0.7-0.6-1
				c-0.3-0.3-0.7-0.5-1.1-0.7c-0.4-0.2-0.9-0.4-1.3-0.7c-0.5-0.2-0.9-0.5-1.3-0.8c-0.4-0.3-0.7-0.6-1-1
				C89.2,145.5,89,145.1,89,144.5z"/>
			<path class="st7" d="M96.1,140.5c2.3-0.5,4.6-1.1,6.9-1.9c0.2,0.5,0.4,1.1,0.6,1.6c-0.8,0.3-1.6,0.5-2.4,0.8c1,3.3,2,6.6,3,9.9
				c-0.9,0.3-1.8,0.5-2.7,0.7c-0.9-3.3-1.7-6.6-2.6-10c-0.8,0.2-1.6,0.4-2.4,0.6C96.3,141.6,96.2,141.1,96.1,140.5z"/>
			<path class="st7" d="M106,137.5c1.2,2.9,2.3,5.7,3.5,8.6c0.2,0.4,0.4,0.6,0.7,0.7c0.3,0.1,0.7,0,1-0.2c0.4-0.2,0.7-0.4,0.8-0.6
				c0.2-0.3,0.2-0.6,0-1c-1.3-2.8-2.6-5.6-3.8-8.5c0.7-0.3,1.3-0.6,2-0.9c1.4,2.7,2.7,5.5,4.1,8.2c0.4,0.9,0.5,1.7,0.1,2.5
				c-0.4,0.8-1.2,1.4-2.5,2c-1.3,0.5-2.3,0.7-3.2,0.4c-0.8-0.2-1.4-0.8-1.7-1.8c-1-2.9-2.1-5.7-3.1-8.6
				C104.6,138.1,105.3,137.8,106,137.5z"/>
			<path class="st7" d="M111.7,134.9c1.1-0.6,2.2-1.2,3.2-1.8c1-0.6,1.9-0.9,2.7-0.8c0.8,0.1,1.4,0.5,2,1.3c1.2,1.7,2.3,3.3,3.5,5
				c0.6,0.8,0.7,1.6,0.4,2.4c-0.3,0.8-1,1.6-2.3,2.3c-1.3,0.8-2.6,1.5-3.9,2.2C115.4,142,113.6,138.4,111.7,134.9z M114.6,135.3
				c1.4,2.5,2.9,5,4.3,7.4c0.4-0.3,0.9-0.5,1.3-0.8c0.4-0.2,0.6-0.5,0.7-0.8c0.1-0.3,0.1-0.6-0.2-1c-1.1-1.8-2.2-3.5-3.4-5.3
				c-0.2-0.4-0.5-0.6-0.8-0.6c-0.3,0-0.6,0.1-0.9,0.3C115.4,134.8,115,135,114.6,135.3z"/>
			<path class="st7" d="M124.2,132.8c0.9-0.7,1.8-1.5,2.7-2.3c0.4,0.4,0.8,0.9,1.1,1.3c-0.9,0.8-1.9,1.6-2.8,2.4
				c0.7,0.9,1.5,1.8,2.2,2.8c1.3-1,2.5-2,3.7-3.1c0.4,0.4,0.8,0.8,1.2,1.3c-1.9,1.8-4,3.4-6.1,4.9c-2.4-3.2-4.7-6.5-7.1-9.7
				c1.7-1.3,3.4-2.7,5.1-4.1c0.4,0.4,0.8,0.8,1.2,1.3c-1.1,1-2.1,1.9-3.2,2.8C122.8,131.1,123.5,131.9,124.2,132.8z"/>
			<path class="st7" d="M129.2,125.9c2.1,2,4.2,4.1,6.2,6.1c-0.6,0.6-1.2,1.2-1.9,1.9c-2.8-2.9-5.5-5.8-8.3-8.7
				c0.7-0.7,1.4-1.4,2.2-2.2c2.3,1,4.7,2,7.1,2.9c-1.8-1.6-3.6-3.2-5.4-4.7c0.5-0.6,0.9-1.1,1.4-1.7c3.1,2.5,6.2,5.1,9.3,7.6
				c-0.6,0.8-1.3,1.6-2,2.3C134.9,128.3,132,127.2,129.2,125.9z"/>
			<path class="st7" d="M131.2,118.5c1.6-2,3-4.2,4.4-6.5c0.5,0.3,1,0.6,1.5,0.9c-0.5,0.8-1,1.6-1.4,2.4c2.9,1.9,5.7,3.8,8.6,5.6
				c-0.6,0.9-1.1,1.7-1.7,2.5c-2.8-2-5.6-4-8.4-6c-0.5,0.7-1.1,1.5-1.6,2.2C132.1,119.2,131.6,118.9,131.2,118.5z"/>
			<path class="st7" d="M138.5,112.7c-0.8-0.5-1.3-1.1-1.5-2c-0.1-0.8,0.1-1.8,0.7-3c0.6-1.2,1.2-2,2-2.4c0.7-0.4,1.6-0.4,2.5-0.1
				c0.1,0,0.2,0.1,0.3,0.1c-0.3,0.8-0.7,1.7-1.1,2.5c-0.2-0.1-0.3-0.1-0.5-0.2c-0.4-0.2-0.7-0.2-1-0.1c-0.3,0.1-0.5,0.4-0.7,0.8
				c-0.2,0.4-0.3,0.7-0.2,1c0,0.3,0.3,0.5,0.7,0.7c0.4,0.2,0.7,0.2,1.2,0.1c0.4-0.1,0.8-0.3,1.3-0.5c0.4-0.3,0.9-0.5,1.3-0.9
				c0.5-0.3,0.9-0.6,1.4-0.9c0.5-0.3,1-0.5,1.5-0.6c0.5-0.1,1-0.1,1.5,0.2c0.9,0.4,1.4,1,1.6,2c0.2,0.9-0.1,2.2-0.8,3.6
				c-0.7,1.4-1.5,2.3-2.3,2.8c-0.8,0.4-1.7,0.4-2.5-0.1c-0.2-0.1-0.4-0.2-0.6-0.4c0.5-0.8,0.9-1.6,1.3-2.5c0.3,0.1,0.5,0.3,0.8,0.4
				c0.4,0.2,0.7,0.2,1,0c0.3-0.2,0.5-0.5,0.8-0.9c0.2-0.4,0.3-0.8,0.3-1.2c0-0.3-0.2-0.6-0.6-0.8c-0.4-0.2-0.8-0.2-1.2-0.1
				c-0.4,0.1-0.8,0.3-1.3,0.6c-0.4,0.3-0.9,0.6-1.4,0.9c-0.5,0.3-1,0.6-1.4,0.8c-0.5,0.2-1,0.3-1.5,0.4
				C139.4,113.1,138.9,113,138.5,112.7z"/>
		</g>
	</g>
</g>
<rect id="_x3C_Slice_x3E__5_" x="147" y="25" class="st18" width="54" height="52"/>
</svg>
